<?xml version="1.0" standalone="no"?>
<!DOCTYPE svg PUBLIC "-//W3C//DTD SVG 1.1//EN" "http://www.w3.org/Graphics/SVG/1.1/DTD/svg11.dtd" >
<svg>
<metadata>
Created by FontForge 20120731 at Wed Oct  9 01:48:47 2019
 By www
(c) 2015-2017 Apple Inc. All rights reserved.
</metadata>
<defs>
<font id="SFProText-Semibold" horiz-adv-x="1800" >
  <font-face 
    font-family="SF Pro Text"
    font-weight="600"
    font-stretch="normal"
    units-per-em="2048"
    panose-1="0 0 7 0 0 0 0 0 0 0"
    ascent="1638"
    descent="-410"
    x-height="1094"
    cap-height="1443"
    bbox="-493 -536 2749 2215"
    underline-thickness="169"
    underline-position="-205"
    unicode-range="U+0020-1F189"
  />
<missing-glyph horiz-adv-x="2048" 
d="M99 -494v229h1848v-229h-1848zM99 -51v229h1848v-229h-1848zM99 392v229h1848v-229h-1848zM99 835v229h1848v-229h-1848zM99 1278v229h1848v-229h-1848zM99 1721v229h1848v-229h-1848z" />
    <glyph glyph-name="uni2780" unicode="&#x31;&#x20dd;" 
d="M1021 384h-175v532h-9l-160 -108v155l169 114h175v-693zM899 108q102 0 193.5 31t167 87t131 132.5t85.5 168.5t30 193t-30 193t-85.5 168.5t-131 132.5t-167 87t-193.5 31t-193.5 -31t-167 -87t-131 -132.5t-85.5 -168.5t-30 -193t30 -193t85.5 -168.5t131 -132.5
t167 -87t193.5 -31zM899 -53q-128 0 -244.5 39t-213 110t-167.5 167.5t-110 212.5t-39 245t39 245t110 212.5t167.5 167t213 109.5t244.5 39t244.5 -39t213 -109.5t167.5 -167t110 -212.5t39 -245t-39 -245t-110 -212.5t-167.5 -167.5t-213 -110t-244.5 -39z" />
    <glyph glyph-name="uni2781" unicode="&#x32;&#x20dd;" 
d="M802 857h-163v4q0 61 30 113t88 83t143 31q77 0 134.5 -26t89.5 -71.5t32 -103.5q0 -63 -36.5 -112.5t-93.5 -103.5l-140 -140v-7h281v-140h-519v109l257 251q34 33 56 62.5t22 65.5q0 35 -25 56.5t-63 21.5q-45 0 -69 -26t-24 -63v-2v-2zM899 108q102 0 193.5 31t167 87
t131 132.5t85.5 168.5t30 193t-30 193t-85.5 168.5t-131 132.5t-167 87t-193.5 31t-193.5 -31t-167 -87t-131 -132.5t-85.5 -168.5t-30 -193t30 -193t85.5 -168.5t131 -132.5t167 -87t193.5 -31zM899 -53q-128 0 -244.5 39t-213 110t-167.5 167.5t-110 212.5t-39 245t39 245
t110 212.5t167.5 167t213 109.5t244.5 39t244.5 -39t213 -109.5t167.5 -167t110 -212.5t39 -245t-39 -245t-110 -212.5t-167.5 -167.5t-213 -110t-244.5 -39z" />
    <glyph glyph-name="uni2782" unicode="&#x33;&#x20dd;" 
d="M822 672v131h72q43 0 70 23t27 58q-1 34 -27.5 55t-69.5 21q-44 0 -71.5 -24t-28.5 -56h-162q4 93 71.5 150.5t194.5 57.5q79 0 137 -23.5t90.5 -64.5t33.5 -95q1 -43 -20 -76t-52.5 -53t-60.5 -24v-8q35 -4 70.5 -23t59 -55t23.5 -87q0 -64 -36.5 -110.5t-101 -71.5
t-146.5 -25q-84 0 -145 27.5t-94 75t-34 107.5h160q2 -34 33 -56t79 -23q52 0 83 24t31 61q-1 38 -30.5 61t-80.5 23h-75zM899 108q102 0 193.5 31t167 87t131 132.5t85.5 168.5t30 193t-30 193t-85.5 168.5t-131 132.5t-167 87t-193.5 31t-193.5 -31t-167 -87t-131 -132.5
t-85.5 -168.5t-30 -193t30 -193t85.5 -168.5t131 -132.5t167 -87t193.5 -31zM899 -53q-128 0 -244.5 39t-213 110t-167.5 167.5t-110 212.5t-39 245t39 245t110 212.5t167.5 167t213 109.5t244.5 39t244.5 -39t213 -109.5t167.5 -167t110 -212.5t39 -245t-39 -245
t-110 -212.5t-167.5 -167.5t-213 -110t-244.5 -39z" />
    <glyph glyph-name="uni2783" unicode="&#x34;&#x20dd;" 
d="M841 1077h241v-439h94v-134h-94v-120h-151v120h-348v136q59 111 124 217.5t134 219.5zM736 638h195v313h-11q-51 -82 -97 -158.5t-87 -152.5v-2zM899 108q102 0 193.5 31t167 87t131 132.5t85.5 168.5t30 193t-30 193t-85.5 168.5t-131 132.5t-167 87t-193.5 31
t-193.5 -31t-167 -87t-131 -132.5t-85.5 -168.5t-30 -193t30 -193t85.5 -168.5t131 -132.5t167 -87t193.5 -31zM899 -53q-128 0 -244.5 39t-213 110t-167.5 167.5t-110 212.5t-39 245t39 245t110 212.5t167.5 167t213 109.5t244.5 39t244.5 -39t213 -109.5t167.5 -167
t110 -212.5t39 -245t-39 -245t-110 -212.5t-167.5 -167.5t-213 -110t-244.5 -39z" />
    <glyph glyph-name="uni2784" unicode="&#x35;&#x20dd;" 
d="M638 581h161q8 -37 39.5 -54.5t70.5 -17.5q44 0 78 29.5t34 82.5q0 47 -33.5 76t-79.5 29q-40 0 -65.5 -18t-36.5 -37h-154l29 409h464v-130h-330l-14 -165h8q13 22 51.5 43t97.5 21q65 0 117.5 -26.5t83 -76.5t30.5 -121q0 -75 -35 -131.5t-99 -87.5t-149 -31
q-79 0 -138.5 26.5t-93.5 73.5t-36 106zM899 108q102 0 193.5 31t167 87t131 132.5t85.5 168.5t30 193t-30 193t-85.5 168.5t-131 132.5t-167 87t-193.5 31t-193.5 -31t-167 -87t-131 -132.5t-85.5 -168.5t-30 -193t30 -193t85.5 -168.5t131 -132.5t167 -87t193.5 -31z
M899 -53q-128 0 -244.5 39t-213 110t-167.5 167.5t-110 212.5t-39 245t39 245t110 212.5t167.5 167t213 109.5t244.5 39t244.5 -39t213 -109.5t167.5 -167t110 -212.5t39 -245t-39 -245t-110 -212.5t-167.5 -167.5t-213 -110t-244.5 -39z" />
    <glyph glyph-name="uni2785" unicode="&#x36;&#x20dd;" 
d="M909 372q-87 0 -155.5 39.5t-107.5 118.5t-39 198q0 111 37 191.5t105 124.5t160 44q72 0 130 -25.5t95 -70t46 -102.5h-175q-7 30 -32.5 47.5t-61.5 17.5q-65 0 -100.5 -56.5t-34.5 -156.5h9q23 47 68.5 72.5t105.5 25.5q66 0 118 -29t82 -79t30 -115q0 -71 -36 -126.5
t-99 -87t-145 -31.5zM908 506q47 0 78 31t31 76q0 47 -30 77t-79 30t-79 -30.5t-30 -74.5q0 -47 31 -78t78 -31zM899 108q102 0 193.5 31t167 87t131 132.5t85.5 168.5t30 193t-30 193t-85.5 168.5t-131 132.5t-167 87t-193.5 31t-193.5 -31t-167 -87t-131 -132.5
t-85.5 -168.5t-30 -193t30 -193t85.5 -168.5t131 -132.5t167 -87t193.5 -31zM899 -53q-128 0 -244.5 39t-213 110t-167.5 167.5t-110 212.5t-39 245t39 245t110 212.5t167.5 167t213 109.5t244.5 39t244.5 -39t213 -109.5t167.5 -167t110 -212.5t39 -245t-39 -245
t-110 -212.5t-167.5 -167.5t-213 -110t-244.5 -39z" />
    <glyph glyph-name="uni2786" unicode="&#x37;&#x20dd;" 
d="M649 1070h524v-141l-282 -551h-185l290 546v7h-347v139zM899 108q102 0 193.5 31t167 87t131 132.5t85.5 168.5t30 193t-30 193t-85.5 168.5t-131 132.5t-167 87t-193.5 31t-193.5 -31t-167 -87t-131 -132.5t-85.5 -168.5t-30 -193t30 -193t85.5 -168.5t131 -132.5
t167 -87t193.5 -31zM899 -53q-128 0 -244.5 39t-213 110t-167.5 167.5t-110 212.5t-39 245t39 245t110 212.5t167.5 167t213 109.5t244.5 39t244.5 -39t213 -109.5t167.5 -167t110 -212.5t39 -245t-39 -245t-110 -212.5t-167.5 -167.5t-213 -110t-244.5 -39z" />
    <glyph glyph-name="uni2787" unicode="&#x38;&#x20dd;" 
d="M899 492q51 0 84 27.5t33 70.5q0 44 -32.5 71.5t-84.5 27.5t-85 -28.5t-33 -70.5q0 -43 33 -70.5t85 -27.5zM899 799q43 0 70 24t27 61t-27.5 60.5t-69.5 23.5t-69.5 -23.5t-27.5 -60.5t27 -61t70 -24zM898 372q-89 0 -155 25t-102 71t-36 109q0 65 42 111.5t112 57.5v7
q-61 18 -93 56.5t-32 94.5q0 55 33 96.5t92.5 64.5t139.5 23t139.5 -23t92.5 -64.5t33 -96.5q0 -56 -32.5 -95t-92.5 -56v-7q70 -11 112 -57.5t42 -110.5q0 -62 -36.5 -108.5t-103 -72t-155.5 -25.5zM899 108q102 0 193.5 31t167 87t131 132.5t85.5 168.5t30 193t-30 193
t-85.5 168.5t-131 132.5t-167 87t-193.5 31t-193.5 -31t-167 -87t-131 -132.5t-85.5 -168.5t-30 -193t30 -193t85.5 -168.5t131 -132.5t167 -87t193.5 -31zM899 -53q-128 0 -244.5 39t-213 110t-167.5 167.5t-110 212.5t-39 245t39 245t110 212.5t167.5 167t213 109.5
t244.5 39t244.5 -39t213 -109.5t167.5 -167t110 -212.5t39 -245t-39 -245t-110 -212.5t-167.5 -167.5t-213 -110t-244.5 -39z" />
    <glyph glyph-name="uni2788" unicode="&#x39;&#x20dd;" 
d="M887 372q-70 0 -128 25t-95.5 69.5t-46.5 102.5h175q7 -29 34 -46t63 -17q63 0 99 57t33 154h-9q-23 -46 -68.5 -71t-105.5 -25q-66 0 -118 29t-82 79.5t-30 114.5q0 72 36 127t98.5 86t144.5 31q96 0 164 -43.5t103.5 -123t35.5 -188.5q0 -111 -37 -192t-104.5 -125
t-161.5 -44zM889 743q48 0 78.5 29.5t30.5 74.5q0 46 -30.5 77t-78.5 31t-78.5 -31t-30.5 -76q0 -46 30.5 -75.5t78.5 -29.5zM899 108q102 0 193.5 31t167 87t131 132.5t85.5 168.5t30 193t-30 193t-85.5 168.5t-131 132.5t-167 87t-193.5 31t-193.5 -31t-167 -87
t-131 -132.5t-85.5 -168.5t-30 -193t30 -193t85.5 -168.5t131 -132.5t167 -87t193.5 -31zM899 -53q-128 0 -244.5 39t-213 110t-167.5 167.5t-110 212.5t-39 245t39 245t110 212.5t167.5 167t213 109.5t244.5 39t244.5 -39t213 -109.5t167.5 -167t110 -212.5t39 -245
t-39 -245t-110 -212.5t-167.5 -167.5t-213 -110t-244.5 -39z" />
    <glyph glyph-name="uni24B6" unicode="A&#x20dd;" 
d="M814 688h170l-78 256h-14zM735 408h-173l233 692h208l233 -692h-173l-47 153h-234zM899 108q102 0 193.5 31t167 87t131 132.5t85.5 168.5t30 193t-30 193t-85.5 168.5t-131 132.5t-167 87t-193.5 31t-193.5 -31t-167 -87t-131 -132.5t-85.5 -168.5t-30 -193t30 -193
t85.5 -168.5t131 -132.5t167 -87t193.5 -31zM899 -53q-128 0 -244.5 39t-213 110t-167.5 167.5t-110 212.5t-39 245t39 245t110 212.5t167.5 167t213 109.5t244.5 39t244.5 -39t213 -109.5t167.5 -167t110 -212.5t39 -245t-39 -245t-110 -212.5t-167.5 -167.5t-213 -110
t-244.5 -39z" />
    <glyph glyph-name="uni24B7" unicode="B&#x20dd;" 
d="M642 384v693h325q98 0 156 -45.5t58 -125.5q0 -60 -36 -99.5t-92 -50.5v-8q70 -8 116 -52t46 -119q0 -59 -31 -102.5t-86.5 -67t-127.5 -23.5h-328zM807 959v-165h86q64 0 94 21.5t30 62.5q0 38 -26 59.5t-72 21.5h-112zM807 689v-182h96q74 0 106.5 22.5t32.5 66.5
t-29.5 68.5t-85.5 24.5h-120zM899 108q102 0 193.5 31t167 87t131 132.5t85.5 168.5t30 193t-30 193t-85.5 168.5t-131 132.5t-167 87t-193.5 31t-193.5 -31t-167 -87t-131 -132.5t-85.5 -168.5t-30 -193t30 -193t85.5 -168.5t131 -132.5t167 -87t193.5 -31zM899 -53
q-128 0 -244.5 39t-213 110t-167.5 167.5t-110 212.5t-39 245t39 245t110 212.5t167.5 167t213 109.5t244.5 39t244.5 -39t213 -109.5t167.5 -167t110 -212.5t39 -245t-39 -245t-110 -212.5t-167.5 -167.5t-213 -110t-244.5 -39z" />
    <glyph glyph-name="uni24B8" unicode="C&#x20dd;" 
d="M1043 625h166q-8 -75 -48.5 -132t-108 -89t-154.5 -32q-97 0 -172 43.5t-118 124t-43 190.5t43 190t118 124t172 44q89 0 156.5 -32.5t108 -91t47.5 -134.5h-164q-6 50 -47 82.5t-98 32.5q-74 0 -118 -57.5t-44 -157.5t44 -157.5t118 -57.5q56 0 96 31t46 79zM899 108
q102 0 193.5 31t167 87t131 132.5t85.5 168.5t30 193t-30 193t-85.5 168.5t-131 132.5t-167 87t-193.5 31t-193.5 -31t-167 -87t-131 -132.5t-85.5 -168.5t-30 -193t30 -193t85.5 -168.5t131 -132.5t167 -87t193.5 -31zM899 -53q-128 0 -244.5 39t-213 110t-167.5 167.5
t-110 212.5t-39 245t39 245t110 212.5t167.5 167t213 109.5t244.5 39t244.5 -39t213 -109.5t167.5 -167t110 -212.5t39 -245t-39 -245t-110 -212.5t-167.5 -167.5t-213 -110t-244.5 -39z" />
    <glyph glyph-name="uni24B9" unicode="D&#x20dd;" 
d="M638 1077h283q161 0 242 -89.5t81 -256.5t-81 -257t-242 -90h-283v693zM808 940v-419h87q89 0 131 51.5t42 157.5t-42 158t-131 52h-87zM899 108q102 0 193.5 31t167 87t131 132.5t85.5 168.5t30 193t-30 193t-85.5 168.5t-131 132.5t-167 87t-193.5 31t-193.5 -31
t-167 -87t-131 -132.5t-85.5 -168.5t-30 -193t30 -193t85.5 -168.5t131 -132.5t167 -87t193.5 -31zM899 -53q-128 0 -244.5 39t-213 110t-167.5 167.5t-110 212.5t-39 245t39 245t110 212.5t167.5 167t213 109.5t244.5 39t244.5 -39t213 -109.5t167.5 -167t110 -212.5
t39 -245t-39 -245t-110 -212.5t-167.5 -167.5t-213 -110t-244.5 -39z" />
    <glyph glyph-name="uni24BA" unicode="E&#x20dd;" 
d="M1149 520v-136h-483v693h483v-136h-315v-147h296v-121h-296v-153h315zM899 108q102 0 193.5 31t167 87t131 132.5t85.5 168.5t30 193t-30 193t-85.5 168.5t-131 132.5t-167 87t-193.5 31t-193.5 -31t-167 -87t-131 -132.5t-85.5 -168.5t-30 -193t30 -193t85.5 -168.5
t131 -132.5t167 -87t193.5 -31zM899 -53q-128 0 -244.5 39t-213 110t-167.5 167.5t-110 212.5t-39 245t39 245t110 212.5t167.5 167t213 109.5t244.5 39t244.5 -39t213 -109.5t167.5 -167t110 -212.5t39 -245t-39 -245t-110 -212.5t-167.5 -167.5t-213 -110t-244.5 -39z" />
    <glyph glyph-name="uni24BB" unicode="F&#x20dd;" 
d="M862 384h-173v693h479v-138h-306v-159h278v-136h-278v-260zM899 108q102 0 193.5 31t167 87t131 132.5t85.5 168.5t30 193t-30 193t-85.5 168.5t-131 132.5t-167 87t-193.5 31t-193.5 -31t-167 -87t-131 -132.5t-85.5 -168.5t-30 -193t30 -193t85.5 -168.5t131 -132.5
t167 -87t193.5 -31zM899 -53q-128 0 -244.5 39t-213 110t-167.5 167.5t-110 212.5t-39 245t39 245t110 212.5t167.5 167t213 109.5t244.5 39t244.5 -39t213 -109.5t167.5 -167t110 -212.5t39 -245t-39 -245t-110 -212.5t-167.5 -167.5t-213 -110t-244.5 -39z" />
    <glyph glyph-name="uni24BC" unicode="G&#x20dd;" 
d="M1046 610v38h-139v114h300v-121q0 -77 -36 -138t-104.5 -96t-166.5 -35q-100 0 -175.5 45t-117.5 125.5t-42 187.5t42 187.5t117.5 125.5t175.5 45q83 0 150 -30t108.5 -83.5t50.5 -125.5h-167q-7 45 -46 74t-94 29q-74 0 -118.5 -60.5t-44.5 -161.5q0 -68 20.5 -118.5
t57 -78.5t85.5 -28q70 0 107 29.5t37 75.5zM899 108q102 0 193.5 31t167 87t131 132.5t85.5 168.5t30 193t-30 193t-85.5 168.5t-131 132.5t-167 87t-193.5 31t-193.5 -31t-167 -87t-131 -132.5t-85.5 -168.5t-30 -193t30 -193t85.5 -168.5t131 -132.5t167 -87t193.5 -31z
M899 -53q-128 0 -244.5 39t-213 110t-167.5 167.5t-110 212.5t-39 245t39 245t110 212.5t167.5 167t213 109.5t244.5 39t244.5 -39t213 -109.5t167.5 -167t110 -212.5t39 -245t-39 -245t-110 -212.5t-167.5 -167.5t-213 -110t-244.5 -39z" />
    <glyph glyph-name="uni24BD" unicode="H&#x20dd;" 
d="M1202 384h-166v279h-273v-279h-166v693h166v-272h273v272h166v-693zM899 108q102 0 193.5 31t167 87t131 132.5t85.5 168.5t30 193t-30 193t-85.5 168.5t-131 132.5t-167 87t-193.5 31t-193.5 -31t-167 -87t-131 -132.5t-85.5 -168.5t-30 -193t30 -193t85.5 -168.5
t131 -132.5t167 -87t193.5 -31zM899 -53q-128 0 -244.5 39t-213 110t-167.5 167.5t-110 212.5t-39 245t39 245t110 212.5t167.5 167t213 109.5t244.5 39t244.5 -39t213 -109.5t167.5 -167t110 -212.5t39 -245t-39 -245t-110 -212.5t-167.5 -167.5t-213 -110t-244.5 -39z" />
    <glyph glyph-name="uni24BE" unicode="I&#x20dd;" 
d="M991 384h-184v693h184v-693zM899 108q102 0 193.5 31t167 87t131 132.5t85.5 168.5t30 193t-30 193t-85.5 168.5t-131 132.5t-167 87t-193.5 31t-193.5 -31t-167 -87t-131 -132.5t-85.5 -168.5t-30 -193t30 -193t85.5 -168.5t131 -132.5t167 -87t193.5 -31zM899 -53
q-128 0 -244.5 39t-213 110t-167.5 167.5t-110 212.5t-39 245t39 245t110 212.5t167.5 167t213 109.5t244.5 39t244.5 -39t213 -109.5t167.5 -167t110 -212.5t39 -245t-39 -245t-110 -212.5t-167.5 -167.5t-213 -110t-244.5 -39z" />
    <glyph glyph-name="uni24BF" unicode="J&#x20dd;" 
d="M613 605h169q1 -40 23.5 -62.5t60.5 -22.5q85 0 85 99v451h176v-452q0 -120 -69.5 -186.5t-188.5 -66.5q-82 0 -139 31t-87 85t-30 124zM899 108q102 0 193.5 31t167 87t131 132.5t85.5 168.5t30 193t-30 193t-85.5 168.5t-131 132.5t-167 87t-193.5 31t-193.5 -31
t-167 -87t-131 -132.5t-85.5 -168.5t-30 -193t30 -193t85.5 -168.5t131 -132.5t167 -87t193.5 -31zM899 -53q-128 0 -244.5 39t-213 110t-167.5 167.5t-110 212.5t-39 245t39 245t110 212.5t167.5 167t213 109.5t244.5 39t244.5 -39t213 -109.5t167.5 -167t110 -212.5
t39 -245t-39 -245t-110 -212.5t-167.5 -167.5t-213 -110t-244.5 -39z" />
    <glyph glyph-name="uni24C0" unicode="&#x212a;&#x20dd;" 
d="M1226 1077l-242 -308l250 -385h-201l-177 275l-70 -77v-198h-163v693h163v-290h11l241 290h188zM899 108q102 0 193.5 31t167 87t131 132.5t85.5 168.5t30 193t-30 193t-85.5 168.5t-131 132.5t-167 87t-193.5 31t-193.5 -31t-167 -87t-131 -132.5t-85.5 -168.5t-30 -193
t30 -193t85.5 -168.5t131 -132.5t167 -87t193.5 -31zM899 -53q-128 0 -244.5 39t-213 110t-167.5 167.5t-110 212.5t-39 245t39 245t110 212.5t167.5 167t213 109.5t244.5 39t244.5 -39t213 -109.5t167.5 -167t110 -212.5t39 -245t-39 -245t-110 -212.5t-167.5 -167.5
t-213 -110t-244.5 -39z" />
    <glyph glyph-name="uni24C1" unicode="L&#x20dd;" 
d="M1176 538v-147h-473v693h177v-546h296zM899 108q102 0 193.5 31t167 87t131 132.5t85.5 168.5t30 193t-30 193t-85.5 168.5t-131 132.5t-167 87t-193.5 31t-193.5 -31t-167 -87t-131 -132.5t-85.5 -168.5t-30 -193t30 -193t85.5 -168.5t131 -132.5t167 -87t193.5 -31z
M899 -53q-128 0 -244.5 39t-213 110t-167.5 167.5t-110 212.5t-39 245t39 245t110 212.5t167.5 167t213 109.5t244.5 39t244.5 -39t213 -109.5t167.5 -167t110 -212.5t39 -245t-39 -245t-110 -212.5t-167.5 -167.5t-213 -110t-244.5 -39z" />
    <glyph glyph-name="uni24C2" unicode="M&#x20dd;" 
d="M686 384h-139v693h169l182 -479h4l182 479h167v-693h-138v439h-12l-155 -407h-94l-154 407h-12v-439zM899 108q102 0 193.5 31t167 87t131 132.5t85.5 168.5t30 193t-30 193t-85.5 168.5t-131 132.5t-167 87t-193.5 31t-193.5 -31t-167 -87t-131 -132.5t-85.5 -168.5
t-30 -193t30 -193t85.5 -168.5t131 -132.5t167 -87t193.5 -31zM899 -53q-128 0 -244.5 39t-213 110t-167.5 167.5t-110 212.5t-39 245t39 245t110 212.5t167.5 167t213 109.5t244.5 39t244.5 -39t213 -109.5t167.5 -167t110 -212.5t39 -245t-39 -245t-110 -212.5
t-167.5 -167.5t-213 -110t-244.5 -39z" />
    <glyph glyph-name="uni24C3" unicode="N&#x20dd;" 
d="M756 384h-153v693h131l297 -417h11v417h153v-693h-131l-297 421h-11v-421zM899 108q102 0 193.5 31t167 87t131 132.5t85.5 168.5t30 193t-30 193t-85.5 168.5t-131 132.5t-167 87t-193.5 31t-193.5 -31t-167 -87t-131 -132.5t-85.5 -168.5t-30 -193t30 -193t85.5 -168.5
t131 -132.5t167 -87t193.5 -31zM899 -53q-128 0 -244.5 39t-213 110t-167.5 167.5t-110 212.5t-39 245t39 245t110 212.5t167.5 167t213 109.5t244.5 39t244.5 -39t213 -109.5t167.5 -167t110 -212.5t39 -245t-39 -245t-110 -212.5t-167.5 -167.5t-213 -110t-244.5 -39z" />
    <glyph glyph-name="uni24C4" unicode="O&#x20dd;" 
d="M899 515q67 0 113.5 54.5t46.5 160.5t-46.5 160.5t-113.5 54.5t-113.5 -54.5t-46.5 -160.5t46.5 -160.5t113.5 -54.5zM899 372q-93 0 -169 42t-120.5 122t-44.5 194t44.5 194t120.5 122t169 42t168.5 -42t120.5 -122t45 -194t-45 -194t-120.5 -122t-168.5 -42zM899 108
q102 0 193.5 31t167 87t131 132.5t85.5 168.5t30 193t-30 193t-85.5 168.5t-131 132.5t-167 87t-193.5 31t-193.5 -31t-167 -87t-131 -132.5t-85.5 -168.5t-30 -193t30 -193t85.5 -168.5t131 -132.5t167 -87t193.5 -31zM899 -53q-128 0 -244.5 39t-213 110t-167.5 167.5
t-110 212.5t-39 245t39 245t110 212.5t167.5 167t213 109.5t244.5 39t244.5 -39t213 -109.5t167.5 -167t110 -212.5t39 -245t-39 -245t-110 -212.5t-167.5 -167.5t-213 -110t-244.5 -39z" />
    <glyph glyph-name="uni24C5" unicode="P&#x20dd;" 
d="M967 1077q78 0 134.5 -31.5t87 -86.5t30.5 -126t-30.5 -125t-87.5 -84.5t-136 -30.5h-126v-209h-175v693h303zM1047 833q0 53 -28.5 81t-81.5 28h-105v-217h105q53 0 81.5 27.5t28.5 80.5zM899 108q102 0 193.5 31t167 87t131 132.5t85.5 168.5t30 193t-30 193
t-85.5 168.5t-131 132.5t-167 87t-193.5 31t-193.5 -31t-167 -87t-131 -132.5t-85.5 -168.5t-30 -193t30 -193t85.5 -168.5t131 -132.5t167 -87t193.5 -31zM899 -53q-128 0 -244.5 39t-213 110t-167.5 167.5t-110 212.5t-39 245t39 245t110 212.5t167.5 167t213 109.5
t244.5 39t244.5 -39t213 -109.5t167.5 -167t110 -212.5t39 -245t-39 -245t-110 -212.5t-167.5 -167.5t-213 -110t-244.5 -39z" />
    <glyph glyph-name="uni24C6" unicode="Q&#x20dd;" 
d="M1211 321h-167l-43 66q-48 -15 -102 -15q-93 0 -169 42t-120.5 122t-44.5 194t44.5 194t120.5 122t169 42t168.5 -42t120.5 -122t45 -194q0 -94 -31 -164t-83 -116zM899 515q10 0 19.5 1t17.5 4l-65 103h116l30 -39q20 26 31 62.5t11 83.5q0 106 -46.5 160.5t-113.5 54.5
t-113.5 -54.5t-46.5 -160.5t46.5 -160.5t113.5 -54.5zM899 108q102 0 193.5 31t167 87t131 132.5t85.5 168.5t30 193t-30 193t-85.5 168.5t-131 132.5t-167 87t-193.5 31t-193.5 -31t-167 -87t-131 -132.5t-85.5 -168.5t-30 -193t30 -193t85.5 -168.5t131 -132.5t167 -87
t193.5 -31zM899 -53q-128 0 -244.5 39t-213 110t-167.5 167.5t-110 212.5t-39 245t39 245t110 212.5t167.5 167t213 109.5t244.5 39t244.5 -39t213 -109.5t167.5 -167t110 -212.5t39 -245t-39 -245t-110 -212.5t-167.5 -167.5t-213 -110t-244.5 -39z" />
    <glyph glyph-name="uni24C7" unicode="R&#x20dd;" 
d="M934 1077q126 0 195.5 -59.5t69.5 -162.5q0 -73 -38 -123t-96 -70l148 -278h-185l-121 247h-111v-247h-163v693h301zM796 751h115q53 0 83 24.5t30 70.5q0 49 -30 74t-80 25h-118v-194zM899 108q102 0 193.5 31t167 87t131 132.5t85.5 168.5t30 193t-30 193t-85.5 168.5
t-131 132.5t-167 87t-193.5 31t-193.5 -31t-167 -87t-131 -132.5t-85.5 -168.5t-30 -193t30 -193t85.5 -168.5t131 -132.5t167 -87t193.5 -31zM899 -53q-128 0 -244.5 39t-213 110t-167.5 167.5t-110 212.5t-39 245t39 245t110 212.5t167.5 167t213 109.5t244.5 39
t244.5 -39t213 -109.5t167.5 -167t110 -212.5t39 -245t-39 -245t-110 -212.5t-167.5 -167.5t-213 -110t-244.5 -39z" />
    <glyph glyph-name="uni24C8" unicode="S&#x20dd;" 
d="M607 584h167q5 -38 40 -60.5t90 -22.5t88 22t33 59q0 28 -25 45.5t-86 30.5l-100 19q-93 18 -142.5 68t-49.5 127q0 66 35 114.5t97.5 75.5t146.5 27q80 0 142 -25.5t97.5 -72.5t38.5 -109h-162q-4 37 -35 58.5t-81 21.5t-79.5 -21t-29.5 -56q0 -27 23.5 -44.5
t75.5 -26.5l105 -20q196 -39 196 -198q0 -68 -36.5 -118.5t-102.5 -78t-157 -27.5q-131 0 -208 57t-81 155zM899 108q102 0 193.5 31t167 87t131 132.5t85.5 168.5t30 193t-30 193t-85.5 168.5t-131 132.5t-167 87t-193.5 31t-193.5 -31t-167 -87t-131 -132.5t-85.5 -168.5
t-30 -193t30 -193t85.5 -168.5t131 -132.5t167 -87t193.5 -31zM899 -53q-128 0 -244.5 39t-213 110t-167.5 167.5t-110 212.5t-39 245t39 245t110 212.5t167.5 167t213 109.5t244.5 39t244.5 -39t213 -109.5t167.5 -167t110 -212.5t39 -245t-39 -245t-110 -212.5
t-167.5 -167.5t-213 -110t-244.5 -39z" />
    <glyph glyph-name="uni24C9" unicode="T&#x20dd;" 
d="M988 362h-178v549h-200v144h578v-144h-200v-549zM899 108q102 0 193.5 31t167 87t131 132.5t85.5 168.5t30 193t-30 193t-85.5 168.5t-131 132.5t-167 87t-193.5 31t-193.5 -31t-167 -87t-131 -132.5t-85.5 -168.5t-30 -193t30 -193t85.5 -168.5t131 -132.5t167 -87
t193.5 -31zM899 -53q-128 0 -244.5 39t-213 110t-167.5 167.5t-110 212.5t-39 245t39 245t110 212.5t167.5 167t213 109.5t244.5 39t244.5 -39t213 -109.5t167.5 -167t110 -212.5t39 -245t-39 -245t-110 -212.5t-167.5 -167.5t-213 -110t-244.5 -39z" />
    <glyph glyph-name="uni24CA" unicode="U&#x20dd;" 
d="M899 494q58 0 93 32t35 91v438h172v-454q0 -73 -37 -129.5t-104.5 -89t-158.5 -32.5t-158.5 32.5t-104.5 89t-37 129.5v454h172v-438q0 -59 35 -91t93 -32zM899 108q102 0 193.5 31t167 87t131 132.5t85.5 168.5t30 193t-30 193t-85.5 168.5t-131 132.5t-167 87
t-193.5 31t-193.5 -31t-167 -87t-131 -132.5t-85.5 -168.5t-30 -193t30 -193t85.5 -168.5t131 -132.5t167 -87t193.5 -31zM899 -53q-128 0 -244.5 39t-213 110t-167.5 167.5t-110 212.5t-39 245t39 245t110 212.5t167.5 167t213 109.5t244.5 39t244.5 -39t213 -109.5
t167.5 -167t110 -212.5t39 -245t-39 -245t-110 -212.5t-167.5 -167.5t-213 -110t-244.5 -39z" />
    <glyph glyph-name="uni24CB" unicode="V&#x20dd;" 
d="M786 359l-226 693h195l139 -518h10l139 518h195l-226 -693h-226zM899 108q102 0 193.5 31t167 87t131 132.5t85.5 168.5t30 193t-30 193t-85.5 168.5t-131 132.5t-167 87t-193.5 31t-193.5 -31t-167 -87t-131 -132.5t-85.5 -168.5t-30 -193t30 -193t85.5 -168.5
t131 -132.5t167 -87t193.5 -31zM899 -53q-128 0 -244.5 39t-213 110t-167.5 167.5t-110 212.5t-39 245t39 245t110 212.5t167.5 167t213 109.5t244.5 39t244.5 -39t213 -109.5t167.5 -167t110 -212.5t39 -245t-39 -245t-110 -212.5t-167.5 -167.5t-213 -110t-244.5 -39z" />
    <glyph glyph-name="uni24CC" unicode="W&#x20dd;" 
d="M896 814l-117 -452h-151l-174 693h166l94 -482h8l113 482h128l113 -482h8l94 482h166l-174 -693h-151l-117 452h-6zM899 108q102 0 193.5 31t167 87t131 132.5t85.5 168.5t30 193t-30 193t-85.5 168.5t-131 132.5t-167 87t-193.5 31t-193.5 -31t-167 -87t-131 -132.5
t-85.5 -168.5t-30 -193t30 -193t85.5 -168.5t131 -132.5t167 -87t193.5 -31zM899 -53q-128 0 -244.5 39t-213 110t-167.5 167.5t-110 212.5t-39 245t39 245t110 212.5t167.5 167t213 109.5t244.5 39t244.5 -39t213 -109.5t167.5 -167t110 -212.5t39 -245t-39 -245
t-110 -212.5t-167.5 -167.5t-213 -110t-244.5 -39z" />
    <glyph glyph-name="uni24CD" unicode="X&#x20dd;" 
d="M1226 1077l-222 -347l220 -346h-190l-135 233h-9l-135 -233h-189l222 348l-221 345h198l132 -235h9l132 235h188zM899 108q102 0 193.5 31t167 87t131 132.5t85.5 168.5t30 193t-30 193t-85.5 168.5t-131 132.5t-167 87t-193.5 31t-193.5 -31t-167 -87t-131 -132.5
t-85.5 -168.5t-30 -193t30 -193t85.5 -168.5t131 -132.5t167 -87t193.5 -31zM899 -53q-128 0 -244.5 39t-213 110t-167.5 167.5t-110 212.5t-39 245t39 245t110 212.5t167.5 167t213 109.5t244.5 39t244.5 -39t213 -109.5t167.5 -167t110 -212.5t39 -245t-39 -245
t-110 -212.5t-167.5 -167.5t-213 -110t-244.5 -39z" />
    <glyph glyph-name="uni24CE" unicode="Y&#x20dd;" 
d="M990 372h-181v242l-240 451h193l135 -282h6l135 282h191l-239 -450v-243zM899 108q102 0 193.5 31t167 87t131 132.5t85.5 168.5t30 193t-30 193t-85.5 168.5t-131 132.5t-167 87t-193.5 31t-193.5 -31t-167 -87t-131 -132.5t-85.5 -168.5t-30 -193t30 -193t85.5 -168.5
t131 -132.5t167 -87t193.5 -31zM899 -53q-128 0 -244.5 39t-213 110t-167.5 167.5t-110 212.5t-39 245t39 245t110 212.5t167.5 167t213 109.5t244.5 39t244.5 -39t213 -109.5t167.5 -167t110 -212.5t39 -245t-39 -245t-110 -212.5t-167.5 -167.5t-213 -110t-244.5 -39z" />
    <glyph glyph-name="uni24CF" unicode="Z&#x20dd;" 
d="M629 384v113l321 430v9h-317v141h529v-113l-321 -430v-9h332v-141h-544zM899 108q102 0 193.5 31t167 87t131 132.5t85.5 168.5t30 193t-30 193t-85.5 168.5t-131 132.5t-167 87t-193.5 31t-193.5 -31t-167 -87t-131 -132.5t-85.5 -168.5t-30 -193t30 -193t85.5 -168.5
t131 -132.5t167 -87t193.5 -31zM899 -53q-128 0 -244.5 39t-213 110t-167.5 167.5t-110 212.5t-39 245t39 245t110 212.5t167.5 167t213 109.5t244.5 39t244.5 -39t213 -109.5t167.5 -167t110 -212.5t39 -245t-39 -245t-110 -212.5t-167.5 -167.5t-213 -110t-244.5 -39z" />
    <glyph glyph-name="u1F10B" unicode="&#x23;&#x20dd;" 
d="M899 514q53 0 85.5 53t32.5 163q0 109 -32.5 162.5t-85.5 53.5t-85.5 -53.5t-32.5 -162.5q0 -110 32.5 -163t85.5 -53zM898 372q-84 0 -147.5 42.5t-99 122.5t-35.5 193t35.5 193t99 122t147.5 42q83 0 147.5 -42t100.5 -122t36 -193t-36 -193t-100.5 -122.5
t-147.5 -42.5zM899 108q102 0 193.5 31t167 87t131 132.5t85.5 168.5t30 193t-30 193t-85.5 168.5t-131 132.5t-167 87t-193.5 31t-193.5 -31t-167 -87t-131 -132.5t-85.5 -168.5t-30 -193t30 -193t85.5 -168.5t131 -132.5t167 -87t193.5 -31zM899 -53q-128 0 -244.5 39
t-213 110t-167.5 167.5t-110 212.5t-39 245t39 245t110 212.5t167.5 167t213 109.5t244.5 39t244.5 -39t213 -109.5t167.5 -167t110 -212.5t39 -245t-39 -245t-110 -212.5t-167.5 -167.5t-213 -110t-244.5 -39z" />
    <glyph glyph-name="u1F10C" unicode="&#x30;&#x20dd;&#x25cf;" 
d="M896 490q-58 0 -89 59.5t-31 180.5q0 120 31 180t89 60t89.5 -60t31.5 -180q0 -121 -31.5 -180.5t-89.5 -59.5zM895 338q95 0 166 47t110 135t39 210t-39 210t-110 135t-166 47t-165 -47t-108.5 -135t-38.5 -210t38.5 -210t108.5 -135t165 -47zM899 -52q-128 0 -243.5 39
t-212 110.5t-168 168t-110.5 212.5t-39 243q0 128 39 244t110.5 212.5t168 168t212 110.5t243.5 39t243.5 -39t212 -110.5t168 -168t110.5 -212.5t39 -244q0 -127 -39 -243t-110.5 -212.5t-168 -168t-212 -110.5t-243.5 -39z" />
    <glyph glyph-name="uni278A" unicode="&#x31;&#x20dd;&#x25cf;" 
d="M1035 352v757h-195l-185 -125v-179l179 121h4v-574h197zM899 -52q-128 0 -243.5 39t-212 110.5t-168 168t-110.5 212.5t-39 243q0 128 39 244t110.5 212.5t168 168t212 110.5t243.5 39t243.5 -39t212 -110.5t168 -168t110.5 -212.5t39 -244q0 -127 -39 -243
t-110.5 -212.5t-168 -168t-212 -110.5t-243.5 -39z" />
    <glyph glyph-name="uni278B" unicode="&#x32;&#x20dd;&#x25cf;" 
d="M790 862v7q0 43 25.5 72.5t74.5 29.5q41 0 68.5 -23.5t27.5 -60.5q0 -41 -25.5 -75t-67.5 -74l-273 -265v-122h569v159h-311v1l162 159q59 57 96.5 110t37.5 122q0 62 -35 111.5t-97 78.5t-143 29q-94 0 -158.5 -34.5t-98 -91.5t-33.5 -126v-7h181zM899 -52
q-128 0 -243.5 39t-212 110.5t-168 168t-110.5 212.5t-39 243q0 128 39 244t110.5 212.5t168 168t212 110.5t243.5 39t243.5 -39t212 -110.5t168 -168t110.5 -212.5t39 -244q0 -127 -39 -243t-110.5 -212.5t-168 -168t-212 -110.5t-243.5 -39z" />
    <glyph glyph-name="uni278C" unicode="&#x33;&#x20dd;&#x25cf;" 
d="M808 668h86q53 0 85 -25t33 -65q0 -40 -32.5 -66t-87.5 -26q-52 1 -85 25t-37 62h-179q2 -67 38.5 -120t103 -84t158.5 -31q89 0 159.5 27.5t111.5 79.5t40 123q-1 54 -26 93t-62 61t-76 26v3q32 5 65 27t55.5 58t21.5 84q-1 59 -36.5 104.5t-99.5 71.5t-150 26
q-139 -1 -213 -65t-79 -168h182q1 37 29 61.5t77 24.5q45 0 73.5 -22.5t28.5 -58.5q0 -38 -28.5 -61.5t-74.5 -23.5h-81v-141zM899 -52q-128 0 -243.5 39t-212 110.5t-168 168t-110.5 212.5t-39 243q0 128 39 244t110.5 212.5t168 168t212 110.5t243.5 39t243.5 -39
t212 -110.5t168 -168t110.5 -212.5t39 -244q0 -127 -39 -243t-110.5 -212.5t-168 -168t-212 -110.5t-243.5 -39z" />
    <glyph glyph-name="uni278D" unicode="&#x34;&#x20dd;&#x25cf;" 
d="M832 1109q-69 -109 -119 -191.5t-89 -151t-74 -134.5v-151h376v-129h173v129h102v152h-102v476h-267zM926 633h-201v1q44 81 92.5 160t103.5 169h5v-330zM899 -52q-128 0 -243.5 39t-212 110.5t-168 168t-110.5 212.5t-39 243q0 128 39 244t110.5 212.5t168 168
t212 110.5t243.5 39t243.5 -39t212 -110.5t168 -168t110.5 -212.5t39 -244q0 -127 -39 -243t-110.5 -212.5t-168 -168t-212 -110.5t-243.5 -39z" />
    <glyph glyph-name="uni278E" unicode="&#x35;&#x20dd;&#x25cf;" 
d="M607 569q2 -67 39.5 -118t103 -80t151.5 -29q94 0 163.5 33.5t108 95.5t38.5 146q0 77 -33.5 132t-91 84t-129.5 29q-62 0 -103 -21t-58 -46h-3l14 173h357v144h-510l-31 -448h167q13 23 42 42.5t72 19.5q50 0 86 -31t36 -84q0 -39 -17.5 -66t-45 -41.5t-58.5 -14.5
q-44 0 -78.5 20.5t-42.5 59.5h-177zM899 -52q-128 0 -243.5 39t-212 110.5t-168 168t-110.5 212.5t-39 243q0 128 39 244t110.5 212.5t168 168t212 110.5t243.5 39t243.5 -39t212 -110.5t168 -168t110.5 -212.5t39 -244q0 -127 -39 -243t-110.5 -212.5t-168 -168
t-212 -110.5t-243.5 -39z" />
    <glyph glyph-name="uni278F" unicode="&#x36;&#x20dd;&#x25cf;" 
d="M912 341q90 0 159.5 34t108.5 94t39 138q0 70 -33 125t-90 86.5t-130 31.5q-66 0 -115.5 -27t-74.5 -79h-10q-1 108 37.5 170t109.5 62q40 0 68 -19.5t36 -51.5h192q-8 63 -49.5 112t-106 76.5t-142.5 27.5q-102 0 -176.5 -47.5t-115 -135.5t-40.5 -210q0 -130 43 -216
t118 -128.5t172 -42.5zM910 486q-52 0 -85 34.5t-33 84.5q0 49 32.5 82t86.5 33q53 0 86 -33t33 -83t-34 -84t-86 -34zM899 -52q-128 0 -243.5 39t-212 110.5t-168 168t-110.5 212.5t-39 243q0 128 39 244t110.5 212.5t168 168t212 110.5t243.5 39t243.5 -39t212 -110.5
t168 -168t110.5 -212.5t39 -244q0 -127 -39 -243t-110.5 -212.5t-168 -168t-212 -110.5t-243.5 -39z" />
    <glyph glyph-name="uni2790" unicode="&#x37;&#x20dd;&#x25cf;" 
d="M620 1102v-159h376v-2l-318 -596h209l307 600v157h-574zM899 -52q-128 0 -243.5 39t-212 110.5t-168 168t-110.5 212.5t-39 243q0 128 39 244t110.5 212.5t168 168t212 110.5t243.5 39t243.5 -39t212 -110.5t168 -168t110.5 -212.5t39 -244q0 -127 -39 -243
t-110.5 -212.5t-168 -168t-212 -110.5t-243.5 -39z" />
    <glyph glyph-name="uni2791" unicode="&#x38;&#x20dd;&#x25cf;" 
d="M896 803q-47 0 -76 26t-29 67q0 42 29 68t76 26t76.5 -26t29.5 -68q0 -41 -29.5 -67t-76.5 -26zM896 470q-56 0 -92 30.5t-36 77.5q0 46 36 77t92 31t92.5 -30.5t36.5 -77.5t-36.5 -77.5t-92.5 -30.5zM896 338q97 0 169.5 28t112.5 79t40 120q0 71 -44.5 120t-121.5 63v2
q134 43 134 167q0 61 -36 107.5t-101.5 72t-152.5 25.5t-152 -25.5t-101 -72t-36 -107.5q0 -124 134 -167v-2q-77 -14 -121.5 -63t-44.5 -120q0 -69 40 -120t112 -79t169 -28zM899 -52q-128 0 -243.5 39t-212 110.5t-168 168t-110.5 212.5t-39 243q0 128 39 244t110.5 212.5
t168 168t212 110.5t243.5 39t243.5 -39t212 -110.5t168 -168t110.5 -212.5t39 -244q0 -127 -39 -243t-110.5 -212.5t-168 -168t-212 -110.5t-243.5 -39z" />
    <glyph glyph-name="uni2792" unicode="&#x39;&#x20dd;&#x25cf;" 
d="M885 341q104 0 178.5 47.5t115 135.5t40.5 209q0 119 -39.5 206t-114 134.5t-179.5 47.5q-90 0 -159.5 -34.5t-108.5 -94.5t-39 -138q0 -70 33 -125t90 -86.5t130 -31.5q66 0 115.5 27.5t74.5 79.5h10q3 -106 -36 -169t-108 -63q-40 0 -69.5 19t-37.5 50h-192
q10 -63 51 -111t104.5 -75.5t140.5 -27.5zM887 745q-52 0 -85.5 32.5t-33.5 82.5q0 49 33.5 82t86.5 33q52 0 85 -33.5t33 -83.5q0 -48 -33 -80.5t-86 -32.5zM899 -52q-128 0 -243.5 39t-212 110.5t-168 168t-110.5 212.5t-39 243q0 128 39 244t110.5 212.5t168 168
t212 110.5t243.5 39t243.5 -39t212 -110.5t168 -168t110.5 -212.5t39 -244q0 -127 -39 -243t-110.5 -212.5t-168 -168t-212 -110.5t-243.5 -39z" />
    <glyph glyph-name="u1F130" unicode="A&#x20de;" 
d="M814 675h170l-78 256h-14zM735 395h-173l233 692h208l233 -692h-173l-47 153h-234zM413 1469h972q72 0 131 -34.5t94 -92.5t35 -129v-982q0 -71 -35 -129t-94 -92.5t-131 -34.5h-972q-72 0 -131 34.5t-94 92.5t-35 129v982q0 71 35 129t94 92.5t131 34.5zM1483 1187
q0 36 -18.5 65.5t-49 47.5t-68.5 18h-896q-37 0 -68 -17.5t-49.5 -47t-18.5 -66.5v-930q0 -35 18.5 -65t49.5 -48t68 -18h896q37 0 68 18t49.5 48t18.5 65v930z" />
    <glyph glyph-name="u1F131" unicode="B&#x20de;" 
d="M642 384v693h325q98 0 156 -45.5t58 -125.5q0 -60 -36 -99.5t-92 -50.5v-8q70 -8 116 -52t46 -119q0 -59 -31 -102.5t-86.5 -67t-127.5 -23.5h-328zM807 959v-165h86q64 0 94 21.5t30 62.5q0 38 -26 59.5t-72 21.5h-112zM807 689v-182h96q74 0 106.5 22.5t32.5 66.5
t-29.5 68.5t-85.5 24.5h-120zM413 1469h972q72 0 131 -34.5t94 -92.5t35 -129v-982q0 -71 -35 -129t-94 -92.5t-131 -34.5h-972q-72 0 -131 34.5t-94 92.5t-35 129v982q0 71 35 129t94 92.5t131 34.5zM1483 1187q0 36 -18.5 65.5t-49 47.5t-68.5 18h-896q-37 0 -68 -17.5
t-49.5 -47t-18.5 -66.5v-930q0 -35 18.5 -65t49.5 -48t68 -18h896q37 0 68 18t49.5 48t18.5 65v930z" />
    <glyph glyph-name="u1F132" unicode="C&#x20de;" 
d="M1043 625h166q-8 -75 -48.5 -132t-108 -89t-154.5 -32q-97 0 -172 43.5t-118 124t-43 190.5t43 190t118 124t172 44q89 0 156.5 -32.5t108 -91t47.5 -134.5h-164q-6 50 -47 82.5t-98 32.5q-74 0 -118 -57.5t-44 -157.5t44 -157.5t118 -57.5q56 0 96 31t46 79zM413 1469
h972q72 0 131 -34.5t94 -92.5t35 -129v-982q0 -71 -35 -129t-94 -92.5t-131 -34.5h-972q-72 0 -131 34.5t-94 92.5t-35 129v982q0 71 35 129t94 92.5t131 34.5zM1483 1187q0 36 -18.5 65.5t-49 47.5t-68.5 18h-896q-37 0 -68 -17.5t-49.5 -47t-18.5 -66.5v-930
q0 -35 18.5 -65t49.5 -48t68 -18h896q37 0 68 18t49.5 48t18.5 65v930z" />
    <glyph glyph-name="u1F133" unicode="D&#x20de;" 
d="M622 1077h283q161 0 242.5 -89.5t81.5 -256.5t-81.5 -257t-242.5 -90h-283v693zM792 940v-419h87q90 0 131.5 51.5t41.5 157.5t-41.5 158t-131.5 52h-87zM413 1469h972q72 0 131 -34.5t94 -92.5t35 -129v-982q0 -71 -35 -129t-94 -92.5t-131 -34.5h-972q-72 0 -131 34.5
t-94 92.5t-35 129v982q0 71 35 129t94 92.5t131 34.5zM1483 1187q0 36 -18.5 65.5t-49 47.5t-68.5 18h-896q-37 0 -68 -17.5t-49.5 -47t-18.5 -66.5v-930q0 -35 18.5 -65t49.5 -48t68 -18h896q37 0 68 18t49.5 48t18.5 65v930z" />
    <glyph glyph-name="u1F134" unicode="E&#x20de;" 
d="M1149 520v-136h-483v693h483v-136h-315v-147h296v-121h-296v-153h315zM413 1469h972q72 0 131 -34.5t94 -92.5t35 -129v-982q0 -71 -35 -129t-94 -92.5t-131 -34.5h-972q-72 0 -131 34.5t-94 92.5t-35 129v982q0 71 35 129t94 92.5t131 34.5zM1483 1187q0 36 -18.5 65.5
t-49 47.5t-68.5 18h-896q-37 0 -68 -17.5t-49.5 -47t-18.5 -66.5v-930q0 -35 18.5 -65t49.5 -48t68 -18h896q37 0 68 18t49.5 48t18.5 65v930z" />
    <glyph glyph-name="u1F135" unicode="F&#x20de;" 
d="M862 384h-173v693h479v-138h-306v-159h278v-136h-278v-260zM413 1469h972q72 0 131 -34.5t94 -92.5t35 -129v-982q0 -71 -35 -129t-94 -92.5t-131 -34.5h-972q-72 0 -131 34.5t-94 92.5t-35 129v982q0 71 35 129t94 92.5t131 34.5zM1483 1187q0 36 -18.5 65.5t-49 47.5
t-68.5 18h-896q-37 0 -68 -17.5t-49.5 -47t-18.5 -66.5v-930q0 -35 18.5 -65t49.5 -48t68 -18h896q37 0 68 18t49.5 48t18.5 65v930z" />
    <glyph glyph-name="u1F136" unicode="G&#x20de;" 
d="M1046 610v38h-139v114h300v-121q0 -77 -36 -138t-104.5 -96t-166.5 -35q-100 0 -175.5 45t-117.5 125.5t-42 187.5t42 187.5t117.5 125.5t175.5 45q83 0 150 -30t108.5 -83.5t50.5 -125.5h-167q-7 45 -46 74t-94 29q-74 0 -118.5 -60.5t-44.5 -161.5q0 -68 20.5 -118.5
t57 -78.5t85.5 -28q70 0 107 29.5t37 75.5zM413 1469h972q72 0 131 -34.5t94 -92.5t35 -129v-982q0 -71 -35 -129t-94 -92.5t-131 -34.5h-972q-72 0 -131 34.5t-94 92.5t-35 129v982q0 71 35 129t94 92.5t131 34.5zM1483 1187q0 36 -18.5 65.5t-49 47.5t-68.5 18h-896
q-37 0 -68 -17.5t-49.5 -47t-18.5 -66.5v-930q0 -35 18.5 -65t49.5 -48t68 -18h896q37 0 68 18t49.5 48t18.5 65v930z" />
    <glyph glyph-name="u1F137" unicode="H&#x20de;" 
d="M1202 384h-166v279h-273v-279h-166v693h166v-272h273v272h166v-693zM413 1469h972q72 0 131 -34.5t94 -92.5t35 -129v-982q0 -71 -35 -129t-94 -92.5t-131 -34.5h-972q-72 0 -131 34.5t-94 92.5t-35 129v982q0 71 35 129t94 92.5t131 34.5zM1483 1187q0 36 -18.5 65.5
t-49 47.5t-68.5 18h-896q-37 0 -68 -17.5t-49.5 -47t-18.5 -66.5v-930q0 -35 18.5 -65t49.5 -48t68 -18h896q37 0 68 18t49.5 48t18.5 65v930z" />
    <glyph glyph-name="u1F138" unicode="I&#x20de;" 
d="M991 384h-184v693h184v-693zM413 1469h972q72 0 131 -34.5t94 -92.5t35 -129v-982q0 -71 -35 -129t-94 -92.5t-131 -34.5h-972q-72 0 -131 34.5t-94 92.5t-35 129v982q0 71 35 129t94 92.5t131 34.5zM1483 1187q0 36 -18.5 65.5t-49 47.5t-68.5 18h-896q-37 0 -68 -17.5
t-49.5 -47t-18.5 -66.5v-930q0 -35 18.5 -65t49.5 -48t68 -18h896q37 0 68 18t49.5 48t18.5 65v930z" />
    <glyph glyph-name="u1F139" unicode="J&#x20de;" 
d="M613 605h169q1 -40 23.5 -62.5t60.5 -22.5q85 0 85 99v451h176v-452q0 -120 -69.5 -186.5t-188.5 -66.5q-82 0 -139 31t-87 85t-30 124zM413 1469h972q72 0 131 -34.5t94 -92.5t35 -129v-982q0 -71 -35 -129t-94 -92.5t-131 -34.5h-972q-72 0 -131 34.5t-94 92.5t-35 129
v982q0 71 35 129t94 92.5t131 34.5zM1483 1187q0 36 -18.5 65.5t-49 47.5t-68.5 18h-896q-37 0 -68 -17.5t-49.5 -47t-18.5 -66.5v-930q0 -35 18.5 -65t49.5 -48t68 -18h896q37 0 68 18t49.5 48t18.5 65v930z" />
    <glyph glyph-name="u1F13A" unicode="&#x212a;&#x20de;" 
d="M1226 1077l-242 -308l250 -385h-201l-177 275l-70 -77v-198h-163v693h163v-290h11l241 290h188zM413 1469h972q72 0 131 -34.5t94 -92.5t35 -129v-982q0 -71 -35 -129t-94 -92.5t-131 -34.5h-972q-72 0 -131 34.5t-94 92.5t-35 129v982q0 71 35 129t94 92.5t131 34.5z
M1483 1187q0 36 -18.5 65.5t-49 47.5t-68.5 18h-896q-37 0 -68 -17.5t-49.5 -47t-18.5 -66.5v-930q0 -35 18.5 -65t49.5 -48t68 -18h896q37 0 68 18t49.5 48t18.5 65v930z" />
    <glyph glyph-name="u1F13B" unicode="L&#x20de;" 
d="M1182 538v-147h-472v693h177v-546h295zM413 1469h972q72 0 131 -34.5t94 -92.5t35 -129v-982q0 -71 -35 -129t-94 -92.5t-131 -34.5h-972q-72 0 -131 34.5t-94 92.5t-35 129v982q0 71 35 129t94 92.5t131 34.5zM1483 1187q0 36 -18.5 65.5t-49 47.5t-68.5 18h-896
q-37 0 -68 -17.5t-49.5 -47t-18.5 -66.5v-930q0 -35 18.5 -65t49.5 -48t68 -18h896q37 0 68 18t49.5 48t18.5 65v930z" />
    <glyph glyph-name="u1F13C" unicode="M&#x20de;" 
d="M686 384h-139v693h169l182 -479h4l182 479h167v-693h-138v439h-12l-155 -407h-94l-154 407h-12v-439zM413 1469h972q72 0 131 -34.5t94 -92.5t35 -129v-982q0 -71 -35 -129t-94 -92.5t-131 -34.5h-972q-72 0 -131 34.5t-94 92.5t-35 129v982q0 71 35 129t94 92.5
t131 34.5zM1483 1187q0 36 -18.5 65.5t-49 47.5t-68.5 18h-896q-37 0 -68 -17.5t-49.5 -47t-18.5 -66.5v-930q0 -35 18.5 -65t49.5 -48t68 -18h896q37 0 68 18t49.5 48t18.5 65v930z" />
    <glyph glyph-name="u1F13D" unicode="N&#x20de;" 
d="M756 384h-153v693h131l297 -417h11v417h153v-693h-131l-297 421h-11v-421zM413 1469h972q72 0 131 -34.5t94 -92.5t35 -129v-982q0 -71 -35 -129t-94 -92.5t-131 -34.5h-972q-72 0 -131 34.5t-94 92.5t-35 129v982q0 71 35 129t94 92.5t131 34.5zM1483 1187
q0 36 -18.5 65.5t-49 47.5t-68.5 18h-896q-37 0 -68 -17.5t-49.5 -47t-18.5 -66.5v-930q0 -35 18.5 -65t49.5 -48t68 -18h896q37 0 68 18t49.5 48t18.5 65v930z" />
    <glyph glyph-name="u1F13E" unicode="O&#x20de;" 
d="M899 515q67 0 113.5 54.5t46.5 160.5t-46.5 160.5t-113.5 54.5t-113.5 -54.5t-46.5 -160.5t46.5 -160.5t113.5 -54.5zM899 372q-93 0 -169 42t-120.5 122t-44.5 194t44.5 194t120.5 122t169 42t168.5 -42t120.5 -122t45 -194t-45 -194t-120.5 -122t-168.5 -42zM413 1469
h972q72 0 131 -34.5t94 -92.5t35 -129v-982q0 -71 -35 -129t-94 -92.5t-131 -34.5h-972q-72 0 -131 34.5t-94 92.5t-35 129v982q0 71 35 129t94 92.5t131 34.5zM1483 1187q0 36 -18.5 65.5t-49 47.5t-68.5 18h-896q-37 0 -68 -17.5t-49.5 -47t-18.5 -66.5v-930
q0 -35 18.5 -65t49.5 -48t68 -18h896q37 0 68 18t49.5 48t18.5 65v930z" />
    <glyph glyph-name="u1F13F" unicode="P&#x20de;" 
d="M967 1077q78 0 134.5 -31.5t87 -86.5t30.5 -126t-30.5 -125t-87.5 -84.5t-136 -30.5h-126v-209h-175v693h303zM1047 833q0 53 -28.5 81t-81.5 28h-105v-217h105q53 0 81.5 27.5t28.5 80.5zM413 1469h972q72 0 131 -34.5t94 -92.5t35 -129v-982q0 -71 -35 -129t-94 -92.5
t-131 -34.5h-972q-72 0 -131 34.5t-94 92.5t-35 129v982q0 71 35 129t94 92.5t131 34.5zM1483 1187q0 36 -18.5 65.5t-49 47.5t-68.5 18h-896q-37 0 -68 -17.5t-49.5 -47t-18.5 -66.5v-930q0 -35 18.5 -65t49.5 -48t68 -18h896q37 0 68 18t49.5 48t18.5 65v930z" />
    <glyph glyph-name="u1F140" unicode="Q&#x20de;" 
d="M1211 321h-167l-43 66q-48 -15 -102 -15q-93 0 -169 42t-120.5 122t-44.5 194t44.5 194t120.5 122t169 42t168.5 -42t120.5 -122t45 -194q0 -94 -31 -164t-83 -116zM899 515q10 0 19.5 1t17.5 4l-65 103h116l30 -39q20 26 31 62.5t11 83.5q0 106 -46.5 160.5t-113.5 54.5
t-113.5 -54.5t-46.5 -160.5t46.5 -160.5t113.5 -54.5zM413 1469h972q72 0 131 -34.5t94 -92.5t35 -129v-982q0 -71 -35 -129t-94 -92.5t-131 -34.5h-972q-72 0 -131 34.5t-94 92.5t-35 129v982q0 71 35 129t94 92.5t131 34.5zM1483 1187q0 36 -18.5 65.5t-49 47.5t-68.5 18
h-896q-37 0 -68 -17.5t-49.5 -47t-18.5 -66.5v-930q0 -35 18.5 -65t49.5 -48t68 -18h896q37 0 68 18t49.5 48t18.5 65v930z" />
    <glyph glyph-name="u1F141" unicode="R&#x20de;" 
d="M934 1077q126 0 195.5 -59.5t69.5 -162.5q0 -73 -38 -123t-96 -70l148 -278h-185l-121 247h-111v-247h-163v693h301zM796 751h115q53 0 83 24.5t30 70.5q0 49 -30 74t-80 25h-118v-194zM413 1469h972q72 0 131 -34.5t94 -92.5t35 -129v-982q0 -71 -35 -129t-94 -92.5
t-131 -34.5h-972q-72 0 -131 34.5t-94 92.5t-35 129v982q0 71 35 129t94 92.5t131 34.5zM1483 1187q0 36 -18.5 65.5t-49 47.5t-68.5 18h-896q-37 0 -68 -17.5t-49.5 -47t-18.5 -66.5v-930q0 -35 18.5 -65t49.5 -48t68 -18h896q37 0 68 18t49.5 48t18.5 65v930z" />
    <glyph glyph-name="u1F142" unicode="S&#x20de;" 
d="M607 584h167q5 -38 40 -60.5t90 -22.5t88 22t33 59q0 28 -25 45.5t-86 30.5l-100 19q-93 18 -142.5 68t-49.5 127q0 66 35 114.5t97.5 75.5t146.5 27q80 0 142 -25.5t97.5 -72.5t38.5 -109h-162q-4 37 -35 58.5t-81 21.5t-79.5 -21t-29.5 -56q0 -27 23.5 -44.5
t75.5 -26.5l105 -20q196 -39 196 -198q0 -68 -36.5 -118.5t-102.5 -78t-157 -27.5q-131 0 -208 57t-81 155zM413 1469h972q72 0 131 -34.5t94 -92.5t35 -129v-982q0 -71 -35 -129t-94 -92.5t-131 -34.5h-972q-72 0 -131 34.5t-94 92.5t-35 129v982q0 71 35 129t94 92.5
t131 34.5zM1483 1187q0 36 -18.5 65.5t-49 47.5t-68.5 18h-896q-37 0 -68 -17.5t-49.5 -47t-18.5 -66.5v-930q0 -35 18.5 -65t49.5 -48t68 -18h896q37 0 68 18t49.5 48t18.5 65v930z" />
    <glyph glyph-name="u1F143" unicode="T&#x20de;" 
d="M988 375h-178v549h-200v144h578v-144h-200v-549zM413 1469h972q72 0 131 -34.5t94 -92.5t35 -129v-982q0 -71 -35 -129t-94 -92.5t-131 -34.5h-972q-72 0 -131 34.5t-94 92.5t-35 129v982q0 71 35 129t94 92.5t131 34.5zM1483 1187q0 36 -18.5 65.5t-49 47.5t-68.5 18
h-896q-37 0 -68 -17.5t-49.5 -47t-18.5 -66.5v-930q0 -35 18.5 -65t49.5 -48t68 -18h896q37 0 68 18t49.5 48t18.5 65v930z" />
    <glyph glyph-name="u1F144" unicode="U&#x20de;" 
d="M899 507q58 0 93 32.5t35 90.5v438h172v-454q0 -73 -37 -129.5t-104.5 -89t-158.5 -32.5t-158.5 32.5t-104.5 89t-37 129.5v454h172v-438q0 -58 35 -90.5t93 -32.5zM413 1469h972q72 0 131 -34.5t94 -92.5t35 -129v-982q0 -71 -35 -129t-94 -92.5t-131 -34.5h-972
q-72 0 -131 34.5t-94 92.5t-35 129v982q0 71 35 129t94 92.5t131 34.5zM1483 1187q0 36 -18.5 65.5t-49 47.5t-68.5 18h-896q-37 0 -68 -17.5t-49.5 -47t-18.5 -66.5v-930q0 -35 18.5 -65t49.5 -48t68 -18h896q37 0 68 18t49.5 48t18.5 65v930z" />
    <glyph glyph-name="u1F145" unicode="V&#x20de;" 
d="M786 372l-226 693h195l139 -518h10l139 518h195l-226 -693h-226zM413 1469h972q72 0 131 -34.5t94 -92.5t35 -129v-982q0 -71 -35 -129t-94 -92.5t-131 -34.5h-972q-72 0 -131 34.5t-94 92.5t-35 129v982q0 71 35 129t94 92.5t131 34.5zM1483 1187q0 36 -18.5 65.5
t-49 47.5t-68.5 18h-896q-37 0 -68 -17.5t-49.5 -47t-18.5 -66.5v-930q0 -35 18.5 -65t49.5 -48t68 -18h896q37 0 68 18t49.5 48t18.5 65v930z" />
    <glyph glyph-name="u1F146" unicode="W&#x20de;" 
d="M896 827l-117 -452h-151l-174 693h166l94 -482h8l113 482h128l113 -482h8l94 482h166l-174 -693h-151l-117 452h-6zM413 1469h972q72 0 131 -34.5t94 -92.5t35 -129v-982q0 -71 -35 -129t-94 -92.5t-131 -34.5h-972q-72 0 -131 34.5t-94 92.5t-35 129v982q0 71 35 129
t94 92.5t131 34.5zM1483 1187q0 36 -18.5 65.5t-49 47.5t-68.5 18h-896q-37 0 -68 -17.5t-49.5 -47t-18.5 -66.5v-930q0 -35 18.5 -65t49.5 -48t68 -18h896q37 0 68 18t49.5 48t18.5 65v930z" />
    <glyph glyph-name="u1F147" unicode="X&#x20de;" 
d="M1226 1077l-222 -347l220 -346h-190l-135 233h-9l-135 -233h-189l222 348l-221 345h198l132 -235h9l132 235h188zM413 1469h972q72 0 131 -34.5t94 -92.5t35 -129v-982q0 -71 -35 -129t-94 -92.5t-131 -34.5h-972q-72 0 -131 34.5t-94 92.5t-35 129v982q0 71 35 129
t94 92.5t131 34.5zM1483 1187q0 36 -18.5 65.5t-49 47.5t-68.5 18h-896q-37 0 -68 -17.5t-49.5 -47t-18.5 -66.5v-930q0 -35 18.5 -65t49.5 -48t68 -18h896q37 0 68 18t49.5 48t18.5 65v930z" />
    <glyph glyph-name="u1F148" unicode="Y&#x20de;" 
d="M990 375h-181v242l-240 451h193l135 -282h6l135 282h191l-239 -449v-244zM413 1469h972q72 0 131 -34.5t94 -92.5t35 -129v-982q0 -71 -35 -129t-94 -92.5t-131 -34.5h-972q-72 0 -131 34.5t-94 92.5t-35 129v982q0 71 35 129t94 92.5t131 34.5zM1483 1187
q0 36 -18.5 65.5t-49 47.5t-68.5 18h-896q-37 0 -68 -17.5t-49.5 -47t-18.5 -66.5v-930q0 -35 18.5 -65t49.5 -48t68 -18h896q37 0 68 18t49.5 48t18.5 65v930z" />
    <glyph glyph-name="u1F149" unicode="Z&#x20de;" 
d="M629 384v113l321 430v9h-317v141h529v-113l-321 -430v-9h332v-141h-544zM413 1469h972q72 0 131 -34.5t94 -92.5t35 -129v-982q0 -71 -35 -129t-94 -92.5t-131 -34.5h-972q-72 0 -131 34.5t-94 92.5t-35 129v982q0 71 35 129t94 92.5t131 34.5zM1483 1187
q0 36 -18.5 65.5t-49 47.5t-68.5 18h-896q-37 0 -68 -17.5t-49.5 -47t-18.5 -66.5v-930q0 -35 18.5 -65t49.5 -48t68 -18h896q37 0 68 18t49.5 48t18.5 65v930z" />
    <glyph glyph-name="u1F150" unicode="A&#x20dd;&#x25cf;" 
d="M990 677h-182l87 287h8zM725 376l52 165h244l52 -165h196l-254 757h-231l-255 -757h196zM899 -52q-128 0 -243.5 39t-212 110.5t-168 168t-110.5 212.5t-39 243q0 128 39 244t110.5 212.5t168 168t212 110.5t243.5 39t243.5 -39t212 -110.5t168 -168t110.5 -212.5
t39 -244q0 -127 -39 -243t-110.5 -212.5t-168 -168t-212 -110.5t-243.5 -39z" />
    <glyph glyph-name="u1F151" unicode="B&#x20dd;&#x25cf;" 
d="M610 353h359q82 0 142.5 26.5t94.5 74.5t34 112q0 76 -45.5 126t-125.5 62v2q63 16 98 60t35 106q0 87 -63 137.5t-173 50.5h-356v-757zM795 976h120q48 0 75.5 -22.5t27.5 -62.5q0 -89 -132 -89h-91v174zM794 684h129q58 0 90.5 -26t32.5 -73t-36.5 -70.5t-112.5 -23.5
h-103v193zM899 -52q-128 0 -243.5 39t-212 110.5t-168 168t-110.5 212.5t-39 243q0 128 39 244t110.5 212.5t168 168t212 110.5t243.5 39t243.5 -39t212 -110.5t168 -168t110.5 -212.5t39 -244q0 -127 -39 -243t-110.5 -212.5t-168 -168t-212 -110.5t-243.5 -39z" />
    <glyph glyph-name="u1F152" unicode="C&#x20dd;&#x25cf;" 
d="M1050 614q-6 -46 -48 -77.5t-100 -31.5q-77 0 -123 59.5t-46 164.5q0 104 46 164.5t123 60.5q39 0 72 -15.5t54 -42t25 -58.5h187q-7 84 -51.5 147.5t-119 99t-170.5 35.5q-106 0 -188 -48t-128.5 -136t-46.5 -207q0 -120 46.5 -208t128.5 -135.5t188 -47.5
q94 0 167.5 35t118 97t53.5 144h-188zM899 -52q-128 0 -243.5 39t-212 110.5t-168 168t-110.5 212.5t-39 243q0 128 39 244t110.5 212.5t168 168t212 110.5t243.5 39t243.5 -39t212 -110.5t168 -168t110.5 -212.5t39 -244q0 -127 -39 -243t-110.5 -212.5t-168 -168
t-212 -110.5t-243.5 -39z" />
    <glyph glyph-name="u1F153" unicode="D&#x20dd;&#x25cf;" 
d="M605 1110v-757h310q175 0 265 96.5t90 282.5t-90 282t-265 96h-310zM794 960h92q97 0 142 -56t45 -174t-45 -172.5t-142 -54.5h-92v457zM899 -52q-128 0 -243.5 39t-212 110.5t-168 168t-110.5 212.5t-39 243q0 128 39 244t110.5 212.5t168 168t212 110.5t243.5 39
t243.5 -39t212 -110.5t168 -168t110.5 -212.5t39 -244q0 -127 -39 -243t-110.5 -212.5t-168 -168t-212 -110.5t-243.5 -39z" />
    <glyph glyph-name="u1F154" unicode="E&#x20dd;&#x25cf;" 
d="M1170 500h-345v166h324v136h-324v160h345v148h-533v-757h533v147zM899 -52q-128 0 -243.5 39t-212 110.5t-168 168t-110.5 212.5t-39 243q0 128 39 244t110.5 212.5t168 168t212 110.5t243.5 39t243.5 -39t212 -110.5t168 -168t110.5 -212.5t39 -244q0 -127 -39 -243
t-110.5 -212.5t-168 -168t-212 -110.5t-243.5 -39z" />
    <glyph glyph-name="u1F155" unicode="F&#x20dd;&#x25cf;" 
d="M856 353v281h303v154h-303v168h332v154h-527v-757h195zM899 -52q-128 0 -243.5 39t-212 110.5t-168 168t-110.5 212.5t-39 243q0 128 39 244t110.5 212.5t168 168t212 110.5t243.5 39t243.5 -39t212 -110.5t168 -168t110.5 -212.5t39 -244q0 -127 -39 -243t-110.5 -212.5
t-168 -168t-212 -110.5t-243.5 -39z" />
    <glyph glyph-name="u1F156" unicode="G&#x20dd;&#x25cf;" 
d="M1052 617q0 -49 -38 -84t-111 -35q-76 0 -123 62t-47 169q0 106 46.5 166.5t123.5 60.5q62 0 101 -26t44 -65h192q-11 75 -56.5 132.5t-118.5 90t-164 32.5q-108 0 -190.5 -49t-129 -137t-46.5 -205t46 -205t128 -136.5t191 -48.5q103 0 178.5 40.5t116 109.5t40.5 153
v132h-326v-139h143v-18zM899 -52q-128 0 -243.5 39t-212 110.5t-168 168t-110.5 212.5t-39 243q0 128 39 244t110.5 212.5t168 168t212 110.5t243.5 39t243.5 -39t212 -110.5t168 -168t110.5 -212.5t39 -244q0 -127 -39 -243t-110.5 -212.5t-168 -168t-212 -110.5
t-243.5 -39z" />
    <glyph glyph-name="u1F157" unicode="H&#x20dd;&#x25cf;" 
d="M1230 353v757h-187v-294h-287v294h-188v-757h188v301h287v-301h187zM899 -52q-128 0 -243.5 39t-212 110.5t-168 168t-110.5 212.5t-39 243q0 128 39 244t110.5 212.5t168 168t212 110.5t243.5 39t243.5 -39t212 -110.5t168 -168t110.5 -212.5t39 -244q0 -127 -39 -243
t-110.5 -212.5t-168 -168t-212 -110.5t-243.5 -39z" />
    <glyph glyph-name="u1F158" unicode="I&#x20dd;&#x25cf;" 
d="M1002 353v757h-206v-757h206zM899 -52q-128 0 -243.5 39t-212 110.5t-168 168t-110.5 212.5t-39 243q0 128 39 244t110.5 212.5t168 168t212 110.5t243.5 39t243.5 -39t212 -110.5t168 -168t110.5 -212.5t39 -244q0 -127 -39 -243t-110.5 -212.5t-168 -168t-212 -110.5
t-243.5 -39z" />
    <glyph glyph-name="u1F159" unicode="J&#x20dd;&#x25cf;" 
d="M584 600q0 -82 35 -141.5t98.5 -92.5t148.5 -33q133 0 208 73.5t75 203.5v493h-198v-492q0 -101 -89 -101q-40 0 -62.5 23.5t-22.5 66.5h-193zM899 -52q-128 0 -243.5 39t-212 110.5t-168 168t-110.5 212.5t-39 243q0 128 39 244t110.5 212.5t168 168t212 110.5t243.5 39
t243.5 -39t212 -110.5t168 -168t110.5 -212.5t39 -244q0 -127 -39 -243t-110.5 -212.5t-168 -168t-212 -110.5t-243.5 -39z" />
    <glyph glyph-name="u1F15A" unicode="&#x212a;&#x20dd;&#x25cf;" 
d="M1256 1110h-215l-260 -312h-6v312h-184v-757h184v217l70 77l191 -294h228l-274 418zM899 -52q-128 0 -243.5 39t-212 110.5t-168 168t-110.5 212.5t-39 243q0 128 39 244t110.5 212.5t168 168t212 110.5t243.5 39t243.5 -39t212 -110.5t168 -168t110.5 -212.5t39 -244
q0 -127 -39 -243t-110.5 -212.5t-168 -168t-212 -110.5t-243.5 -39z" />
    <glyph glyph-name="u1F15B" unicode="L&#x20dd;&#x25cf;" 
d="M1196 527h-320v590h-200v-757h520v167zM899 -52q-128 0 -243.5 39t-212 110.5t-168 168t-110.5 212.5t-39 243q0 128 39 244t110.5 212.5t168 168t212 110.5t243.5 39t243.5 -39t212 -110.5t168 -168t110.5 -212.5t39 -244q0 -127 -39 -243t-110.5 -212.5t-168 -168
t-212 -110.5t-243.5 -39z" />
    <glyph glyph-name="u1F15C" unicode="M&#x20dd;&#x25cf;" 
d="M670 353v479h8l166 -442h109l167 440h8v-477h158v757h-188l-198 -520h-2l-197 520h-188v-757h157zM899 -52q-128 0 -243.5 39t-212 110.5t-168 168t-110.5 212.5t-39 243q0 128 39 244t110.5 212.5t168 168t212 110.5t243.5 39t243.5 -39t212 -110.5t168 -168
t110.5 -212.5t39 -244q0 -127 -39 -243t-110.5 -212.5t-168 -168t-212 -110.5t-243.5 -39z" />
    <glyph glyph-name="u1F15D" unicode="N&#x20dd;&#x25cf;" 
d="M749 353v452h5l321 -452h150v757h-175v-451h-6l-321 451h-149v-757h175zM899 -52q-128 0 -243.5 39t-212 110.5t-168 168t-110.5 212.5t-39 243q0 128 39 244t110.5 212.5t168 168t212 110.5t243.5 39t243.5 -39t212 -110.5t168 -168t110.5 -212.5t39 -244
q0 -127 -39 -243t-110.5 -212.5t-168 -168t-212 -110.5t-243.5 -39z" />
    <glyph glyph-name="u1F15E" unicode="O&#x20dd;&#x25cf;" 
d="M899 501q-47 0 -85.5 25.5t-61.5 76.5t-23 126t23 126t61.5 76.5t85.5 25.5t85.5 -25.5t61.5 -76.5t23 -126t-23 -126t-61.5 -76.5t-85.5 -25.5zM899 338q102 0 185 45.5t131.5 133t48.5 212.5t-48.5 212.5t-131.5 133t-185 45.5t-185 -45.5t-131.5 -133t-48.5 -212.5
t48.5 -212.5t131.5 -133t185 -45.5zM899 -52q-128 0 -243.5 39t-212 110.5t-168 168t-110.5 212.5t-39 243q0 128 39 244t110.5 212.5t168 168t212 110.5t243.5 39t243.5 -39t212 -110.5t168 -168t110.5 -212.5t39 -244q0 -127 -39 -243t-110.5 -212.5t-168 -168
t-212 -110.5t-243.5 -39z" />
    <glyph glyph-name="u1F15F" unicode="P&#x20dd;&#x25cf;" 
d="M966 1110h-333v-757h198v226h133q85 0 147.5 32.5t97.5 91.5t35 139t-34.5 140.5t-97.5 94t-146 33.5zM1052 842q0 -56 -31 -86.5t-88 -30.5h-112v234h112q56 0 87.5 -30.5t31.5 -86.5zM899 -52q-128 0 -243.5 39t-212 110.5t-168 168t-110.5 212.5t-39 243q0 128 39 244
t110.5 212.5t168 168t212 110.5t243.5 39t243.5 -39t212 -110.5t168 -168t110.5 -212.5t39 -244q0 -127 -39 -243t-110.5 -212.5t-168 -168t-212 -110.5t-243.5 -39z" />
    <glyph glyph-name="u1F160" unicode="Q&#x20dd;&#x25cf;" 
d="M1246 285l-102 142q55 49 87.5 125t32.5 177q0 125 -48.5 212.5t-131.5 133t-185 45.5t-185 -45.5t-131.5 -133t-48.5 -212.5t48.5 -212.5t131.5 -133t185 -45.5q61 0 110 16l43 -69h194zM899 501q-47 0 -85.5 25.5t-61.5 76.5t-23 126t23 126t61.5 76.5t85.5 25.5
t85.5 -25.5t61.5 -76.5t23 -126q0 -48 -11 -85.5t-30 -64.5l-31 40h-136l72 -115q-16 -3 -34 -3zM899 -52q-128 0 -243.5 39t-212 110.5t-168 168t-110.5 212.5t-39 243q0 128 39 244t110.5 212.5t168 168t212 110.5t243.5 39t243.5 -39t212 -110.5t168 -168t110.5 -212.5
t39 -244q0 -127 -39 -243t-110.5 -212.5t-168 -168t-212 -110.5t-243.5 -39z" />
    <glyph glyph-name="u1F161" unicode="R&#x20dd;&#x25cf;" 
d="M782 755v207h127q57 0 88 -27.5t31 -77.5q0 -48 -31.5 -75t-89.5 -27h-125zM931 1110h-330v-757h185v267h114l130 -267h212l-162 300q67 25 105 81t38 131q0 116 -77.5 180.5t-214.5 64.5zM899 -52q-128 0 -243.5 39t-212 110.5t-168 168t-110.5 212.5t-39 243
q0 128 39 244t110.5 212.5t168 168t212 110.5t243.5 39t243.5 -39t212 -110.5t168 -168t110.5 -212.5t39 -244q0 -127 -39 -243t-110.5 -212.5t-168 -168t-212 -110.5t-243.5 -39z" />
    <glyph glyph-name="u1F162" unicode="S&#x20dd;&#x25cf;" 
d="M578 577q3 -73 42.5 -126.5t110 -82t165.5 -28.5q99 0 172 30t112.5 85.5t39.5 130.5q0 89 -53.5 143t-163.5 75l-112 21q-56 11 -81 29t-25 46q0 36 32 58t84 22t85 -23.5t38 -62.5h182q-3 69 -42 120.5t-107 80.5t-156 29q-92 0 -160.5 -29.5t-107 -83t-38.5 -125.5
q0 -86 54 -141t157 -74l108 -22q66 -13 92 -30.5t26 -48.5q0 -38 -34.5 -60.5t-93.5 -22.5q-58 0 -95.5 24.5t-41.5 65.5h-189zM899 -52q-128 0 -243.5 39t-212 110.5t-168 168t-110.5 212.5t-39 243q0 128 39 244t110.5 212.5t168 168t212 110.5t243.5 39t243.5 -39
t212 -110.5t168 -168t110.5 -212.5t39 -244q0 -127 -39 -243t-110.5 -212.5t-168 -168t-212 -110.5t-243.5 -39z" />
    <glyph glyph-name="u1F163" unicode="T&#x20dd;&#x25cf;" 
d="M998 331v594h218v163h-633v-163h217v-594h198zM899 -52q-128 0 -243.5 39t-212 110.5t-168 168t-110.5 212.5t-39 243q0 128 39 244t110.5 212.5t168 168t212 110.5t243.5 39t243.5 -39t212 -110.5t168 -168t110.5 -212.5t39 -244q0 -127 -39 -243t-110.5 -212.5
t-168 -168t-212 -110.5t-243.5 -39z" />
    <glyph glyph-name="u1F164" unicode="U&#x20dd;&#x25cf;" 
d="M899 482q-63 0 -98.5 34.5t-35.5 93.5v478h-195v-502q0 -80 41 -140.5t114.5 -94t173.5 -33.5q99 0 173 33.5t115 94t41 140.5v502h-194v-478q0 -60 -36.5 -94t-98.5 -34zM899 -52q-128 0 -243.5 39t-212 110.5t-168 168t-110.5 212.5t-39 243q0 128 39 244t110.5 212.5
t168 168t212 110.5t243.5 39t243.5 -39t212 -110.5t168 -168t110.5 -212.5t39 -244q0 -127 -39 -243t-110.5 -212.5t-168 -168t-212 -110.5t-243.5 -39z" />
    <glyph glyph-name="u1F165" unicode="V&#x20dd;&#x25cf;" 
d="M1022 328l248 757h-218l-149 -563h-8l-149 563h-218l248 -757h246zM899 -52q-128 0 -243.5 39t-212 110.5t-168 168t-110.5 212.5t-39 243q0 128 39 244t110.5 212.5t168 168t212 110.5t243.5 39t243.5 -39t212 -110.5t168 -168t110.5 -212.5t39 -244q0 -127 -39 -243
t-110.5 -212.5t-168 -168t-212 -110.5t-243.5 -39z" />
    <glyph glyph-name="u1F166" unicode="W&#x20dd;&#x25cf;" 
d="M897 817h4l126 -486h171l191 757h-189l-99 -522h-5l-122 522h-150l-122 -522h-5l-98 522h-190l192 -757h170zM899 -52q-128 0 -243.5 39t-212 110.5t-168 168t-110.5 212.5t-39 243q0 128 39 244t110.5 212.5t168 168t212 110.5t243.5 39t243.5 -39t212 -110.5t168 -168
t110.5 -212.5t39 -244q0 -127 -39 -243t-110.5 -212.5t-168 -168t-212 -110.5t-243.5 -39z" />
    <glyph glyph-name="u1F167" unicode="X&#x20dd;&#x25cf;" 
d="M1260 1110h-212l-141 -254h-7l-144 254h-222l241 -377l-243 -380h214l145 252h7l146 -252h213l-241 377zM899 -52q-128 0 -243.5 39t-212 110.5t-168 168t-110.5 212.5t-39 243q0 128 39 244t110.5 212.5t168 168t212 110.5t243.5 39t243.5 -39t212 -110.5t168 -168
t110.5 -212.5t39 -244q0 -127 -39 -243t-110.5 -212.5t-168 -168t-212 -110.5t-243.5 -39z" />
    <glyph glyph-name="u1F168" unicode="Y&#x20dd;&#x25cf;" 
d="M798 341h203v265l264 492h-218l-146 -305h-4l-146 305h-217l264 -492v-265zM899 -52q-128 0 -243.5 39t-212 110.5t-168 168t-110.5 212.5t-39 243q0 128 39 244t110.5 212.5t168 168t212 110.5t243.5 39t243.5 -39t212 -110.5t168 -168t110.5 -212.5t39 -244
q0 -127 -39 -243t-110.5 -212.5t-168 -168t-212 -110.5t-243.5 -39z" />
    <glyph glyph-name="u1F169" unicode="Z&#x20dd;&#x25cf;" 
d="M602 353h598v160h-357v3l346 467v127h-582v-161h340v-3l-345 -466v-127zM899 -52q-128 0 -243.5 39t-212 110.5t-168 168t-110.5 212.5t-39 243q0 128 39 244t110.5 212.5t168 168t212 110.5t243.5 39t243.5 -39t212 -110.5t168 -168t110.5 -212.5t39 -244
q0 -127 -39 -243t-110.5 -212.5t-168 -168t-212 -110.5t-243.5 -39z" />
    <glyph glyph-name="u1F170" unicode="A&#x20de;&#x25a0;" 
d="M990 664h-182l87 287h8zM725 363l52 165h244l52 -165h196l-254 757h-231l-255 -757h196zM413 1469h972q72 0 131 -34.5t94 -92.5t35 -129v-982q0 -71 -35 -129t-94 -92.5t-131 -34.5h-972q-72 0 -131 34.5t-94 92.5t-35 129v982q0 71 35 129t94 92.5t131 34.5z" />
    <glyph glyph-name="u1F171" unicode="B&#x20de;&#x25a0;" 
d="M610 353h359q80 0 141 26t95.5 74t34.5 113q0 80 -47.5 128t-123.5 60v2q60 14 96.5 57t36.5 109q0 88 -63.5 138t-172.5 50h-356v-757zM795 976h120q49 0 76 -23t27 -62q0 -44 -32 -66.5t-100 -22.5h-91v174zM794 684h129q60 0 91.5 -26t31.5 -73t-35.5 -70.5
t-113.5 -23.5h-103v193zM413 1469h972q72 0 131 -34.5t94 -92.5t35 -129v-982q0 -71 -35 -129t-94 -92.5t-131 -34.5h-972q-72 0 -131 34.5t-94 92.5t-35 129v982q0 71 35 129t94 92.5t131 34.5z" />
    <glyph glyph-name="u1F172" unicode="C&#x20de;&#x25a0;" 
d="M1050 614q-6 -46 -48 -77.5t-100 -31.5q-77 0 -123 59.5t-46 164.5q0 104 46 164.5t123 60.5q39 0 72 -15.5t54 -42t25 -58.5h187q-7 84 -51.5 147.5t-119 99t-170.5 35.5q-106 0 -188 -48t-128.5 -136t-46.5 -207q0 -120 46.5 -208t128.5 -135.5t188 -47.5
q94 0 167.5 35t118 97t53.5 144h-188zM413 1469h972q72 0 131 -34.5t94 -92.5t35 -129v-982q0 -71 -35 -129t-94 -92.5t-131 -34.5h-972q-72 0 -131 34.5t-94 92.5t-35 129v982q0 71 35 129t94 92.5t131 34.5z" />
    <glyph glyph-name="u1F173" unicode="D&#x20de;&#x25a0;" 
d="M590 1110v-757h310q178 0 266.5 98t88.5 281q0 182 -88.5 280t-266.5 98h-310zM778 960h93q98 0 142.5 -56t44.5 -174q0 -116 -44.5 -171.5t-142.5 -55.5h-93v457zM413 1469h972q72 0 131 -34.5t94 -92.5t35 -129v-982q0 -71 -35 -129t-94 -92.5t-131 -34.5h-972
q-72 0 -131 34.5t-94 92.5t-35 129v982q0 71 35 129t94 92.5t131 34.5z" />
    <glyph glyph-name="u1F174" unicode="E&#x20de;&#x25a0;" 
d="M1170 500h-345v166h324v136h-324v160h345v148h-533v-757h533v147zM413 1469h972q72 0 131 -34.5t94 -92.5t35 -129v-982q0 -71 -35 -129t-94 -92.5t-131 -34.5h-972q-72 0 -131 34.5t-94 92.5t-35 129v982q0 71 35 129t94 92.5t131 34.5z" />
    <glyph glyph-name="u1F175" unicode="F&#x20de;&#x25a0;" 
d="M856 353v281h303v154h-303v168h332v154h-527v-757h195zM413 1469h972q72 0 131 -34.5t94 -92.5t35 -129v-982q0 -71 -35 -129t-94 -92.5t-131 -34.5h-972q-72 0 -131 34.5t-94 92.5t-35 129v982q0 71 35 129t94 92.5t131 34.5z" />
    <glyph glyph-name="u1F176" unicode="G&#x20de;&#x25a0;" 
d="M1052 617q0 -49 -38 -84t-111 -35q-76 0 -123 62t-47 169q0 106 46.5 166.5t123.5 60.5q62 0 101 -26t44 -65h192q-11 75 -56.5 132.5t-118.5 90t-164 32.5q-108 0 -190.5 -49t-129 -137t-46.5 -205t46 -205t128 -136.5t191 -48.5q103 0 178.5 40.5t116 109.5t40.5 153
v132h-326v-139h143v-18zM413 1469h972q72 0 131 -34.5t94 -92.5t35 -129v-982q0 -71 -35 -129t-94 -92.5t-131 -34.5h-972q-72 0 -131 34.5t-94 92.5t-35 129v982q0 71 35 129t94 92.5t131 34.5z" />
    <glyph glyph-name="u1F177" unicode="H&#x20de;&#x25a0;" 
d="M1230 353v757h-187v-294h-287v294h-188v-757h188v301h287v-301h187zM413 1469h972q72 0 131 -34.5t94 -92.5t35 -129v-982q0 -71 -35 -129t-94 -92.5t-131 -34.5h-972q-72 0 -131 34.5t-94 92.5t-35 129v982q0 71 35 129t94 92.5t131 34.5z" />
    <glyph glyph-name="u1F178" unicode="I&#x20de;&#x25a0;" 
d="M1002 353v757h-206v-757h206zM413 1469h972q72 0 131 -34.5t94 -92.5t35 -129v-982q0 -71 -35 -129t-94 -92.5t-131 -34.5h-972q-72 0 -131 34.5t-94 92.5t-35 129v982q0 71 35 129t94 92.5t131 34.5z" />
    <glyph glyph-name="u1F179" unicode="J&#x20de;&#x25a0;" 
d="M584 600q0 -78 33 -138t96.5 -94.5t152.5 -34.5q131 0 207 72.5t76 204.5v493h-198v-492q0 -101 -89 -101q-40 0 -62.5 23.5t-22.5 66.5h-193zM413 1469h972q72 0 131 -34.5t94 -92.5t35 -129v-982q0 -71 -35 -129t-94 -92.5t-131 -34.5h-972q-72 0 -131 34.5t-94 92.5
t-35 129v982q0 71 35 129t94 92.5t131 34.5z" />
    <glyph glyph-name="u1F17A" unicode="&#x212a;&#x20de;&#x25a0;" 
d="M1256 1110h-215l-260 -312h-6v312h-184v-757h184v217l70 77l191 -294h228q-20 28 -47.5 70t-58.5 90.5t-61.5 97.5t-58.5 90.5t-48 69.5zM413 1469h972q72 0 131 -34.5t94 -92.5t35 -129v-982q0 -71 -35 -129t-94 -92.5t-131 -34.5h-972q-72 0 -131 34.5t-94 92.5
t-35 129v982q0 71 35 129t94 92.5t131 34.5z" />
    <glyph glyph-name="u1F17B" unicode="L&#x20de;&#x25a0;" 
d="M1202 527h-320v590h-199v-757h519v167zM413 1469h972q72 0 131 -34.5t94 -92.5t35 -129v-982q0 -71 -35 -129t-94 -92.5t-131 -34.5h-972q-72 0 -131 34.5t-94 92.5t-35 129v982q0 71 35 129t94 92.5t131 34.5z" />
    <glyph glyph-name="u1F17C" unicode="M&#x20de;&#x25a0;" 
d="M670 353v479h8l166 -442h109l167 440h8v-477h158v757h-188l-198 -520h-2l-197 520h-188v-757h157zM413 1469h972q72 0 131 -34.5t94 -92.5t35 -129v-982q0 -71 -35 -129t-94 -92.5t-131 -34.5h-972q-72 0 -131 34.5t-94 92.5t-35 129v982q0 71 35 129t94 92.5t131 34.5z
" />
    <glyph glyph-name="u1F17D" unicode="N&#x20de;&#x25a0;" 
d="M749 353v452h5l321 -452h150v757h-175v-451h-6l-321 451h-149v-757h175zM413 1469h972q72 0 131 -34.5t94 -92.5t35 -129v-982q0 -71 -35 -129t-94 -92.5t-131 -34.5h-972q-72 0 -131 34.5t-94 92.5t-35 129v982q0 71 35 129t94 92.5t131 34.5z" />
    <glyph glyph-name="u1F17E" unicode="O&#x20de;&#x25a0;" 
d="M899 501q-47 0 -85.5 25.5t-61.5 76.5t-23 126t23 126t61.5 76.5t85.5 25.5t85.5 -25.5t61.5 -76.5t23 -126t-23 -126t-61.5 -76.5t-85.5 -25.5zM899 338q102 0 185 45.5t131.5 133t48.5 212.5t-48.5 212.5t-131.5 133t-185 45.5t-185 -45.5t-131.5 -133t-48.5 -212.5
t48.5 -212.5t131.5 -133t185 -45.5zM413 1469h972q72 0 131 -34.5t94 -92.5t35 -129v-982q0 -71 -35 -129t-94 -92.5t-131 -34.5h-972q-72 0 -131 34.5t-94 92.5t-35 129v982q0 71 35 129t94 92.5t131 34.5z" />
    <glyph glyph-name="u1F17F" unicode="P&#x20de;&#x25a0;" 
d="M966 1110h-333v-757h198v226h133q87 0 150 33.5t96.5 92.5t33.5 137t-33.5 138.5t-95.5 95t-149 34.5zM1052 842q0 -56 -31 -86.5t-88 -30.5h-112v234h112q56 0 87.5 -30t31.5 -87zM413 1469h972q72 0 131 -34.5t94 -92.5t35 -129v-982q0 -71 -35 -129t-94 -92.5
t-131 -34.5h-972q-72 0 -131 34.5t-94 92.5t-35 129v982q0 71 35 129t94 92.5t131 34.5z" />
    <glyph glyph-name="u1F180" unicode="Q&#x20de;&#x25a0;" 
d="M1246 285l-102 142q55 49 87.5 125t32.5 177q0 125 -48.5 212.5t-131.5 133t-185 45.5t-185 -45.5t-131.5 -133t-48.5 -212.5t48.5 -212.5t131.5 -133t185 -45.5q61 0 110 16l43 -69h194zM899 501q-47 0 -85.5 25.5t-61.5 76.5t-23 126t23 126t61.5 76.5t85.5 25.5
t85.5 -25.5t61.5 -76.5t23 -126q0 -48 -11 -85.5t-30 -64.5l-31 40h-136l72 -115q-16 -3 -34 -3zM413 1469h972q72 0 131 -34.5t94 -92.5t35 -129v-982q0 -71 -35 -129t-94 -92.5t-131 -34.5h-972q-72 0 -131 34.5t-94 92.5t-35 129v982q0 71 35 129t94 92.5t131 34.5z" />
    <glyph glyph-name="u1F181" unicode="R&#x20de;&#x25a0;" 
d="M782 755v207h127q56 0 87.5 -26.5t31.5 -78.5q0 -49 -32 -75.5t-89 -26.5h-125zM931 1110h-330v-757h185v267h114l130 -267h212l-162 300q62 23 102.5 78t40.5 134q0 115 -76.5 180t-215.5 65zM413 1469h972q72 0 131 -34.5t94 -92.5t35 -129v-982q0 -71 -35 -129
t-94 -92.5t-131 -34.5h-972q-72 0 -131 34.5t-94 92.5t-35 129v982q0 71 35 129t94 92.5t131 34.5z" />
    <glyph glyph-name="u1F182" unicode="S&#x20de;&#x25a0;" 
d="M578 577q3 -73 42.5 -126.5t110 -82t165.5 -28.5q99 0 172 30t112.5 85.5t39.5 130.5q0 89 -53.5 143t-163.5 75l-112 21q-56 11 -81 29t-25 46q0 36 32 58t84 22t85 -23.5t38 -62.5h182q-3 69 -42 120.5t-107 80.5t-156 29q-92 0 -160.5 -29.5t-107 -83t-38.5 -125.5
q0 -86 54 -141t157 -74l108 -22q66 -13 92 -30.5t26 -48.5q0 -38 -34.5 -60.5t-93.5 -22.5q-58 0 -95.5 24.5t-41.5 65.5h-189zM413 1469h972q72 0 131 -34.5t94 -92.5t35 -129v-982q0 -71 -35 -129t-94 -92.5t-131 -34.5h-972q-72 0 -131 34.5t-94 92.5t-35 129v982
q0 71 35 129t94 92.5t131 34.5z" />
    <glyph glyph-name="u1F183" unicode="T&#x20de;&#x25a0;" 
d="M998 344v594h218v163h-633v-163h217v-594h198zM413 1469h972q72 0 131 -34.5t94 -92.5t35 -129v-982q0 -71 -35 -129t-94 -92.5t-131 -34.5h-972q-72 0 -131 34.5t-94 92.5t-35 129v982q0 71 35 129t94 92.5t131 34.5z" />
    <glyph glyph-name="u1F184" unicode="U&#x20de;&#x25a0;" 
d="M899 495q-63 0 -98.5 34.5t-35.5 93.5v478h-195v-502q0 -81 41 -141t114.5 -93.5t173.5 -33.5q99 0 173 33.5t115 93.5t41 141v502h-194v-478q0 -60 -36.5 -94t-98.5 -34zM413 1469h972q72 0 131 -34.5t94 -92.5t35 -129v-982q0 -71 -35 -129t-94 -92.5t-131 -34.5h-972
q-72 0 -131 34.5t-94 92.5t-35 129v982q0 71 35 129t94 92.5t131 34.5z" />
    <glyph glyph-name="u1F185" unicode="V&#x20de;&#x25a0;" 
d="M1022 341l248 757h-218l-149 -563h-8l-149 563h-218l248 -757h246zM413 1469h972q72 0 131 -34.5t94 -92.5t35 -129v-982q0 -71 -35 -129t-94 -92.5t-131 -34.5h-972q-72 0 -131 34.5t-94 92.5t-35 129v982q0 71 35 129t94 92.5t131 34.5z" />
    <glyph glyph-name="u1F186" unicode="W&#x20de;&#x25a0;" 
d="M897 830h4l126 -486h171l191 757h-189l-99 -522h-5l-122 522h-150l-122 -522h-5l-98 522h-190l192 -757h170zM413 1469h972q72 0 131 -34.5t94 -92.5t35 -129v-982q0 -71 -35 -129t-94 -92.5t-131 -34.5h-972q-72 0 -131 34.5t-94 92.5t-35 129v982q0 71 35 129t94 92.5
t131 34.5z" />
    <glyph glyph-name="u1F187" unicode="X&#x20de;&#x25a0;" 
d="M1260 1110h-212l-141 -254h-7l-144 254h-222l241 -377l-243 -380h214l145 252h7l146 -252h213l-241 377zM413 1469h972q72 0 131 -34.5t94 -92.5t35 -129v-982q0 -71 -35 -129t-94 -92.5t-131 -34.5h-972q-72 0 -131 34.5t-94 92.5t-35 129v982q0 71 35 129t94 92.5
t131 34.5z" />
    <glyph glyph-name="u1F188" unicode="Y&#x20de;&#x25a0;" 
d="M798 344h203v265l264 492h-218l-146 -305h-4l-146 305h-217l264 -492v-265zM413 1469h972q72 0 131 -34.5t94 -92.5t35 -129v-982q0 -71 -35 -129t-94 -92.5t-131 -34.5h-972q-72 0 -131 34.5t-94 92.5t-35 129v982q0 71 35 129t94 92.5t131 34.5z" />
    <glyph glyph-name="u1F189" unicode="Z&#x20de;&#x25a0;" 
d="M602 353h598v160h-357v3l346 467v127h-582v-161h340v-3l-345 -466v-127zM413 1469h972q72 0 131 -34.5t94 -92.5t35 -129v-982q0 -71 -35 -129t-94 -92.5t-131 -34.5h-972q-72 0 -131 34.5t-94 92.5t-35 129v982q0 71 35 129t94 92.5t131 34.5z" />
    <glyph glyph-name="plus_uni20DD.liga" unicode="&#x2b;&#x20dd;" 
d="M974 656v-212h-150v212h-208v146h208v207h150v-207h208v-146h-208zM899 108q102 0 193.5 31t167 87t131 132.5t85.5 168.5t30 193t-30 193t-85.5 168.5t-131 132.5t-167 87t-193.5 31t-193.5 -31t-167 -87t-131 -132.5t-85.5 -168.5t-30 -193t30 -193t85.5 -168.5
t131 -132.5t167 -87t193.5 -31zM899 -53q-128 0 -244.5 39t-213 110t-167.5 167.5t-110 212.5t-39 245t39 245t110 212.5t167.5 167t213 109.5t244.5 39t244.5 -39t213 -109.5t167.5 -167t110 -212.5t39 -245t-39 -245t-110 -212.5t-167.5 -167.5t-213 -110t-244.5 -39z" />
    <glyph glyph-name="minus_uni20DD.liga" unicode="&#x2212;&#x20dd;" 
d="M1160 651h-522v151h522v-151zM899 108q102 0 193.5 31t167 87t131 132.5t85.5 168.5t30 193t-30 193t-85.5 168.5t-131 132.5t-167 87t-193.5 31t-193.5 -31t-167 -87t-131 -132.5t-85.5 -168.5t-30 -193t30 -193t85.5 -168.5t131 -132.5t167 -87t193.5 -31zM899 -53
q-128 0 -244.5 39t-213 110t-167.5 167.5t-110 212.5t-39 245t39 245t110 212.5t167.5 167t213 109.5t244.5 39t244.5 -39t213 -109.5t167.5 -167t110 -212.5t39 -245t-39 -245t-110 -212.5t-167.5 -167.5t-213 -110t-244.5 -39z" />
    <glyph glyph-name="multiply_uni20DD.liga" unicode="&#xd7;&#x20dd;" 
d="M899 833l160 156l107 -107l-161 -156l161 -155l-107 -106l-160 155l-161 -155l-105 106l160 155l-161 157l106 106zM899 108q102 0 193.5 31t167 87t131 132.5t85.5 168.5t30 193t-30 193t-85.5 168.5t-131 132.5t-167 87t-193.5 31t-193.5 -31t-167 -87t-131 -132.5
t-85.5 -168.5t-30 -193t30 -193t85.5 -168.5t131 -132.5t167 -87t193.5 -31zM899 -53q-128 0 -244.5 39t-213 110t-167.5 167.5t-110 212.5t-39 245t39 245t110 212.5t167.5 167t213 109.5t244.5 39t244.5 -39t213 -109.5t167.5 -167t110 -212.5t39 -245t-39 -245
t-110 -212.5t-167.5 -167.5t-213 -110t-244.5 -39z" />
    <glyph glyph-name="divide_uni20DD.liga" unicode="&#xf7;&#x20dd;" 
d="M1160 666h-522v121h522v-121zM808 944q0 37 26 60.5t64 23.5q40 0 66.5 -23.5t26.5 -60.5q0 -36 -26.5 -59.5t-66.5 -23.5q-38 0 -64 23.5t-26 59.5zM808 511q0 37 26 61t65 24t65.5 -24t26.5 -61q0 -35 -26.5 -58.5t-65.5 -23.5t-65 23.5t-26 58.5zM899 108
q102 0 193.5 31t167 87t131 132.5t85.5 168.5t30 193t-30 193t-85.5 168.5t-131 132.5t-167 87t-193.5 31t-193.5 -31t-167 -87t-131 -132.5t-85.5 -168.5t-30 -193t30 -193t85.5 -168.5t131 -132.5t167 -87t193.5 -31zM899 -53q-128 0 -244.5 39t-213 110t-167.5 167.5
t-110 212.5t-39 245t39 245t110 212.5t167.5 167t213 109.5t244.5 39t244.5 -39t213 -109.5t167.5 -167t110 -212.5t39 -245t-39 -245t-110 -212.5t-167.5 -167.5t-213 -110t-244.5 -39z" />
    <glyph glyph-name="equal_uni20DD.liga" unicode="&#x3d;&#x20dd;" 
d="M1160 533h-522v134h522v-134zM1160 785h-522v133h522v-133zM899 108q102 0 193.5 31t167 87t131 132.5t85.5 168.5t30 193t-30 193t-85.5 168.5t-131 132.5t-167 87t-193.5 31t-193.5 -31t-167 -87t-131 -132.5t-85.5 -168.5t-30 -193t30 -193t85.5 -168.5t131 -132.5
t167 -87t193.5 -31zM899 -53q-128 0 -244.5 39t-213 110t-167.5 167.5t-110 212.5t-39 245t39 245t110 212.5t167.5 167t213 109.5t244.5 39t244.5 -39t213 -109.5t167.5 -167t110 -212.5t39 -245t-39 -245t-110 -212.5t-167.5 -167.5t-213 -110t-244.5 -39z" />
    <glyph glyph-name="greater_uni20DD.liga" unicode="&#x3e;&#x20dd;" 
d="M1178 773v-102l-507 -250v165l304 136v7l-304 135v169zM899 108q102 0 193.5 31t167 87t131 132.5t85.5 168.5t30 193t-30 193t-85.5 168.5t-131 132.5t-167 87t-193.5 31t-193.5 -31t-167 -87t-131 -132.5t-85.5 -168.5t-30 -193t30 -193t85.5 -168.5t131 -132.5
t167 -87t193.5 -31zM899 -53q-128 0 -244.5 39t-213 110t-167.5 167.5t-110 212.5t-39 245t39 245t110 212.5t167.5 167t213 109.5t244.5 39t244.5 -39t213 -109.5t167.5 -167t110 -212.5t39 -245t-39 -245t-110 -212.5t-167.5 -167.5t-213 -110t-244.5 -39z" />
    <glyph glyph-name="less_uni20DD.liga" unicode="&#x3c;&#x20dd;" 
d="M620 671v102l507 260v-169l-305 -135v-7l305 -136v-165zM899 108q102 0 193.5 31t167 87t131 132.5t85.5 168.5t30 193t-30 193t-85.5 168.5t-131 132.5t-167 87t-193.5 31t-193.5 -31t-167 -87t-131 -132.5t-85.5 -168.5t-30 -193t30 -193t85.5 -168.5t131 -132.5
t167 -87t193.5 -31zM899 -53q-128 0 -244.5 39t-213 110t-167.5 167.5t-110 212.5t-39 245t39 245t110 212.5t167.5 167t213 109.5t244.5 39t244.5 -39t213 -109.5t167.5 -167t110 -212.5t39 -245t-39 -245t-110 -212.5t-167.5 -167.5t-213 -110t-244.5 -39z" />
    <glyph glyph-name="zero_uni20DD.liga" unicode="&#x30;&#x20dd;" 
d="M1190 786h-104l-23 -110h102l-23 -118h-103l-37 -177h-124l37 177h-107l-36 -177h-124l37 177h-100l23 118h100l24 110h-98l22 118h99l35 170h123l-35 -170h107l35 170h123l-34 -170h104zM848 794l-29 -134h128l28 134h-127zM899 108q102 0 193.5 31t167 87t131 132.5
t85.5 168.5t30 193t-30 193t-85.5 168.5t-131 132.5t-167 87t-193.5 31t-193.5 -31t-167 -87t-131 -132.5t-85.5 -168.5t-30 -193t30 -193t85.5 -168.5t131 -132.5t167 -87t193.5 -31zM899 -53q-128 0 -244.5 39t-213 110t-167.5 167.5t-110 212.5t-39 245t39 245t110 212.5
t167.5 167t213 109.5t244.5 39t244.5 -39t213 -109.5t167.5 -167t110 -212.5t39 -245t-39 -245t-110 -212.5t-167.5 -167.5t-213 -110t-244.5 -39z" />
    <glyph glyph-name="triagdn_uni20DD.liga" unicode="&#x25bc;&#x20dd;" 
d="M1222 946l-323 -560l-322 560h645zM899 108q102 0 193.5 31t167 87t131 132.5t85.5 168.5t30 193t-30 193t-85.5 168.5t-131 132.5t-167 87t-193.5 31t-193.5 -31t-167 -87t-131 -132.5t-85.5 -168.5t-30 -193t30 -193t85.5 -168.5t131 -132.5t167 -87t193.5 -31z
M899 -53q-128 0 -244.5 39t-213 110t-167.5 167.5t-110 212.5t-39 245t39 245t110 212.5t167.5 167t213 109.5t244.5 39t244.5 -39t213 -109.5t167.5 -167t110 -212.5t39 -245t-39 -245t-110 -212.5t-167.5 -167.5t-213 -110t-244.5 -39z" />
    <glyph glyph-name="triagup_uni20DD.liga" unicode="&#x25b2;&#x20dd;" 
d="M1222 507h-645l322 561zM899 108q102 0 193.5 31t167 87t131 132.5t85.5 168.5t30 193t-30 193t-85.5 168.5t-131 132.5t-167 87t-193.5 31t-193.5 -31t-167 -87t-131 -132.5t-85.5 -168.5t-30 -193t30 -193t85.5 -168.5t131 -132.5t167 -87t193.5 -31zM899 -53
q-128 0 -244.5 39t-213 110t-167.5 167.5t-110 212.5t-39 245t39 245t110 212.5t167.5 167t213 109.5t244.5 39t244.5 -39t213 -109.5t167.5 -167t110 -212.5t39 -245t-39 -245t-110 -212.5t-167.5 -167.5t-213 -110t-244.5 -39z" />
    <glyph glyph-name="uni25C0_uni20DD.liga" unicode="&#x25c0;&#x20dd;" 
d="M1117 405l-559 323l559 323v-646zM899 108q102 0 193.5 31t167 87t131 132.5t85.5 168.5t30 193t-30 193t-85.5 168.5t-131 132.5t-167 87t-193.5 31t-193.5 -31t-167 -87t-131 -132.5t-85.5 -168.5t-30 -193t30 -193t85.5 -168.5t131 -132.5t167 -87t193.5 -31zM899 -53
q-128 0 -244.5 39t-213 110t-167.5 167.5t-110 212.5t-39 245t39 245t110 212.5t167.5 167t213 109.5t244.5 39t244.5 -39t213 -109.5t167.5 -167t110 -212.5t39 -245t-39 -245t-110 -212.5t-167.5 -167.5t-213 -110t-244.5 -39z" />
    <glyph glyph-name="uni25B6_uni20DD.liga" unicode="&#x25b6;&#x20dd;" 
d="M681 405v646l559 -323zM899 108q102 0 193.5 31t167 87t131 132.5t85.5 168.5t30 193t-30 193t-85.5 168.5t-131 132.5t-167 87t-193.5 31t-193.5 -31t-167 -87t-131 -132.5t-85.5 -168.5t-30 -193t30 -193t85.5 -168.5t131 -132.5t167 -87t193.5 -31zM899 -53
q-128 0 -244.5 39t-213 110t-167.5 167.5t-110 212.5t-39 245t39 245t110 212.5t167.5 167t213 109.5t244.5 39t244.5 -39t213 -109.5t167.5 -167t110 -212.5t39 -245t-39 -245t-110 -212.5t-167.5 -167.5t-213 -110t-244.5 -39z" />
    <glyph glyph-name="question_uni20DD.liga" unicode="&#x3f;&#x20dd;" 
d="M784 459q0 40 28.5 63t75.5 23q49 0 77.5 -23.5t28.5 -62.5q0 -38 -28.5 -61.5t-77.5 -23.5q-47 0 -75.5 23.5t-28.5 61.5zM807 605q-1 3 -1 16v16q-2 53 23.5 89.5t66.5 64.5q41 27 62 47.5t21 49.5q0 36 -25 53.5t-58 17.5q-41 0 -63 -24.5t-23 -58.5h-154
q-1 75 33.5 121.5t92 68.5t127.5 22q67 0 121.5 -22t87 -65t32.5 -106q0 -61 -30 -98t-73 -65q-35 -24 -54.5 -39.5t-27.5 -31t-8 -38.5v-18h-150zM899 108q102 0 193.5 31t167 87t131 132.5t85.5 168.5t30 193t-30 193t-85.5 168.5t-131 132.5t-167 87t-193.5 31
t-193.5 -31t-167 -87t-131 -132.5t-85.5 -168.5t-30 -193t30 -193t85.5 -168.5t131 -132.5t167 -87t193.5 -31zM899 -53q-128 0 -244.5 39t-213 110t-167.5 167.5t-110 212.5t-39 245t39 245t110 212.5t167.5 167t213 109.5t244.5 39t244.5 -39t213 -109.5t167.5 -167
t110 -212.5t39 -245t-39 -245t-110 -212.5t-167.5 -167.5t-213 -110t-244.5 -39z" />
    <glyph glyph-name="exclam_uni20DD.liga" unicode="&#x21;&#x20dd;" 
d="M796 459q0 40 28.5 63t77.5 23q48 0 76 -23.5t28 -62.5q0 -38 -28 -61.5t-76 -23.5q-49 0 -77.5 23.5t-28.5 61.5zM808 1077h187l-20 -456h-147zM899 108q102 0 193.5 31t167 87t131 132.5t85.5 168.5t30 193t-30 193t-85.5 168.5t-131 132.5t-167 87t-193.5 31
t-193.5 -31t-167 -87t-131 -132.5t-85.5 -168.5t-30 -193t30 -193t85.5 -168.5t131 -132.5t167 -87t193.5 -31zM899 -53q-128 0 -244.5 39t-213 110t-167.5 167.5t-110 212.5t-39 245t39 245t110 212.5t167.5 167t213 109.5t244.5 39t244.5 -39t213 -109.5t167.5 -167
t110 -212.5t39 -245t-39 -245t-110 -212.5t-167.5 -167.5t-213 -110t-244.5 -39z" />
    <glyph glyph-name="uni2717_uni20DD.liga" unicode="&#x2717;&#x20dd;" 
d="M903 832l238 234l105 -107l-237 -235l237 -236l-105 -109l-238 235l-239 -235l-106 108l238 237l-238 236l106 108zM899 108q102 0 193.5 31t167 87t131 132.5t85.5 168.5t30 193t-30 193t-85.5 168.5t-131 132.5t-167 87t-193.5 31t-193.5 -31t-167 -87t-131 -132.5
t-85.5 -168.5t-30 -193t30 -193t85.5 -168.5t131 -132.5t167 -87t193.5 -31zM899 -53q-128 0 -244.5 39t-213 110t-167.5 167.5t-110 212.5t-39 245t39 245t110 212.5t167.5 167t213 109.5t244.5 39t244.5 -39t213 -109.5t167.5 -167t110 -212.5t39 -245t-39 -245
t-110 -212.5t-167.5 -167.5t-213 -110t-244.5 -39z" />
    <glyph glyph-name="uni2713_uni20DD.liga" unicode="&#x2713;&#x20dd;" 
d="M1325 922l-544 -536l-303 300l112 112l192 -191l434 430zM899 108q102 0 193.5 31t167 87t131 132.5t85.5 168.5t30 193t-30 193t-85.5 168.5t-131 132.5t-167 87t-193.5 31t-193.5 -31t-167 -87t-131 -132.5t-85.5 -168.5t-30 -193t30 -193t85.5 -168.5t131 -132.5
t167 -87t193.5 -31zM899 -53q-128 0 -244.5 39t-213 110t-167.5 167.5t-110 212.5t-39 245t39 245t110 212.5t167.5 167t213 109.5t244.5 39t244.5 -39t213 -109.5t167.5 -167t110 -212.5t39 -245t-39 -245t-110 -212.5t-167.5 -167.5t-213 -110t-244.5 -39z" />
    <glyph glyph-name="zero_uni20DE.liga" unicode="&#x30;&#x20de;" 
d="M899 514q53 0 85.5 53t32.5 163q0 109 -32.5 162.5t-85.5 53.5t-85.5 -53.5t-32.5 -162.5q0 -110 32.5 -163t85.5 -53zM898 372q-84 0 -147.5 42.5t-99 122.5t-35.5 193t35.5 193t99 122t147.5 42q83 0 147.5 -42t100.5 -122t36 -193t-36 -193t-100.5 -122.5
t-147.5 -42.5zM413 1469h972q72 0 131 -34.5t94 -92.5t35 -129v-982q0 -71 -35 -129t-94 -92.5t-131 -34.5h-972q-72 0 -131 34.5t-94 92.5t-35 129v982q0 71 35 129t94 92.5t131 34.5zM1483 1187q0 36 -18.5 65.5t-49 47.5t-68.5 18h-896q-37 0 -68 -17.5t-49.5 -47
t-18.5 -66.5v-930q0 -35 18.5 -65t49.5 -48t68 -18h896q37 0 68 18t49.5 48t18.5 65v930z" />
    <glyph glyph-name="one_uni20DE.liga" unicode="&#x31;&#x20de;" 
d="M1028 384h-175v532h-9l-160 -108v155l169 114h175v-693zM413 1469h972q72 0 131 -34.5t94 -92.5t35 -129v-982q0 -71 -35 -129t-94 -92.5t-131 -34.5h-972q-72 0 -131 34.5t-94 92.5t-35 129v982q0 71 35 129t94 92.5t131 34.5zM1483 1187q0 36 -18.5 65.5t-49 47.5
t-68.5 18h-896q-37 0 -68 -17.5t-49.5 -47t-18.5 -66.5v-930q0 -35 18.5 -65t49.5 -48t68 -18h896q37 0 68 18t49.5 48t18.5 65v930z" />
    <glyph glyph-name="two_uni20DE.liga" unicode="&#x32;&#x20de;" 
d="M802 857h-163v4q0 61 30 113t88 83t143 31q77 0 134.5 -26t89.5 -71.5t32 -103.5q0 -63 -36.5 -112.5t-93.5 -103.5l-140 -140v-7h281v-140h-519v109l257 251q34 33 56 62.5t22 65.5q0 35 -25 56.5t-63 21.5q-45 0 -69 -26t-24 -63v-2v-2zM413 1469h972q72 0 131 -34.5
t94 -92.5t35 -129v-982q0 -71 -35 -129t-94 -92.5t-131 -34.5h-972q-72 0 -131 34.5t-94 92.5t-35 129v982q0 71 35 129t94 92.5t131 34.5zM1483 1187q0 36 -18.5 65.5t-49 47.5t-68.5 18h-896q-37 0 -68 -17.5t-49.5 -47t-18.5 -66.5v-930q0 -35 18.5 -65t49.5 -48t68 -18
h896q37 0 68 18t49.5 48t18.5 65v930z" />
    <glyph glyph-name="three_uni20DE.liga" unicode="&#x33;&#x20de;" 
d="M822 672v131h72q43 0 70 23t27 58q-1 34 -27.5 55t-69.5 21q-44 0 -71.5 -24t-28.5 -56h-162q4 93 71.5 150.5t194.5 57.5q79 0 137 -23.5t90.5 -64.5t33.5 -95q1 -43 -20 -76t-52.5 -53t-60.5 -24v-8q35 -4 70.5 -23t59 -55t23.5 -87q0 -64 -36.5 -110.5t-101 -71.5
t-146.5 -25q-84 0 -145 27.5t-94 75t-34 107.5h160q2 -34 33 -56t79 -23q52 0 83 24t31 61q-1 38 -30.5 61t-80.5 23h-75zM413 1469h972q72 0 131 -34.5t94 -92.5t35 -129v-982q0 -71 -35 -129t-94 -92.5t-131 -34.5h-972q-72 0 -131 34.5t-94 92.5t-35 129v982q0 71 35 129
t94 92.5t131 34.5zM1483 1187q0 36 -18.5 65.5t-49 47.5t-68.5 18h-896q-37 0 -68 -17.5t-49.5 -47t-18.5 -66.5v-930q0 -35 18.5 -65t49.5 -48t68 -18h896q37 0 68 18t49.5 48t18.5 65v930z" />
    <glyph glyph-name="four_uni20DE.liga" unicode="&#x34;&#x20de;" 
d="M855 1077h241v-439h94v-134h-94v-120h-151v120h-348v136q59 111 124 217.5t134 219.5zM750 638h195v313h-11q-51 -82 -97 -158.5t-87 -152.5v-2zM413 1469h972q72 0 131 -34.5t94 -92.5t35 -129v-982q0 -71 -35 -129t-94 -92.5t-131 -34.5h-972q-72 0 -131 34.5t-94 92.5
t-35 129v982q0 71 35 129t94 92.5t131 34.5zM1483 1187q0 36 -18.5 65.5t-49 47.5t-68.5 18h-896q-37 0 -68 -17.5t-49.5 -47t-18.5 -66.5v-930q0 -35 18.5 -65t49.5 -48t68 -18h896q37 0 68 18t49.5 48t18.5 65v930z" />
    <glyph glyph-name="five_uni20DE.liga" unicode="&#x35;&#x20de;" 
d="M638 581h161q8 -37 39.5 -54.5t70.5 -17.5q44 0 78 29.5t34 82.5q0 47 -33.5 76t-79.5 29q-40 0 -65.5 -18t-36.5 -37h-154l29 409h464v-130h-330l-14 -165h8q13 22 51.5 43t97.5 21q65 0 117.5 -26.5t83 -76.5t30.5 -121q0 -75 -35 -131.5t-99 -87.5t-149 -31
q-79 0 -138.5 26.5t-93.5 73.5t-36 106zM413 1469h972q72 0 131 -34.5t94 -92.5t35 -129v-982q0 -71 -35 -129t-94 -92.5t-131 -34.5h-972q-72 0 -131 34.5t-94 92.5t-35 129v982q0 71 35 129t94 92.5t131 34.5zM1483 1187q0 36 -18.5 65.5t-49 47.5t-68.5 18h-896
q-37 0 -68 -17.5t-49.5 -47t-18.5 -66.5v-930q0 -35 18.5 -65t49.5 -48t68 -18h896q37 0 68 18t49.5 48t18.5 65v930z" />
    <glyph glyph-name="six_uni20DE.liga" unicode="&#x36;&#x20de;" 
d="M929 372q-93 0 -165.5 39.5t-114 119t-41.5 198.5q0 111 39.5 192.5t111.5 125.5t171 44q75 0 137 -25.5t101 -70.5t48 -103h-175q-8 30 -37.5 48t-72.5 18q-74 0 -114 -57t-40 -157h10q26 47 75.5 72.5t115.5 25.5q71 0 127.5 -29t88.5 -80t32 -115q0 -72 -38 -127.5
t-105 -87t-154 -31.5zM928 505q54 0 90 31.5t36 77.5q0 47 -35 77.5t-91 30.5t-91 -30.5t-35 -75.5q0 -47 35.5 -79t90.5 -32zM413 1469h972q72 0 131 -34.5t94 -92.5t35 -129v-982q0 -71 -35 -129t-94 -92.5t-131 -34.5h-972q-72 0 -131 34.5t-94 92.5t-35 129v982
q0 71 35 129t94 92.5t131 34.5zM1483 1187q0 36 -18.5 65.5t-49 47.5t-68.5 18h-896q-37 0 -68 -17.5t-49.5 -47t-18.5 -66.5v-930q0 -35 18.5 -65t49.5 -48t68 -18h896q37 0 68 18t49.5 48t18.5 65v930z" />
    <glyph glyph-name="seven_uni20DE.liga" unicode="&#x37;&#x20de;" 
d="M643 1077h523v-142l-281 -551h-186l290 546v7h-346v140zM413 1469h972q72 0 131 -34.5t94 -92.5t35 -129v-982q0 -71 -35 -129t-94 -92.5t-131 -34.5h-972q-72 0 -131 34.5t-94 92.5t-35 129v982q0 71 35 129t94 92.5t131 34.5zM1483 1187q0 36 -18.5 65.5t-49 47.5
t-68.5 18h-896q-37 0 -68 -17.5t-49.5 -47t-18.5 -66.5v-930q0 -35 18.5 -65t49.5 -48t68 -18h896q37 0 68 18t49.5 48t18.5 65v930z" />
    <glyph glyph-name="eight_uni20DE.liga" unicode="&#x38;&#x20de;" 
d="M899 492q51 0 84 27.5t33 70.5q0 44 -32.5 71.5t-84.5 27.5t-85 -28.5t-33 -70.5q0 -43 33 -70.5t85 -27.5zM899 799q43 0 70 24t27 61t-27.5 60.5t-69.5 23.5t-69.5 -23.5t-27.5 -60.5t27 -61t70 -24zM898 372q-89 0 -155 25t-102 71t-36 109q0 65 42 111.5t112 57.5v7
q-61 18 -93 56.5t-32 94.5q0 55 33 96.5t92.5 64.5t139.5 23t139.5 -23t92.5 -64.5t33 -96.5q0 -56 -32.5 -95t-92.5 -56v-7q70 -11 112 -57.5t42 -110.5q0 -62 -36.5 -108.5t-103 -72t-155.5 -25.5zM413 1469h972q72 0 131 -34.5t94 -92.5t35 -129v-982q0 -71 -35 -129
t-94 -92.5t-131 -34.5h-972q-72 0 -131 34.5t-94 92.5t-35 129v982q0 71 35 129t94 92.5t131 34.5zM1483 1187q0 36 -18.5 65.5t-49 47.5t-68.5 18h-896q-37 0 -68 -17.5t-49.5 -47t-18.5 -66.5v-930q0 -35 18.5 -65t49.5 -48t68 -18h896q37 0 68 18t49.5 48t18.5 65v930z
" />
    <glyph glyph-name="nine_uni20DE.liga" unicode="&#x39;&#x20de;" 
d="M903 372q-74 0 -135 25.5t-100.5 70t-49.5 102.5h175q9 -29 40 -46.5t73 -17.5q72 0 112 58t38 155h-10q-25 -47 -74.5 -72.5t-114.5 -25.5q-72 0 -128 29t-88.5 80t-32.5 116q0 72 38 127t105 86.5t154 31.5q100 0 172 -44t110.5 -123.5t38.5 -188.5q0 -112 -39 -193.5
t-111.5 -125.5t-172.5 -44zM906 744q55 0 90.5 30t35.5 74q0 46 -35 77.5t-90 31.5t-91 -31t-36 -75q0 -47 35.5 -77t90.5 -30zM413 1469h972q72 0 131 -34.5t94 -92.5t35 -129v-982q0 -71 -35 -129t-94 -92.5t-131 -34.5h-972q-72 0 -131 34.5t-94 92.5t-35 129v982
q0 71 35 129t94 92.5t131 34.5zM1483 1187q0 36 -18.5 65.5t-49 47.5t-68.5 18h-896q-37 0 -68 -17.5t-49.5 -47t-18.5 -66.5v-930q0 -35 18.5 -65t49.5 -48t68 -18h896q37 0 68 18t49.5 48t18.5 65v930z" />
    <glyph glyph-name="plus_uni20DE.liga" unicode="&#x2b;&#x20de;" 
d="M974 656v-212h-150v212h-208v146h208v207h150v-207h208v-146h-208zM413 1469h972q72 0 131 -34.5t94 -92.5t35 -129v-982q0 -71 -35 -129t-94 -92.5t-131 -34.5h-972q-72 0 -131 34.5t-94 92.5t-35 129v982q0 71 35 129t94 92.5t131 34.5zM1483 1187q0 36 -18.5 65.5
t-49 47.5t-68.5 18h-896q-37 0 -68 -17.5t-49.5 -47t-18.5 -66.5v-930q0 -35 18.5 -65t49.5 -48t68 -18h896q37 0 68 18t49.5 48t18.5 65v930z" />
    <glyph glyph-name="minus_uni20DE.liga" unicode="&#x2212;&#x20de;" 
d="M1160 651h-522v151h522v-151zM413 1469h972q72 0 131 -34.5t94 -92.5t35 -129v-982q0 -71 -35 -129t-94 -92.5t-131 -34.5h-972q-72 0 -131 34.5t-94 92.5t-35 129v982q0 71 35 129t94 92.5t131 34.5zM1483 1187q0 36 -18.5 65.5t-49 47.5t-68.5 18h-896q-37 0 -68 -17.5
t-49.5 -47t-18.5 -66.5v-930q0 -35 18.5 -65t49.5 -48t68 -18h896q37 0 68 18t49.5 48t18.5 65v930z" />
    <glyph glyph-name="multiply_uni20DE.liga" unicode="&#xd7;&#x20de;" 
d="M899 833l160 156l106 -106l-160 -156l160 -156l-106 -106l-160 156l-161 -156l-106 106l161 156l-161 156l106 106zM413 1469h972q72 0 131 -34.5t94 -92.5t35 -129v-982q0 -71 -35 -129t-94 -92.5t-131 -34.5h-972q-72 0 -131 34.5t-94 92.5t-35 129v982q0 71 35 129
t94 92.5t131 34.5zM1483 1187q0 36 -18.5 65.5t-49 47.5t-68.5 18h-896q-37 0 -68 -17.5t-49.5 -47t-18.5 -66.5v-930q0 -35 18.5 -65t49.5 -48t68 -18h896q37 0 68 18t49.5 48t18.5 65v930z" />
    <glyph glyph-name="divide_uni20DE.liga" unicode="&#xf7;&#x20de;" 
d="M1160 666h-522v121h522v-121zM808 944q0 37 26 60.5t64 23.5q40 0 66.5 -23.5t26.5 -60.5q0 -36 -26.5 -59.5t-66.5 -23.5q-38 0 -64 23.5t-26 59.5zM808 511q0 37 26 61t65 24t65.5 -24t26.5 -61q0 -35 -26.5 -58.5t-65.5 -23.5t-65 23.5t-26 58.5zM413 1469h972
q72 0 131 -34.5t94 -92.5t35 -129v-982q0 -71 -35 -129t-94 -92.5t-131 -34.5h-972q-72 0 -131 34.5t-94 92.5t-35 129v982q0 71 35 129t94 92.5t131 34.5zM1483 1187q0 36 -18.5 65.5t-49 47.5t-68.5 18h-896q-37 0 -68 -17.5t-49.5 -47t-18.5 -66.5v-930q0 -35 18.5 -65
t49.5 -48t68 -18h896q37 0 68 18t49.5 48t18.5 65v930z" />
    <glyph glyph-name="equal_uni20DE.liga" unicode="&#x3d;&#x20de;" 
d="M1160 533h-522v134h522v-134zM1160 785h-522v133h522v-133zM413 1469h972q72 0 131 -34.5t94 -92.5t35 -129v-982q0 -71 -35 -129t-94 -92.5t-131 -34.5h-972q-72 0 -131 34.5t-94 92.5t-35 129v982q0 71 35 129t94 92.5t131 34.5zM1483 1187q0 36 -18.5 65.5t-49 47.5
t-68.5 18h-896q-37 0 -68 -17.5t-49.5 -47t-18.5 -66.5v-930q0 -35 18.5 -65t49.5 -48t68 -18h896q37 0 68 18t49.5 48t18.5 65v930z" />
    <glyph glyph-name="greater_uni20DE.liga" unicode="&#x3e;&#x20de;" 
d="M1178 773v-102l-507 -250v165l304 136v7l-304 135v169zM413 1469h972q72 0 131 -34.5t94 -92.5t35 -129v-982q0 -71 -35 -129t-94 -92.5t-131 -34.5h-972q-72 0 -131 34.5t-94 92.5t-35 129v982q0 71 35 129t94 92.5t131 34.5zM1483 1187q0 36 -18.5 65.5t-49 47.5
t-68.5 18h-896q-37 0 -68 -17.5t-49.5 -47t-18.5 -66.5v-930q0 -35 18.5 -65t49.5 -48t68 -18h896q37 0 68 18t49.5 48t18.5 65v930z" />
    <glyph glyph-name="less_uni20DE.liga" unicode="&#x3c;&#x20de;" 
d="M620 671v102l507 260v-169l-305 -135v-7l305 -136v-165zM413 1469h972q72 0 131 -34.5t94 -92.5t35 -129v-982q0 -71 -35 -129t-94 -92.5t-131 -34.5h-972q-72 0 -131 34.5t-94 92.5t-35 129v982q0 71 35 129t94 92.5t131 34.5zM1483 1187q0 36 -18.5 65.5t-49 47.5
t-68.5 18h-896q-37 0 -68 -17.5t-49.5 -47t-18.5 -66.5v-930q0 -35 18.5 -65t49.5 -48t68 -18h896q37 0 68 18t49.5 48t18.5 65v930z" />
    <glyph glyph-name="numbersign_uni20DE.liga" unicode="&#x23;&#x20de;" 
d="M1190 786h-104l-23 -110h102l-23 -118h-103l-37 -177h-124l37 177h-107l-36 -177h-124l37 177h-100l23 118h100l24 110h-98l22 118h99l35 170h123l-35 -170h107l35 170h123l-34 -170h104zM848 794l-29 -134h128l28 134h-127zM413 1469h972q72 0 131 -34.5t94 -92.5
t35 -129v-982q0 -71 -35 -129t-94 -92.5t-131 -34.5h-972q-72 0 -131 34.5t-94 92.5t-35 129v982q0 71 35 129t94 92.5t131 34.5zM1483 1187q0 36 -18.5 65.5t-49 47.5t-68.5 18h-896q-37 0 -68 -17.5t-49.5 -47t-18.5 -66.5v-930q0 -35 18.5 -65t49.5 -48t68 -18h896
q37 0 68 18t49.5 48t18.5 65v930z" />
    <glyph glyph-name="triagdn_uni20DE.liga" unicode="&#x25bc;&#x20de;" 
d="M1223 946l-323 -560l-323 560h646zM413 1469h972q72 0 131 -34.5t94 -92.5t35 -129v-982q0 -71 -35 -129t-94 -92.5t-131 -34.5h-972q-72 0 -131 34.5t-94 92.5t-35 129v982q0 71 35 129t94 92.5t131 34.5zM1483 1187q0 36 -18.5 65.5t-49 47.5t-68.5 18h-896
q-37 0 -68 -17.5t-49.5 -47t-18.5 -66.5v-930q0 -35 18.5 -65t49.5 -48t68 -18h896q37 0 68 18t49.5 48t18.5 65v930z" />
    <glyph glyph-name="triagup_uni20DE.liga" unicode="&#x25b2;&#x20de;" 
d="M1222 507h-645l322 561zM413 1469h972q72 0 131 -34.5t94 -92.5t35 -129v-982q0 -71 -35 -129t-94 -92.5t-131 -34.5h-972q-72 0 -131 34.5t-94 92.5t-35 129v982q0 71 35 129t94 92.5t131 34.5zM1483 1187q0 36 -18.5 65.5t-49 47.5t-68.5 18h-896q-37 0 -68 -17.5
t-49.5 -47t-18.5 -66.5v-930q0 -35 18.5 -65t49.5 -48t68 -18h896q37 0 68 18t49.5 48t18.5 65v930z" />
    <glyph glyph-name="uni25C0_uni20DE.liga" unicode="&#x25c0;&#x20de;" 
d="M1117 405l-559 323l559 323v-646zM413 1469h972q72 0 131 -34.5t94 -92.5t35 -129v-982q0 -71 -35 -129t-94 -92.5t-131 -34.5h-972q-72 0 -131 34.5t-94 92.5t-35 129v982q0 71 35 129t94 92.5t131 34.5zM1483 1187q0 36 -18.5 65.5t-49 47.5t-68.5 18h-896
q-37 0 -68 -17.5t-49.5 -47t-18.5 -66.5v-930q0 -35 18.5 -65t49.5 -48t68 -18h896q37 0 68 18t49.5 48t18.5 65v930z" />
    <glyph glyph-name="uni25B6_uni20DE.liga" unicode="&#x25b6;&#x20de;" 
d="M681 405v646l559 -323zM413 1469h972q72 0 131 -34.5t94 -92.5t35 -129v-982q0 -71 -35 -129t-94 -92.5t-131 -34.5h-972q-72 0 -131 34.5t-94 92.5t-35 129v982q0 71 35 129t94 92.5t131 34.5zM1483 1187q0 36 -18.5 65.5t-49 47.5t-68.5 18h-896q-37 0 -68 -17.5
t-49.5 -47t-18.5 -66.5v-930q0 -35 18.5 -65t49.5 -48t68 -18h896q37 0 68 18t49.5 48t18.5 65v930z" />
    <glyph glyph-name="question_uni20DE.liga" unicode="&#x3f;&#x20de;" 
d="M784 459q0 40 28.5 63t75.5 23q49 0 77.5 -23.5t28.5 -62.5q0 -38 -28.5 -61.5t-77.5 -23.5q-47 0 -75.5 23.5t-28.5 61.5zM656 876q-1 75 33.5 121.5t92 68.5t127.5 22q67 0 121.5 -22t87 -65t32.5 -106q0 -61 -30 -98t-73 -65q-35 -24 -54.5 -39.5t-27.5 -31t-8 -38.5
v-18h-150q-1 3 -1 16v16q-2 53 23.5 89.5t66.5 64.5q41 27 62 47.5t21 49.5q0 36 -25 53.5t-58 17.5q-41 0 -63 -24.5t-23 -58.5h-154zM413 1469h972q72 0 131 -34.5t94 -92.5t35 -129v-982q0 -71 -35 -129t-94 -92.5t-131 -34.5h-972q-72 0 -131 34.5t-94 92.5t-35 129v982
q0 71 35 129t94 92.5t131 34.5zM1483 1187q0 36 -18.5 65.5t-49 47.5t-68.5 18h-896q-37 0 -68 -17.5t-49.5 -47t-18.5 -66.5v-930q0 -35 18.5 -65t49.5 -48t68 -18h896q37 0 68 18t49.5 48t18.5 65v930z" />
    <glyph glyph-name="exclam_uni20DE.liga" unicode="&#x21;&#x20de;" 
d="M796 459q0 40 28.5 63t77.5 23q48 0 76 -23.5t28 -62.5q0 -38 -28 -61.5t-76 -23.5q-49 0 -77.5 23.5t-28.5 61.5zM808 1077h187l-20 -456h-147zM413 1469h972q72 0 131 -34.5t94 -92.5t35 -129v-982q0 -71 -35 -129t-94 -92.5t-131 -34.5h-972q-72 0 -131 34.5t-94 92.5
t-35 129v982q0 71 35 129t94 92.5t131 34.5zM1483 1187q0 36 -18.5 65.5t-49 47.5t-68.5 18h-896q-37 0 -68 -17.5t-49.5 -47t-18.5 -66.5v-930q0 -35 18.5 -65t49.5 -48t68 -18h896q37 0 68 18t49.5 48t18.5 65v930z" />
    <glyph glyph-name="uni2717_uni20DE.liga" unicode="&#x2717;&#x20de;" 
d="M903 832l238 234l105 -107l-237 -235l237 -236l-105 -109l-238 235l-239 -235l-106 108l238 237l-238 236l106 108zM413 1469h972q72 0 131 -34.5t94 -92.5t35 -129v-982q0 -71 -35 -129t-94 -92.5t-131 -34.5h-972q-72 0 -131 34.5t-94 92.5t-35 129v982q0 71 35 129
t94 92.5t131 34.5zM1483 1187q0 36 -18.5 65.5t-49 47.5t-68.5 18h-896q-37 0 -68 -17.5t-49.5 -47t-18.5 -66.5v-930q0 -35 18.5 -65t49.5 -48t68 -18h896q37 0 68 18t49.5 48t18.5 65v930z" />
    <glyph glyph-name="uni2713_uni20DE.liga" unicode="&#x2713;&#x20de;" 
d="M1325 922l-544 -536l-303 300l112 112l192 -191l434 430zM413 1469h972q72 0 131 -34.5t94 -92.5t35 -129v-982q0 -71 -35 -129t-94 -92.5t-131 -34.5h-972q-72 0 -131 34.5t-94 92.5t-35 129v982q0 71 35 129t94 92.5t131 34.5zM1483 1187q0 36 -18.5 65.5t-49 47.5
t-68.5 18h-896q-37 0 -68 -17.5t-49.5 -47t-18.5 -66.5v-930q0 -35 18.5 -65t49.5 -48t68 -18h896q37 0 68 18t49.5 48t18.5 65v930z" />
    <glyph glyph-name="plus_uni20DD_H18533.liga" unicode="&#x2b;&#x20dd;&#x25cf;" 
d="M984 647h225v164h-225v225h-170v-225h-225v-164h225v-230h170v230zM899 -52q-128 0 -243.5 39t-212 110.5t-168 168t-110.5 212.5t-39 243q0 128 39 244t110.5 212.5t168 168t212 110.5t243.5 39t243.5 -39t212 -110.5t168 -168t110.5 -212.5t39 -244q0 -127 -39 -243
t-110.5 -212.5t-168 -168t-212 -110.5t-243.5 -39z" />
    <glyph glyph-name="minus_uni20DD_H18533.liga" unicode="&#x2212;&#x20dd;&#x25cf;" 
d="M1186 641v170h-574v-170h574zM899 -52q-128 0 -243.5 39t-212 110.5t-168 168t-110.5 212.5t-39 243q0 128 39 244t110.5 212.5t168 168t212 110.5t243.5 39t243.5 -39t212 -110.5t168 -168t110.5 -212.5t39 -244q0 -127 -39 -243t-110.5 -212.5t-168 -168t-212 -110.5
t-243.5 -39z" />
    <glyph glyph-name="multiply_uni20DD_H18533.liga" unicode="&#xd7;&#x20dd;&#x25cf;" 
d="M899 846l-175 169l-119 -119l174 -170l-174 -168l119 -120l175 169l174 -169l119 120l-174 168l174 170l-119 119zM899 -52q-128 0 -243.5 39t-212 110.5t-168 168t-110.5 212.5t-39 243q0 128 39 244t110.5 212.5t168 168t212 110.5t243.5 39t243.5 -39t212 -110.5
t168 -168t110.5 -212.5t39 -244q0 -127 -39 -243t-110.5 -212.5t-168 -168t-212 -110.5t-243.5 -39z" />
    <glyph glyph-name="divide_uni20DD_H18533.liga" unicode="&#xf7;&#x20dd;&#x25cf;" 
d="M797 961q0 -40 29 -66t72 -26t73.5 26t30.5 66q0 42 -30 68.5t-74 26.5q-43 0 -72 -26.5t-29 -68.5zM1186 657v138h-574v-138h574zM797 494q0 -40 29 -66.5t73 -26.5t73.5 26.5t29.5 66.5q0 41 -29.5 67.5t-73.5 26.5t-73 -26.5t-29 -67.5zM899 -52q-128 0 -243.5 39
t-212 110.5t-168 168t-110.5 212.5t-39 243q0 128 39 244t110.5 212.5t168 168t212 110.5t243.5 39t243.5 -39t212 -110.5t168 -168t110.5 -212.5t39 -244q0 -127 -39 -243t-110.5 -212.5t-168 -168t-212 -110.5t-243.5 -39z" />
    <glyph glyph-name="equal_uni20DD_H18533.liga" unicode="&#x3d;&#x20dd;&#x25cf;" 
d="M1184 788v150h-570v-150h570zM1184 514v149h-570v-149h570zM899 -52q-128 0 -243.5 39t-212 110.5t-168 168t-110.5 212.5t-39 243q0 128 39 244t110.5 212.5t168 168t212 110.5t243.5 39t243.5 -39t212 -110.5t168 -168t110.5 -212.5t39 -244q0 -127 -39 -243
t-110.5 -212.5t-168 -168t-212 -110.5t-243.5 -39z" />
    <glyph glyph-name="greater_uni20DD_H18533.liga" unicode="&#x3e;&#x20dd;&#x25cf;" 
d="M1199 778l-557 286v-184l330 -155l1 -2l-331 -154v-179l557 275v113zM899 -52q-128 0 -243.5 39t-212 110.5t-168 168t-110.5 212.5t-39 243q0 128 39 244t110.5 212.5t168 168t212 110.5t243.5 39t243.5 -39t212 -110.5t168 -168t110.5 -212.5t39 -244q0 -127 -39 -243
t-110.5 -212.5t-168 -168t-212 -110.5t-243.5 -39z" />
    <glyph glyph-name="less_uni20DD_H18533.liga" unicode="&#x3c;&#x20dd;&#x25cf;" 
d="M594 665l555 -275v179l-328 154v2l328 155v184l-555 -286v-113zM899 -52q-128 0 -243.5 39t-212 110.5t-168 168t-110.5 212.5t-39 243q0 128 39 244t110.5 212.5t168 168t212 110.5t243.5 39t243.5 -39t212 -110.5t168 -168t110.5 -212.5t39 -244q0 -127 -39 -243
t-110.5 -212.5t-168 -168t-212 -110.5t-243.5 -39z" />
    <glyph glyph-name="numbersign_uni20DD_H18533.liga" unicode="&#x23;&#x20dd;&#x25cf;" 
d="M842 802h139l-31 -149h-139zM1217 788l26 135h-113l38 183h-144l-36 -183h-107l38 183h-143l-37 -183h-108l-26 -135h107l-24 -111h-109l-26 -136h107l-39 -192h142l41 192h106l-40 -192h143l39 192h112l27 136h-110q0 3 3.5 19t7.5 36.5t7.5 36.5t3.5 19h114zM899 -52
q-128 0 -243.5 39t-212 110.5t-168 168t-110.5 212.5t-39 243q0 128 39 244t110.5 212.5t168 168t212 110.5t243.5 39t243.5 -39t212 -110.5t168 -168t110.5 -212.5t39 -244q0 -127 -39 -243t-110.5 -212.5t-168 -168t-212 -110.5t-243.5 -39z" />
    <glyph glyph-name="triagdn_uni20DD_H18533.liga" unicode="&#x25bc;&#x20dd;&#x25cf;" 
d="M1247 981h-695l347 -602zM899 -52q-128 0 -243.5 39t-212 110.5t-168 168t-110.5 212.5t-39 243q0 128 39 244t110.5 212.5t168 168t212 110.5t243.5 39t243.5 -39t212 -110.5t168 -168t110.5 -212.5t39 -244q0 -127 -39 -243t-110.5 -212.5t-168 -168t-212 -110.5
t-243.5 -39z" />
    <glyph glyph-name="triagup_uni20DD_H18533.liga" unicode="&#x25b2;&#x20dd;&#x25cf;" 
d="M1247 490l-348 602l-347 -602h695zM899 -52q-128 0 -243.5 39t-212 110.5t-168 168t-110.5 212.5t-39 243q0 128 39 244t110.5 212.5t168 168t212 110.5t243.5 39t243.5 -39t212 -110.5t168 -168t110.5 -212.5t39 -244q0 -127 -39 -243t-110.5 -212.5t-168 -168
t-212 -110.5t-243.5 -39z" />
    <glyph glyph-name="uni25C0_uni20DD_H18533.liga" unicode="&#x25c0;&#x20dd;&#x25cf;" 
d="M1139 388v694l-603 -346zM899 -52q-128 0 -243.5 39t-212 110.5t-168 168t-110.5 212.5t-39 243q0 128 39 244t110.5 212.5t168 168t212 110.5t243.5 39t243.5 -39t212 -110.5t168 -168t110.5 -212.5t39 -244q0 -127 -39 -243t-110.5 -212.5t-168 -168t-212 -110.5
t-243.5 -39z" />
    <glyph glyph-name="uni25B6_uni20DD_H18533.liga" unicode="&#x25b6;&#x20dd;&#x25cf;" 
d="M659 388l603 348l-603 346v-694zM899 -52q-128 0 -243.5 39t-212 110.5t-168 168t-110.5 212.5t-39 243q0 128 39 244t110.5 212.5t168 168t212 110.5t243.5 39t243.5 -39t212 -110.5t168 -168t110.5 -212.5t39 -244q0 -127 -39 -243t-110.5 -212.5t-168 -168
t-212 -110.5t-243.5 -39z" />
    <glyph glyph-name="question_uni20DD_H18533.liga" unicode="&#x3f;&#x20dd;&#x25cf;" 
d="M766 429q0 -44 32 -70.5t86 -26.5q55 0 86.5 27t31.5 70q0 45 -32 71.5t-86 26.5t-86 -26t-32 -72zM792 591h170v22q0 25 8 41t27 31t53 38q37 25 63.5 49t41.5 56t15 81q0 68 -35.5 115.5t-95.5 72.5t-134 25q-76 0 -139 -24t-101 -76t-38 -135v-3l178 2q0 40 23 66.5
t66 26.5q34 0 60 -18.5t26 -57.5q0 -27 -15.5 -45t-39.5 -35t-50 -39q-39 -30 -63 -66t-22 -88q0 -5 0.5 -20.5t1.5 -18.5zM900 -52q-127 0 -243 39t-212.5 110.5t-168 168t-110.5 212.5t-39 243q0 128 39 244t110.5 212.5t168 168t212.5 110.5t243 39q128 0 243.5 -39
t212 -110.5t168 -168t110.5 -212.5t39 -244q0 -127 -39 -243t-110.5 -212.5t-168 -168t-212.5 -110.5t-243 -39z" />
    <glyph glyph-name="exclam_uni20DD_H18533.liga" unicode="&#x21;&#x20dd;&#x25cf;" 
d="M794 1110l22 -502h168l22 502h-212zM783 430q0 -44 32 -70.5t86 -26.5t85.5 26.5t31.5 70.5t-32 70.5t-85 26.5q-54 0 -86 -26.5t-32 -70.5zM899 -52q-128 0 -243.5 39t-212 110.5t-168 168t-110.5 212.5t-39 243q0 128 39 244t110.5 212.5t168 168t212 110.5t243.5 39
t243.5 -39t212 -110.5t168 -168t110.5 -212.5t39 -244q0 -127 -39 -243t-110.5 -212.5t-168 -168t-212 -110.5t-243.5 -39z" />
    <glyph glyph-name="uni2717_uni20DD_H18533.liga" unicode="&#x2717;&#x20dd;&#x25cf;" 
d="M901 841l-260 257l-115 -117l259 -258l-259 -256l116 -119l259 256l259 -255l115 119l-258 255l258 256l-115 118zM899 -52q-128 0 -243.5 39t-212 110.5t-168 168t-110.5 212.5t-39 243q0 128 39 244t110.5 212.5t168 168t212 110.5t243.5 39t243.5 -39t212 -110.5
t168 -168t110.5 -212.5t39 -244q0 -127 -39 -243t-110.5 -212.5t-168 -168t-212 -110.5t-243.5 -39z" />
    <glyph glyph-name="uni2713_uni20DD_H18533.liga" unicode="&#x2713;&#x20dd;&#x25cf;" 
d="M768 365l596 588l-122 126l-473 -470l-210 208l-122 -123zM899 -52q-128 0 -243.5 39t-212 110.5t-168 168t-110.5 212.5t-39 243q0 128 39 244t110.5 212.5t168 168t212 110.5t243.5 39t243.5 -39t212 -110.5t168 -168t110.5 -212.5t39 -244q0 -127 -39 -243
t-110.5 -212.5t-168 -168t-212 -110.5t-243.5 -39z" />
    <glyph glyph-name="zero_uni20DE_filledbox.liga" unicode="&#x30;&#x20de;&#x25a0;" 
d="M896 490q-58 0 -89 59.5t-31 180.5q0 120 31 180t89 60t89.5 -60t31.5 -180q0 -121 -31.5 -180.5t-89.5 -59.5zM895 338q95 0 166 47t110 135t39 210t-39 210t-110 135t-166 47t-165 -47t-108.5 -135t-38.5 -210t38.5 -210t108.5 -135t165 -47zM413 1469h972
q72 0 131 -34.5t94 -92.5t35 -129v-982q0 -71 -35 -129t-94 -92.5t-131 -34.5h-972q-72 0 -131 34.5t-94 92.5t-35 129v982q0 71 35 129t94 92.5t131 34.5z" />
    <glyph glyph-name="one_uni20DE_filledbox.liga" unicode="&#x31;&#x20de;&#x25a0;" 
d="M1042 352v757h-195l-186 -125v-179l180 121h4v-574h197zM413 1469h972q72 0 131 -34.5t94 -92.5t35 -129v-982q0 -71 -35 -129t-94 -92.5t-131 -34.5h-972q-72 0 -131 34.5t-94 92.5t-35 129v982q0 71 35 129t94 92.5t131 34.5z" />
    <glyph glyph-name="two_uni20DE_filledbox.liga" unicode="&#x32;&#x20de;&#x25a0;" 
d="M790 862v7q0 43 25.5 72.5t74.5 29.5q41 0 68.5 -23.5t27.5 -60.5q0 -41 -25.5 -75t-67.5 -74l-273 -265v-122h569v159h-311v1l162 159q59 57 96.5 110t37.5 122q0 62 -35 111.5t-97 78.5t-143 29q-94 0 -158.5 -34.5t-98 -91.5t-33.5 -126v-7h181zM413 1469h972
q72 0 131 -34.5t94 -92.5t35 -129v-982q0 -71 -35 -129t-94 -92.5t-131 -34.5h-972q-72 0 -131 34.5t-94 92.5t-35 129v982q0 71 35 129t94 92.5t131 34.5z" />
    <glyph glyph-name="three_uni20DE_filledbox.liga" unicode="&#x33;&#x20de;&#x25a0;" 
d="M808 668h86q53 0 85 -25t33 -65q0 -40 -32.5 -66t-87.5 -26q-52 1 -85 25t-37 62h-179q2 -67 38.5 -120t103 -84t158.5 -31q89 0 159.5 27.5t111.5 79.5t40 123q-1 54 -26 93t-62 61t-76 26v3q32 5 65 27t55.5 58t21.5 84q-1 59 -36.5 104.5t-99.5 71.5t-150 26
q-139 -1 -213 -65t-79 -168h182q1 37 29 61.5t77 24.5q45 0 73.5 -22.5t28.5 -58.5q0 -38 -28.5 -61.5t-74.5 -23.5h-81v-141zM413 1469h972q72 0 131 -34.5t94 -92.5t35 -129v-982q0 -71 -35 -129t-94 -92.5t-131 -34.5h-972q-72 0 -131 34.5t-94 92.5t-35 129v982
q0 71 35 129t94 92.5t131 34.5z" />
    <glyph glyph-name="four_uni20DE_filledbox.liga" unicode="&#x34;&#x20de;&#x25a0;" 
d="M845 1109q-68 -109 -118.5 -191.5t-89 -151t-73.5 -134.5v-151h376v-129h173v129h101v152h-101v476h-268zM940 633h-201v1q44 81 92.5 160t102.5 169h6v-330zM413 1469h972q72 0 131 -34.5t94 -92.5t35 -129v-982q0 -71 -35 -129t-94 -92.5t-131 -34.5h-972
q-72 0 -131 34.5t-94 92.5t-35 129v982q0 71 35 129t94 92.5t131 34.5z" />
    <glyph glyph-name="five_uni20DE_filledbox.liga" unicode="&#x35;&#x20de;&#x25a0;" 
d="M607 571q2 -67 39.5 -118.5t103 -81t151.5 -29.5q94 0 163.5 33.5t108 95.5t38.5 146q0 77 -33.5 132t-91 84t-129.5 29q-62 0 -103 -21t-58 -46h-3q2 21 4 54t5 65t5 54h357v144h-510l-31 -449h167q13 23 42 43t72 20q50 0 86 -31t36 -84q0 -39 -17.5 -66t-45 -41.5
t-58.5 -14.5q-44 0 -78.5 21t-42.5 61h-177zM413 1469h972q72 0 131 -34.5t94 -92.5t35 -129v-982q0 -71 -35 -129t-94 -92.5t-131 -34.5h-972q-72 0 -131 34.5t-94 92.5t-35 129v982q0 71 35 129t94 92.5t131 34.5z" />
    <glyph glyph-name="six_uni20DE_filledbox.liga" unicode="&#x36;&#x20de;&#x25a0;" 
d="M912 341q90 0 159.5 34t108.5 94t39 138q0 70 -33 125t-90 86.5t-130 31.5q-66 0 -115.5 -27t-74.5 -79h-10q-1 108 37.5 170t109.5 62q40 0 68 -19.5t36 -51.5h192q-8 63 -49.5 112t-106 76.5t-142.5 27.5q-102 0 -176.5 -47.5t-115 -135.5t-40.5 -210q0 -130 43 -216
t118 -128.5t172 -42.5zM910 486q-52 0 -85 34.5t-33 84.5q0 49 32.5 82t86.5 33q53 0 86 -33t33 -83t-34 -84t-86 -34zM413 1469h972q72 0 131 -34.5t94 -92.5t35 -129v-982q0 -71 -35 -129t-94 -92.5t-131 -34.5h-972q-72 0 -131 34.5t-94 92.5t-35 129v982q0 71 35 129
t94 92.5t131 34.5z" />
    <glyph glyph-name="seven_uni20DE_filledbox.liga" unicode="&#x37;&#x20de;&#x25a0;" 
d="M613 1109v-160h376v-2l-318 -595h209l307 599v158h-574zM413 1469h972q72 0 131 -34.5t94 -92.5t35 -129v-982q0 -71 -35 -129t-94 -92.5t-131 -34.5h-972q-72 0 -131 34.5t-94 92.5t-35 129v982q0 71 35 129t94 92.5t131 34.5z" />
    <glyph glyph-name="eight_uni20DE_filledbox.liga" unicode="&#x38;&#x20de;&#x25a0;" 
d="M896 803q-47 0 -76 26t-29 67q0 42 29 68t76 26t76.5 -26t29.5 -68q0 -41 -29.5 -67t-76.5 -26zM896 470q-56 0 -92 30.5t-36 77.5q0 46 36 77t92 31t92.5 -30.5t36.5 -77.5t-36.5 -77.5t-92.5 -30.5zM896 338q97 0 169.5 28t112.5 79t40 120q0 71 -44.5 120t-121.5 63v2
q134 43 134 167q0 61 -36 107.5t-101.5 72t-152.5 25.5t-152 -25.5t-101 -72t-36 -107.5q0 -124 134 -167v-2q-77 -14 -121.5 -63t-44.5 -120q0 -69 40 -120t112 -79t169 -28zM413 1469h972q72 0 131 -34.5t94 -92.5t35 -129v-982q0 -71 -35 -129t-94 -92.5t-131 -34.5h-972
q-72 0 -131 34.5t-94 92.5t-35 129v982q0 71 35 129t94 92.5t131 34.5z" />
    <glyph glyph-name="nine_uni20DE_filledbox.liga" unicode="&#x39;&#x20de;&#x25a0;" 
d="M885 341q104 0 178.5 47.5t115 135.5t40.5 209q0 119 -39.5 206t-114 134.5t-179.5 47.5q-90 0 -159.5 -34.5t-108.5 -94.5t-39 -138q0 -70 33 -125t90 -86.5t130 -31.5q66 0 115.5 27.5t74.5 79.5h10q3 -106 -35.5 -169t-108.5 -63q-40 0 -69.5 19t-37.5 50h-192
q10 -63 51 -111t104.5 -75.5t140.5 -27.5zM887 745q-52 0 -85.5 32.5t-33.5 82.5q0 49 33.5 82t86.5 33q52 0 85 -33.5t33 -83.5q0 -48 -33 -80.5t-86 -32.5zM413 1469h972q72 0 131 -34.5t94 -92.5t35 -129v-982q0 -71 -35 -129t-94 -92.5t-131 -34.5h-972q-72 0 -131 34.5
t-94 92.5t-35 129v982q0 71 35 129t94 92.5t131 34.5z" />
    <glyph glyph-name="plus_uni20DE_filledbox.liga" unicode="&#x2b;&#x20de;&#x25a0;" 
d="M984 647h225v164h-225v225h-170v-225h-225v-164h225v-230h170v230zM413 1469h972q72 0 131 -34.5t94 -92.5t35 -129v-982q0 -71 -35 -129t-94 -92.5t-131 -34.5h-972q-72 0 -131 34.5t-94 92.5t-35 129v982q0 71 35 129t94 92.5t131 34.5z" />
    <glyph glyph-name="minus_uni20DE_filledbox.liga" unicode="&#x2212;&#x20de;&#x25a0;" 
d="M1186 641v170h-574v-170h574zM413 1469h972q72 0 131 -34.5t94 -92.5t35 -129v-982q0 -71 -35 -129t-94 -92.5t-131 -34.5h-972q-72 0 -131 34.5t-94 92.5t-35 129v982q0 71 35 129t94 92.5t131 34.5z" />
    <glyph glyph-name="multiply_uni20DE_filledbox.liga" unicode="&#xd7;&#x20de;&#x25a0;" 
d="M899 846l-175 169l-119 -119l174 -170l-174 -168l119 -120l175 169l174 -169l119 120l-174 168l174 170l-119 119zM413 1469h972q72 0 131 -34.5t94 -92.5t35 -129v-982q0 -71 -35 -129t-94 -92.5t-131 -34.5h-972q-72 0 -131 34.5t-94 92.5t-35 129v982q0 71 35 129
t94 92.5t131 34.5z" />
    <glyph glyph-name="divide_uni20DE_filledbox.liga" unicode="&#xf7;&#x20de;&#x25a0;" 
d="M797 961q0 -40 29 -66t72 -26t73.5 26t30.5 66q0 42 -30 68.5t-74 26.5q-43 0 -72 -26.5t-29 -68.5zM1186 657v138h-574v-138h574zM797 494q0 -40 29 -66.5t73 -26.5t73.5 26.5t29.5 66.5q0 41 -29.5 67.5t-73.5 26.5t-73 -26.5t-29 -67.5zM413 1469h972q72 0 131 -34.5
t94 -92.5t35 -129v-982q0 -71 -35 -129t-94 -92.5t-131 -34.5h-972q-72 0 -131 34.5t-94 92.5t-35 129v982q0 71 35 129t94 92.5t131 34.5z" />
    <glyph glyph-name="equal_uni20DE_filledbox.liga" unicode="&#x3d;&#x20de;&#x25a0;" 
d="M1184 788v150h-570v-150h570zM1184 514v149h-570v-149h570zM413 1469h972q72 0 131 -34.5t94 -92.5t35 -129v-982q0 -71 -35 -129t-94 -92.5t-131 -34.5h-972q-72 0 -131 34.5t-94 92.5t-35 129v982q0 71 35 129t94 92.5t131 34.5z" />
    <glyph glyph-name="greater_uni20DE_filledbox.liga" unicode="&#x3e;&#x20de;&#x25a0;" 
d="M1199 778l-557 286v-184l330 -155l1 -2l-331 -154v-179l557 275v113zM413 1469h972q72 0 131 -34.5t94 -92.5t35 -129v-982q0 -71 -35 -129t-94 -92.5t-131 -34.5h-972q-72 0 -131 34.5t-94 92.5t-35 129v982q0 71 35 129t94 92.5t131 34.5z" />
    <glyph glyph-name="less_uni20DE_filledbox.liga" unicode="&#x3c;&#x20de;&#x25a0;" 
d="M594 665l555 -275v179q-30 15 -73.5 35t-90.5 42t-90 42t-74 35v2l328 155v184l-555 -286v-113zM413 1469h972q72 0 131 -34.5t94 -92.5t35 -129v-982q0 -71 -35 -129t-94 -92.5t-131 -34.5h-972q-72 0 -131 34.5t-94 92.5t-35 129v982q0 71 35 129t94 92.5t131 34.5z
" />
    <glyph glyph-name="numbersign_uni20DE_filledbox.liga" unicode="&#x23;&#x20de;&#x25a0;" 
d="M842 802h139l-31 -149h-139zM1217 788l26 135h-113l38 183h-144l-36 -183h-107l38 183h-143l-37 -183h-108l-26 -135h107l-24 -111h-109l-26 -136h107l-39 -192h142l41 192h106l-40 -192h143l39 192h112l27 136h-110q0 3 3.5 19t7.5 36.5t7.5 36.5t3.5 19h114zM413 1469
h972q72 0 131 -34.5t94 -92.5t35 -129v-982q0 -71 -35 -129t-94 -92.5t-131 -34.5h-972q-72 0 -131 34.5t-94 92.5t-35 129v982q0 71 35 129t94 92.5t131 34.5z" />
    <glyph glyph-name="triagdn_uni20DE_filledbox.liga" unicode="&#x25bc;&#x20de;&#x25a0;" 
d="M1247 977h-695l347 -602zM413 1469h972q72 0 131 -34.5t94 -92.5t35 -129v-982q0 -71 -35 -129t-94 -92.5t-131 -34.5h-972q-72 0 -131 34.5t-94 92.5t-35 129v982q0 71 35 129t94 92.5t131 34.5z" />
    <glyph glyph-name="triagup_uni20DE_filledbox.liga" unicode="&#x25b2;&#x20de;&#x25a0;" 
d="M1247 490l-348 602l-347 -602h695zM413 1469h972q72 0 131 -34.5t94 -92.5t35 -129v-982q0 -71 -35 -129t-94 -92.5t-131 -34.5h-972q-72 0 -131 34.5t-94 92.5t-35 129v982q0 71 35 129t94 92.5t131 34.5z" />
    <glyph glyph-name="uni25C0_uni20DE_filledbox.liga" unicode="&#x25c0;&#x20de;&#x25a0;" 
d="M1139 388v694l-603 -346zM413 1469h972q72 0 131 -34.5t94 -92.5t35 -129v-982q0 -71 -35 -129t-94 -92.5t-131 -34.5h-972q-72 0 -131 34.5t-94 92.5t-35 129v982q0 71 35 129t94 92.5t131 34.5z" />
    <glyph glyph-name="uni25B6_uni20DE_filledbox.liga" unicode="&#x25b6;&#x20de;&#x25a0;" 
d="M659 388l603 348l-603 346v-694zM413 1469h972q72 0 131 -34.5t94 -92.5t35 -129v-982q0 -71 -35 -129t-94 -92.5t-131 -34.5h-972q-72 0 -131 34.5t-94 92.5t-35 129v982q0 71 35 129t94 92.5t131 34.5z" />
    <glyph glyph-name="question_uni20DE_filledbox.liga" unicode="&#x3f;&#x20de;&#x25a0;" 
d="M766 429q0 -44 32 -70.5t86 -26.5q55 0 86.5 27t31.5 70q0 45 -32 71.5t-86 26.5t-86 -26t-32 -72zM905 1122q-76 0 -139 -24t-101 -76t-38 -135v-3l178 2q0 40 23 66.5t66 26.5q34 0 60 -18.5t26 -57.5q0 -27 -15.5 -45t-39.5 -35t-50 -39q-39 -30 -63 -66t-22 -88
q0 -5 0.5 -20.5t1.5 -18.5h170v22q0 25 8 41t27 31t53 38q37 25 63.5 49t41.5 56t15 81q0 68 -35.5 115.5t-95.5 72.5t-134 25zM413 1469h972q72 0 131 -34.5t94 -92.5t35 -129v-982q0 -71 -35 -129t-94 -92.5t-131 -34.5h-972q-72 0 -131 34.5t-94 92.5t-35 129v982
q0 71 35 129t94 92.5t131 34.5z" />
    <glyph glyph-name="exclam_uni20DE_filledbox.liga" unicode="&#x21;&#x20de;&#x25a0;" 
d="M794 1110l22 -502h168l22 502h-212zM783 430q0 -44 32 -70.5t86 -26.5t85.5 26.5t31.5 70.5t-32 70.5t-85 26.5q-54 0 -86 -26.5t-32 -70.5zM413 1469h972q72 0 131 -34.5t94 -92.5t35 -129v-982q0 -71 -35 -129t-94 -92.5t-131 -34.5h-972q-72 0 -131 34.5t-94 92.5
t-35 129v982q0 71 35 129t94 92.5t131 34.5z" />
    <glyph glyph-name="uni2717_uni20DE_filledbox.liga" unicode="&#x2717;&#x20de;&#x25a0;" 
d="M526 981l259 -258l-259 -256l116 -119l259 256l259 -255l115 119l-258 255l258 256l-115 118l-259 -256l-260 257zM413 1469h972q72 0 131 -34.5t94 -92.5t35 -129v-982q0 -71 -35 -129t-94 -92.5t-131 -34.5h-972q-72 0 -131 34.5t-94 92.5t-35 129v982q0 71 35 129
t94 92.5t131 34.5z" />
    <glyph glyph-name="uni2713_uni20DE_filledbox.liga" unicode="&#x2713;&#x20de;&#x25a0;" 
d="M768 365l596 588l-122 126l-473 -470l-210 208l-122 -123zM413 1469h972q72 0 131 -34.5t94 -92.5t35 -129v-982q0 -71 -35 -129t-94 -92.5t-131 -34.5h-972q-72 0 -131 34.5t-94 92.5t-35 129v982q0 71 35 129t94 92.5t131 34.5z" />
    <glyph glyph-name=".notdef" horiz-adv-x="2048" 
d="M99 -494v229h1848v-229h-1848zM99 -51v229h1848v-229h-1848zM99 392v229h1848v-229h-1848zM99 835v229h1848v-229h-1848zM99 1278v229h1848v-229h-1848zM99 1721v229h1848v-229h-1848z" />
    <glyph glyph-name="glyph1" horiz-adv-x="0" 
 />
    <glyph glyph-name="glyph2" horiz-adv-x="0" 
 />
    <glyph glyph-name="space" unicode=" " horiz-adv-x="546" 
 />
    <glyph glyph-name="exclam" unicode="!" horiz-adv-x="696" 
d="M208 1444h277l-23 -967h-231zM347 -26q-76 0 -121 43.5t-45 115.5q0 73 45 116.5t121 43.5t121 -43.5t45 -116.5q0 -72 -45 -115.5t-121 -43.5z" />
    <glyph glyph-name="quotedbl" unicode="&#x22;" horiz-adv-x="972" 
d="M378 857h-217v586h217v-586zM809 857h-217v586h217v-586z" />
    <glyph glyph-name="numbersign" unicode="#" horiz-adv-x="1337" 
d="M661 0l78 387h-284l-79 -387h-192l78 387h-228l36 194h231l60 299h-236l37 192h237l77 371h191l-74 -371h283l77 371h193l-76 -371h241l-36 -192h-243l-62 -299h248l-36 -194h-250l-78 -387h-193zM481 567h302l68 325h-304z" />
    <glyph glyph-name="dollar" unicode="$" horiz-adv-x="1383" 
d="M754 597v-373q117 10 171.5 60t54.5 124q0 48 -20.5 82.5t-70 60t-135.5 46.5zM637 860v358q-101 -13 -153.5 -62t-52.5 -113q0 -65 48 -109.5t158 -73.5zM754 833l56 -13q134 -30 225.5 -79t138.5 -124t47 -184q0 -93 -35 -166t-98.5 -125.5t-148.5 -83t-185 -37.5v-164
h-117v164q-99 7 -184 37t-149 82t-100.5 124t-39.5 164h233q13 -82 70.5 -136.5t169.5 -66.5v399l-51 12q-192 44 -294.5 136t-102.5 249q0 116 57.5 202.5t159 137.5t231.5 61v166h117v-166q131 -10 230.5 -62.5t157 -140t62.5 -202.5h-233q-10 88 -68.5 138t-148.5 62
v-384z" />
    <glyph glyph-name="percent" unicode="%" horiz-adv-x="1783" 
d="M389 776q-104 0 -178.5 41.5t-114 119t-39.5 187.5q0 107 40.5 184.5t115 119.5t176.5 42q103 0 177.5 -41.5t114.5 -119t40 -185.5q0 -165 -87.5 -256.5t-244.5 -91.5zM389 937q63 0 97 49t34 137q0 86 -34.5 135.5t-96.5 49.5t-96.5 -49.5t-34.5 -135.5
q0 -89 34.5 -137.5t96.5 -48.5zM508 0h-207l973 1443h206zM1392 -16q-104 0 -178.5 41.5t-114 119.5t-39.5 187q0 108 40.5 185.5t114.5 119.5t177 42t177.5 -42t114.5 -119.5t40 -185.5q0 -164 -87.5 -256t-244.5 -92zM1392 146q62 0 96.5 48.5t34.5 136.5
q0 87 -34.5 136.5t-96.5 49.5q-61 0 -95.5 -49.5t-34.5 -136.5q0 -89 34 -137t96 -48z" />
    <glyph glyph-name="ampersand" unicode="&#x26;" horiz-adv-x="1500" 
d="M1182 0l-119 127q-85 -73 -204 -113.5t-251 -40.5q-150 0 -262.5 50.5t-174.5 142.5t-62 214q0 125 67 220t208 171q5 2 17.5 9t25 14.5t18.5 9.5q-66 68 -105.5 124t-57 106t-17.5 103q0 72 29.5 133t83 105.5t125.5 69.5t157 25q114 0 202 -42t138.5 -116.5
t50.5 -171.5q0 -111 -71.5 -201.5t-228.5 -173.5l307 -325q29 53 43 127.5t14 181.5v54h217v-66q0 -144 -31.5 -260t-89.5 -200l261 -277h-290zM523 641q-175 -93 -175 -241q0 -70 36 -122t100 -81.5t149 -29.5q57 0 112 13.5t102.5 38.5t79.5 59l-359 385q-8 -3 -22 -10
t-23 -12zM629 891q111 56 158.5 110.5t47.5 122.5q0 74 -48.5 120t-125.5 46q-50 0 -89.5 -21.5t-61.5 -59t-22 -85.5q0 -36 13.5 -70t44.5 -73t83 -90z" />
    <glyph glyph-name="quotesingle" unicode="'" horiz-adv-x="540" 
d="M378 857h-217v586h217v-586z" />
    <glyph glyph-name="parenleft" unicode="(" horiz-adv-x="843" 
d="M229 604q0 549 292 913h224q-54 -69 -101.5 -171t-83 -224.5t-55.5 -255t-20 -261.5q0 -130 20 -262t55.5 -255t82.5 -225t102 -172h-224q-148 185 -220 412.5t-72 500.5z" />
    <glyph glyph-name="parenright" unicode=")" horiz-adv-x="843" 
d="M612 604q0 -273 -72 -500.5t-220 -412.5h-224q55 70 102 172t82.5 225t55.5 255t20 262q0 129 -20 261.5t-55.5 255t-83 224.5t-101.5 171h224q292 -364 292 -913z" />
    <glyph glyph-name="asterisk" unicode="*" horiz-adv-x="972" 
d="M773 784l-230 172l31 -283h-178l31 284l-230 -173l-88 156l262 117l-262 117l88 157l231 -177l-32 289h178l-32 -289l231 177l88 -157l-261 -117l261 -117z" />
    <glyph glyph-name="plus" unicode="+" horiz-adv-x="1383" 
d="M803 462v-412h-225v412h-393v227h393v413h225v-413h394v-227h-394z" />
    <glyph glyph-name="comma" unicode="," horiz-adv-x="674" 
d="M311 -382h-171l93 604h251z" />
    <glyph glyph-name="uni2011" unicode="&#x2011;" horiz-adv-x="983" 
d="M819 465h-657v233h657v-233z" />
    <glyph glyph-name="uni2011" unicode="-" horiz-adv-x="983" 
d="M819 465h-657v233h657v-233z" />
    <glyph glyph-name="period" unicode="." horiz-adv-x="674" 
d="M336 -21q-47 0 -83 20.5t-56.5 56.5t-20.5 81t20.5 81t56.5 56.5t83 20.5t83.5 -20.5t56.5 -56.5t20 -81t-20 -81t-56.5 -56.5t-83.5 -20.5z" />
    <glyph glyph-name="slash" unicode="/" horiz-adv-x="753" 
d="M229 -309h-224l519 1826h223z" />
    <glyph glyph-name="zero" unicode="0" horiz-adv-x="1361" 
d="M680 -36q-173 0 -296.5 90t-189 260t-65.5 409t66.5 408t189.5 258.5t295 89.5q171 0 294 -89.5t189.5 -259.5t66.5 -409t-65.5 -408t-188.5 -259t-296 -90zM680 178q137 0 213 138t76 407q0 267 -76.5 404t-212.5 137t-213 -137.5t-77 -403.5q0 -269 76.5 -407
t213.5 -138z" />
    <glyph glyph-name="one" unicode="1" horiz-adv-x="1016" 
d="M498 0v1183h-17l-359 -252v248l377 264h257v-1443h-258z" />
    <glyph glyph-name="two" unicode="2" horiz-adv-x="1289" 
d="M136 1014q0 103 37.5 188t106 147t162.5 96t207 34q108 0 196.5 -31t152.5 -86.5t98.5 -131.5t34.5 -166q0 -63 -15.5 -120t-52 -116t-98.5 -129.5t-155 -160.5l-310 -302v-17h652v-219h-1002v179l500 501q68 68 112 118t69 89.5t35 75t10 76.5q0 65 -29 116.5
t-82.5 81.5t-129.5 30q-78 0 -136 -32t-89.5 -89t-31.5 -132h-242z" />
    <glyph glyph-name="three" unicode="3" horiz-adv-x="1339" 
d="M482 642v197h176q74 0 130.5 28t88 77.5t31.5 113.5q0 59 -29 107t-83.5 76t-131.5 28q-118 0 -188 -57.5t-78 -164.5h-242q7 127 71.5 224.5t179 152.5t271.5 55q115 0 204.5 -30.5t150.5 -84.5t92.5 -123.5t31.5 -147.5q0 -87 -34 -154t-93 -111.5t-136 -64.5v-17
q98 -15 169.5 -61t110.5 -120t39 -172q0 -93 -40.5 -171.5t-114.5 -136.5t-173 -89.5t-216 -31.5q-118 0 -215 31t-168.5 88t-112 137t-45.5 179h247q6 -67 43 -115.5t101 -75.5t147 -27t147 29t100 81t36 121q0 106 -76 168t-210 62h-181z" />
    <glyph glyph-name="four" unicode="4" horiz-adv-x="1377" 
d="M819 0v275h-705v215q140 244 290.5 487t297.5 466h364v-950h195v-218h-195v-275h-247zM353 501v-14h470v746h-14q-74 -112 -152.5 -235t-156 -249.5t-147.5 -247.5z" />
    <glyph glyph-name="five" unicode="5" horiz-adv-x="1326" 
d="M674 -36q-112 0 -204.5 32t-161 90.5t-107.5 138.5t-43 175h241q8 -67 45 -116.5t96 -77t133 -27.5q83 0 145.5 36t97.5 101.5t35 152.5q0 85 -34.5 149t-96 99.5t-140.5 35.5q-92 0 -161 -40t-106 -110h-234l79 840h865v-217h-664l-40 -417h17q48 67 127.5 103.5
t189.5 36.5q93 0 174 -33t142.5 -95.5t96 -150t34.5 -196.5q0 -114 -37.5 -207.5t-107.5 -161t-166.5 -104.5t-214.5 -37z" />
    <glyph glyph-name="six" unicode="6" horiz-adv-x="1366" 
d="M702 -35q-125 0 -230.5 46t-183 138.5t-120.5 231.5t-43 325q0 182 40.5 325t116.5 243t184 152.5t242 52.5q139 0 247 -49.5t176.5 -137.5t86.5 -205h-258q-19 83 -85 129.5t-162 46.5q-160 0 -250 -135.5t-91 -391.5h17q51 102 148.5 158.5t225.5 56.5
q103 0 189.5 -35.5t150.5 -100t99.5 -152t35.5 -191.5q0 -111 -39.5 -204t-111 -161t-169.5 -105t-216 -37zM700 180q81 0 145.5 37.5t102 102t37.5 145.5q0 83 -36 147.5t-100 101t-148 36.5t-148.5 -36t-101 -99.5t-36.5 -144.5q0 -82 37.5 -148t102 -104t145.5 -38z" />
    <glyph glyph-name="seven" unicode="7" horiz-adv-x="1213" 
d="M213 0l627 1211v16h-744v216h1004v-220l-617 -1223h-270z" />
    <glyph glyph-name="eight" unicode="8" horiz-adv-x="1380" 
d="M688 -36q-124 0 -226.5 30.5t-177 86.5t-115 133.5t-40.5 171.5q0 92 38.5 168t109 128t164.5 72v17q-77 19 -134 64.5t-88.5 110.5t-31.5 142q0 86 37 157.5t104 123.5t159 81t202 29t201.5 -29t158.5 -81t104 -123.5t37 -157.5q0 -78 -31 -142.5t-87.5 -110
t-134.5 -64.5v-17q94 -18 164 -69.5t109 -128t39 -169.5q0 -94 -40.5 -171.5t-115 -134t-177.5 -87t-228 -30.5zM689 165q87 0 153 30.5t103 85.5t37 127t-37 127t-103.5 85.5t-152.5 30.5q-87 0 -153.5 -30.5t-103.5 -85.5t-37 -127t37 -127t103.5 -85.5t153.5 -30.5z
M689 849q73 0 128.5 27t87 75.5t31.5 111.5q0 65 -31 114t-86.5 76.5t-129.5 27.5t-130 -27.5t-87 -76.5t-31 -114q0 -63 31.5 -111.5t87 -75.5t129.5 -27z" />
    <glyph glyph-name="nine" unicode="9" horiz-adv-x="1366" 
d="M654 -35q-132 0 -239.5 48.5t-177.5 136.5t-91 206h257q23 -81 92 -128t162 -47q106 0 180 62t114 180t41 285h-17q-51 -103 -149 -159t-225 -56q-103 0 -190 35.5t-151 100t-99 152t-35 191.5q0 111 39.5 204t111 160.5t169.5 105t216 37.5q129 0 235 -48.5t182.5 -143
t118 -232.5t41.5 -317q0 -243 -70 -416t-201 -265t-314 -92zM663 697q84 0 148.5 36t101 98.5t36.5 143.5q0 82 -37.5 147.5t-102 103.5t-145.5 38t-145.5 -37.5t-102 -102t-37.5 -144.5q0 -84 36 -147.5t100 -99.5t148 -36z" />
    <glyph glyph-name="colon" unicode=":" horiz-adv-x="674" 
d="M336 -21q-47 0 -83 20.5t-56.5 56.5t-20.5 81t20.5 81t56.5 56.5t83 20.5t83.5 -20.5t56.5 -56.5t20 -81t-20 -81t-56.5 -56.5t-83.5 -20.5zM336 709q-47 0 -83 20.5t-56.5 56t-20.5 80.5q0 46 20.5 81.5t56.5 56t83 20.5t83.5 -20.5t56.5 -56t20 -81.5q0 -45 -20 -80.5
t-56.5 -56t-83.5 -20.5z" />
    <glyph glyph-name="semicolon" unicode=";" horiz-adv-x="674" 
d="M336 709q-47 0 -83 20.5t-56.5 56t-20.5 80.5q0 46 20.5 81.5t56.5 56t83 20.5t83.5 -20.5t56.5 -56t20 -81.5q0 -45 -20 -80.5t-56.5 -56t-83.5 -20.5zM311 -382h-171l93 604h251z" />
    <glyph glyph-name="less" unicode="&#x3c;" horiz-adv-x="1383" 
d="M1197 861l-729 -275v-10l729 -282v-258l-1012 427v224l1012 428v-254z" />
    <glyph glyph-name="equal" unicode="=" horiz-adv-x="1383" 
d="M1183 233h-985v215h985v-215zM1183 704h-985v215h985v-215z" />
    <glyph glyph-name="greater" unicode="&#x3e;" horiz-adv-x="1383" 
d="M185 861v254l1012 -428v-224l-1012 -427v258l729 282v10z" />
    <glyph glyph-name="question" unicode="?" horiz-adv-x="1108" 
d="M77 1046q4 118 59 210.5t158 145.5t251 53q103 0 187 -28t144.5 -78.5t93 -120t32.5 -152.5q0 -115 -55 -197.5t-157 -143.5q-65 -39 -102 -71.5t-51.5 -69t-14.5 -86.5v-57h-232l-1 68q-7 113 38.5 186.5t148.5 134.5q62 38 98.5 71t52 70t15.5 86q0 52 -26.5 92.5
t-73.5 63.5t-110 23q-97 0 -155.5 -54t-64.5 -146h-235zM517 -26q-75 0 -120.5 43.5t-45.5 115.5q0 73 45.5 116.5t120.5 43.5q76 0 121 -43.5t45 -116.5q0 -72 -45 -115.5t-121 -43.5z" />
    <glyph glyph-name="at" unicode="@" horiz-adv-x="1892" 
d="M936 851q-87 0 -136 -65.5t-49 -181.5t49 -181.5t135 -65.5q88 0 140.5 66.5t52.5 180.5t-51.5 180.5t-140.5 66.5zM970 1445q179 0 326.5 -53.5t255 -152.5t165.5 -234.5t58 -300.5q0 -160 -47 -277.5t-134 -181.5t-206 -64q-91 0 -154 44t-77 117h-18q-32 -76 -94 -116
t-149 -40q-104 0 -182 53t-121.5 148t-43.5 222q0 121 43 214t120 145t178 52q79 0 141.5 -37.5t91.5 -104.5h18v121h183v-551q0 -53 26.5 -82.5t75.5 -29.5q55 0 96 44t63 124.5t22 189.5q0 136 -46 246.5t-131.5 190t-204.5 122.5t-264 43q-146 0 -267 -50.5t-209 -143
t-136.5 -219t-48.5 -278.5q0 -155 48.5 -280t140 -213.5t220 -136t288.5 -47.5q59 0 115.5 5t103.5 14t76 20v-150q-62 -19 -141 -29.5t-164 -10.5q-195 0 -352.5 58.5t-270 168.5t-172.5 263.5t-60 342.5q0 186 60.5 339t172 264t265.5 171.5t340 60.5z" />
    <glyph glyph-name="A" unicode="A" horiz-adv-x="1456" 
d="M1108 0l-122 369h-531l-124 -369h-261l512 1443h290l513 -1443h-277zM713 1168l-198 -595h411l-196 595h-17z" />
    <glyph glyph-name="B" unicode="B" horiz-adv-x="1393" 
d="M794 0h-617v1443h603q137 0 235.5 -43.5t151 -124.5t52.5 -192q0 -76 -34 -142t-92 -110.5t-131 -56.5v-18q97 -9 171 -55.5t115.5 -121.5t41.5 -169q0 -126 -60 -218t-171 -142t-265 -50zM435 1238v-402h249q137 0 208.5 52t71.5 149q0 95 -65 148t-182 53h-282z
M435 205h300q142 0 216.5 57.5t74.5 167.5q0 108 -76.5 164t-224.5 56h-290v-445z" />
    <glyph glyph-name="C" unicode="C" horiz-adv-x="1499" 
d="M779 -36q-153 0 -275.5 52.5t-209 151t-132.5 238.5t-46 315q0 176 45.5 316t132 239t209 151t275.5 52q123 0 229 -38t188 -107t132.5 -163t61.5 -207h-254q-18 86 -68 150.5t-124 99.5t-165 35q-123 0 -212 -64t-137.5 -182.5t-48.5 -280.5q0 -163 48.5 -281.5
t138 -182.5t212.5 -64q92 0 166 32t124 91.5t67 140.5h254q-13 -111 -63 -201.5t-130.5 -156t-186.5 -101t-231 -35.5z" />
    <glyph glyph-name="D" unicode="D" horiz-adv-x="1515" 
d="M177 1443h541q215 0 366.5 -84.5t232 -244.5t80.5 -386q0 -232 -80 -394.5t-231.5 -248t-367.5 -85.5h-541v1443zM435 1220v-997h249q215 0 332.5 129.5t117.5 371.5q0 158 -53.5 268.5t-154.5 169t-242 58.5h-249z" />
    <glyph glyph-name="E" unicode="E" horiz-adv-x="1254" 
d="M1111 223v-223h-934v1443h934v-223h-676v-383h639v-210h-639v-404h676z" />
    <glyph glyph-name="F" unicode="F" horiz-adv-x="1205" 
d="M435 0h-258v1443h920v-223h-662v-420h605v-215h-605v-585z" />
    <glyph glyph-name="G" unicode="G" horiz-adv-x="1547" 
d="M1425 578q0 -141 -44 -254t-127 -193.5t-199.5 -123.5t-260.5 -43q-157 0 -282 52.5t-213.5 151t-135.5 238.5t-47 316q0 173 47 312.5t135.5 239t213 152.5t278.5 53q125 0 231 -34t188 -98t134.5 -153t69.5 -200h-257q-39 123 -133 189t-233 66q-126 0 -218 -63.5
t-142 -181.5t-50 -280q0 -164 51 -283t144.5 -183t222.5 -64q110 0 193.5 42t131 117t49.5 174l1 30h-347v202h599v-181z" />
    <glyph glyph-name="H" unicode="H" horiz-adv-x="1573" 
d="M1394 0h-257v623h-702v-623h-258v1443h258v-597h702v597h257v-1443z" />
    <glyph glyph-name="I" unicode="I" horiz-adv-x="614" 
d="M435 0h-258v1443h258v-1443z" />
    <glyph glyph-name="J" unicode="J" horiz-adv-x="1184" 
d="M78 393h252q1 -89 58 -143t149 -54q101 0 155.5 60.5t54.5 176.5v1010h258v-1012q0 -149 -56 -253t-160 -159t-249 -55q-138 0 -242 53t-162 149t-58 227z" />
    <glyph glyph-name="uni212A" unicode="&#x212a;" horiz-adv-x="1415" 
d="M435 0h-258v1443h258v-664h17l569 664h296l-545 -629l588 -814h-315l-456 637l-154 -177v-460z" />
    <glyph glyph-name="uni212A" unicode="K" horiz-adv-x="1415" 
d="M435 0h-258v1443h258v-664h17l569 664h296l-545 -629l588 -814h-315l-456 637l-154 -177v-460z" />
    <glyph glyph-name="L" unicode="L" horiz-adv-x="1198" 
d="M1097 226v-226h-920v1443h258v-1217h662z" />
    <glyph glyph-name="M" unicode="M" horiz-adv-x="1846" 
d="M1667 0h-240v1015h-14l-399 -965h-184l-399 965h-14v-1015h-240v1443h302l434 -1058h18l434 1058h302v-1443z" />
    <glyph glyph-name="N" unicode="N" horiz-adv-x="1554" 
d="M426 0h-249v1443h224l708 -981h17v981h248v-1443h-223l-708 982h-17v-982z" />
    <glyph glyph-name="O" unicode="O" horiz-adv-x="1599" 
d="M799 1479q158 0 283.5 -52.5t215 -151.5t136.5 -238.5t47 -314.5q0 -174 -47 -314t-136 -239.5t-215 -152t-284 -52.5q-159 0 -285 52.5t-215 151.5t-136 239t-47 315t47.5 314.5t137 238.5t215.5 151.5t283 52.5zM799 1250q-128 0 -222 -64.5t-145.5 -183t-51.5 -280.5
q0 -161 50.5 -280t144.5 -184t224 -65q128 0 222.5 65t145.5 184t51 280q0 162 -51.5 280.5t-145.5 183t-222 64.5z" />
    <glyph glyph-name="P" unicode="P" horiz-adv-x="1351" 
d="M177 1443h582q108 0 197 -35t153.5 -100t99.5 -154.5t35 -198.5q0 -107 -36 -195.5t-102.5 -152.5t-157.5 -99t-200 -35h-313v-473h-258v1443zM435 1227v-540h255q138 0 215 69.5t77 198.5q0 133 -75.5 202.5t-215.5 69.5h-256z" />
    <glyph glyph-name="Q" unicode="Q" horiz-adv-x="1599" 
d="M800 -36q-158 0 -284.5 52t-215.5 150.5t-136.5 238.5t-47.5 316q0 175 47.5 315.5t137 239t216 151t283.5 52.5q156 0 282 -52.5t215 -151.5t136.5 -239t47.5 -315q0 -206 -64 -364t-183 -250l189 -256h-252l-116 154q-117 -41 -255 -41zM800 186q29 0 57.5 3t55.5 11
l-191 256h253l109 -141q66 62 102 167t36 239q0 165 -52 285t-146.5 185.5t-223.5 65.5t-224.5 -65.5t-148 -185.5t-52.5 -285t52 -285t147.5 -185t225.5 -65z" />
    <glyph glyph-name="R" unicode="R" horiz-adv-x="1391" 
d="M435 1229v-483h298q123 0 190.5 63t67.5 178q0 113 -70.5 177.5t-193.5 64.5h-292zM435 541v-541h-258v1443h586q152 0 262.5 -55t170.5 -156.5t60 -239.5q0 -95 -32 -177t-93 -142.5t-147 -91.5l315 -581h-295l-283 541v0h-286z" />
    <glyph glyph-name="S" unicode="S" horiz-adv-x="1354" 
d="M111 392h252q8 -64 51 -112t114 -74t162 -26q85 0 151 27t104 74t38 107q0 78 -62.5 127t-201.5 81l-187 43q-197 44 -291 143.5t-94 260.5q0 98 38 178.5t109 138t170 88.5t220 31q114 0 209.5 -31t166.5 -87t112 -133.5t46 -170.5h-247q-9 63 -47.5 109.5t-100 72
t-140.5 25.5q-83 0 -145 -25t-96.5 -71t-34.5 -107q0 -73 59 -118.5t193 -76.5l166 -38q146 -33 238 -86.5t135 -132.5t43 -189q0 -140 -69 -242.5t-196 -158t-302 -55.5q-166 0 -290 52.5t-195.5 148.5t-77.5 227z" />
    <glyph glyph-name="T" unicode="T" horiz-adv-x="1332" 
d="M794 0h-258v1220h-444v223h1147v-223h-445v-1220z" />
    <glyph glyph-name="U" unicode="U" horiz-adv-x="1540" 
d="M434 1443v-922q0 -97 39 -170.5t114 -114.5t182 -41t182 41t114 114.5t39 170.5v922h258v-946q0 -118 -41 -216t-118.5 -169t-187 -109.5t-246.5 -38.5t-246.5 38.5t-187 109.5t-118.5 169t-41 216v946h258z" />
    <glyph glyph-name="V" unicode="V" horiz-adv-x="1442" 
d="M871 0h-297l-504 1443h285l363 -1142h17l360 1142h275z" />
    <glyph glyph-name="W" unicode="W" horiz-adv-x="2036" 
d="M1009 1022l-292 -1022h-243l-387 1443h269l247 -1074h15l284 1074h229l288 -1074h14l247 1074h267l-387 -1443h-242l-294 1022h-15z" />
    <glyph glyph-name="X" unicode="X" horiz-adv-x="1456" 
d="M88 0l472 727v0l-468 716h305l329 -530h17l334 530h290l-484 -722v0l476 -721h-298l-335 518h-17l-340 -518h-281z" />
    <glyph glyph-name="Y" unicode="Y" horiz-adv-x="1412" 
d="M834 0h-258v564l-506 879h283l344 -617h17l343 617h283l-506 -879v-564z" />
    <glyph glyph-name="Z" unicode="Z" horiz-adv-x="1373" 
d="M137 0v176l759 1027v17h-738v223h1057v-176l-756 -1027v-17h775v-223h-1097z" />
    <glyph glyph-name="bracketleft" unicode="[" horiz-adv-x="843" 
d="M257 1517h510v-191h-271v-1444h271v-191h-510v1826z" />
    <glyph glyph-name="backslash" unicode="\" horiz-adv-x="753" 
d="M522 -309l-522 1826h231l522 -1826h-231z" />
    <glyph glyph-name="bracketright" unicode="]" horiz-adv-x="843" 
d="M585 1517v-1826h-511v191h271v1444h-271v191h511z" />
    <glyph glyph-name="asciicircum" unicode="^" horiz-adv-x="972" 
d="M476 1183l-199 -446h-210l295 640h246l295 -640h-210l-199 446h-18z" />
    <glyph glyph-name="underscore" unicode="_" horiz-adv-x="934" 
d="M939 -298h-944v191h944v-191z" />
    <glyph glyph-name="grave" unicode="`" horiz-adv-x="1024" 
d="M535 1243l-234 348h250l171 -348h-187z" />
    <glyph glyph-name="a" unicode="a" horiz-adv-x="1179" 
d="M525 177q75 0 134.5 29.5t93.5 80.5t34 114v87l-247 -16q-104 -7 -154 -44t-50 -104q0 -69 53.5 -108t135.5 -39zM452 -18q-105 0 -187 40.5t-128.5 114t-46.5 173.5q0 148 107.5 232t307.5 96l282 17v92q0 80 -53 123.5t-153 43.5q-86 0 -142 -29t-73 -85h-234
q10 96 70.5 167t160.5 110t230 39q140 0 238.5 -44t149.5 -126.5t51 -198.5v-747h-239v150h-17q-46 -80 -131.5 -124t-192.5 -44z" />
    <glyph glyph-name="b" unicode="b" horiz-adv-x="1306" 
d="M759 -18q-115 0 -205.5 50.5t-136.5 140.5h-17v-173h-239v1517h248v-597h17q43 89 132 140.5t201 51.5q138 0 239 -68.5t155.5 -195t54.5 -301.5q0 -174 -54.5 -300.5t-155.5 -195.5t-239 -69zM681 901q-84 0 -146 -43t-96 -122.5t-34 -188.5t33.5 -188.5t95.5 -122.5
t147 -43t146 42.5t93.5 122t32.5 189.5t-33 189.5t-94 122t-145 42.5z" />
    <glyph glyph-name="c" unicode="c" horiz-adv-x="1182" 
d="M1096 726h-236q-17 80 -78 131t-163 51q-128 0 -199.5 -94t-71.5 -264q0 -172 72 -268t199 -96q97 0 159.5 45t81.5 130h236q-13 -114 -73.5 -200.5t-162 -134.5t-240.5 -48q-165 0 -282 68t-179 196t-62 308q0 178 62 304.5t179 194t281 67.5q140 0 242.5 -49.5
t162 -137.5t72.5 -203z" />
    <glyph glyph-name="d" unicode="d" horiz-adv-x="1306" 
d="M547 -18q-138 0 -239 69t-156 196t-55 301q0 173 55 299.5t156 195.5t239 69q112 0 200 -51t132 -141h17v597h248v-1517h-240v173h-17q-46 -90 -136 -140.5t-204 -50.5zM624 901q-85 0 -146 -42.5t-94 -122t-33 -189.5q0 -111 33 -190t94 -121.5t146 -42.5t147 42.5
t95 122t33 189.5q0 109 -33.5 188.5t-95 122.5t-146.5 43z" />
    <glyph glyph-name="e" unicode="e" horiz-adv-x="1208" 
d="M610 919q-74 0 -131.5 -33t-91.5 -93t-40 -140h515q-3 81 -34.5 141t-87 92.5t-130.5 32.5zM864 301h235q-22 -99 -88 -171.5t-167.5 -112t-230.5 -39.5q-161 0 -276.5 68t-177.5 194.5t-62 302.5t62.5 304.5t178 198.5t273.5 70q156 0 267.5 -66t171.5 -190t60 -296v-80
h-764v-13q3 -91 37.5 -157.5t95 -102.5t141.5 -36q92 0 154.5 32.5t89.5 93.5z" />
    <glyph glyph-name="f" unicode="f" horiz-adv-x="801" 
d="M231 0v889h-179v198h179v115q0 164 86 245t268 81q40 0 74 -3t64 -8v-182q-15 2 -37 3.5t-48 1.5q-88 0 -125.5 -38.5t-37.5 -115.5v-99h238v-198h-235v-889h-247z" />
    <glyph glyph-name="g" unicode="g" horiz-adv-x="1295" 
d="M621 218q86 0 148.5 41.5t95.5 118t33 181.5t-33.5 181.5t-95.5 118.5t-148 42t-147 -42t-92.5 -118.5t-31.5 -181.5t31.5 -181.5t92.5 -118t147 -41.5zM621 -416q-140 0 -245.5 39t-167.5 109t-72 164h249q12 -56 75 -89.5t165 -33.5q128 0 198.5 57t70.5 160v207h-17
q-47 -88 -133.5 -134.5t-200.5 -46.5q-138 0 -238.5 67t-155 189t-54.5 287q0 167 55 291.5t156 193t241 68.5q74 0 140.5 -23.5t117.5 -67t81 -102.5h17v175h239v-1098q0 -126 -64 -218.5t-180.5 -143t-276.5 -50.5z" />
    <glyph glyph-name="h" unicode="h" horiz-adv-x="1274" 
d="M161 0v1517h244v-600h18q39 92 124.5 144.5t207.5 52.5q117 0 201.5 -48t129.5 -139t45 -221v-706h-248v647q0 125 -56 188t-164 63q-82 0 -138.5 -33t-86 -92t-29.5 -138v-635h-248z" />
    <glyph glyph-name="i" unicode="i" horiz-adv-x="557" 
d="M154 0v1094h247v-1094h-247zM277 1275q-40 0 -74 20t-54 53.5t-20 75.5t20 76t54 54t74 20q41 0 74.5 -20t53.5 -54t20 -76t-20 -75.5t-53.5 -53.5t-74.5 -20z" />
    <glyph glyph-name="j" unicode="j" horiz-adv-x="557" 
d="M402 1094v-1135q0 -333 -368 -333q-6 0 -19 0.5t-25 1t-16 1.5v195q2 0 15 -0.5t17 -0.5q82 0 115.5 33t33.5 107v1131h247zM280 1275q-40 0 -74 20t-54 53.5t-20 75.5t20 76t54 54t74 20q41 0 74.5 -20t53.5 -54t20 -76t-20 -75.5t-53.5 -53.5t-74.5 -20z" />
    <glyph glyph-name="k" unicode="k" horiz-adv-x="1188" 
d="M426 648l404 446h288l-436 -469l466 -625h-300l-351 469l-88 -88v-381h-248v1517h248v-869h17z" />
    <glyph glyph-name="l" unicode="l" horiz-adv-x="571" 
d="M161 0v1517h248v-1517h-248z" />
    <glyph glyph-name="m" unicode="m" horiz-adv-x="1856" 
d="M151 0v1094h239v-177h17q35 94 115 146.5t189 52.5q113 0 190.5 -53.5t111.5 -145.5h17q27 60 76 104.5t114.5 69.5t141.5 25q109 0 188 -43.5t121 -125t42 -195.5v-752h-247v689q0 211 -200 211q-65 0 -113 -28.5t-74.5 -78t-26.5 -112.5v-681h-241v707q0 90 -53 141.5
t-145 51.5q-62 0 -110 -31t-76 -84t-28 -120v-665h-248z" />
    <glyph glyph-name="n" unicode="n" horiz-adv-x="1252" 
d="M151 0v1094h239v-175h17q39 91 121 144t204 53q183 0 280 -106t97 -302v-708h-248v649q0 125 -54 188t-167 63q-74 0 -128 -32t-83.5 -91t-29.5 -140v-637h-248z" />
    <glyph glyph-name="o" unicode="o" horiz-adv-x="1248" 
d="M623 -22q-164 0 -282 68.5t-181 196t-63 304.5t64 304.5t181.5 196t280.5 68.5t281 -68.5t181.5 -196t63.5 -304.5t-63.5 -304.5t-181 -196t-281.5 -68.5zM623 186q130 0 200.5 94.5t70.5 266.5q0 171 -71 266t-200 95q-130 0 -201 -95t-71 -266q0 -172 71 -266.5
t201 -94.5z" />
    <glyph glyph-name="p" unicode="p" horiz-adv-x="1296" 
d="M747 1112q138 0 239.5 -68t156.5 -195t55 -302t-54.5 -301.5t-155 -195t-238.5 -68.5q-118 0 -205 48.5t-129 135.5h-17v-530h-248v1458h239v-181h17q47 93 137.5 146t202.5 53zM669 193q86 0 147.5 42.5t94 121.5t32.5 190t-33 190t-94 121.5t-146 42.5t-146.5 -43
t-95 -122.5t-34.5 -188.5q1 -109 34 -188.5t95 -122.5t146 -43z" />
    <glyph glyph-name="q" unicode="q" horiz-adv-x="1296" 
d="M548 1112q74 0 140 -24.5t117 -69t81 -105.5h17v181h241v-1458h-250v530h-17q-47 -88 -132 -136t-201 -48q-138 0 -238.5 69t-154.5 196t-54 301q0 172 55 299t156.5 196t239.5 69zM622 193q85 0 147.5 43t96 122.5t33.5 188.5t-34 188.5t-96 122.5t-146 43
q-85 0 -146 -42.5t-93.5 -121.5t-32.5 -190q0 -167 72 -260.5t199 -93.5z" />
    <glyph glyph-name="r" unicode="r" horiz-adv-x="851" 
d="M151 0v1094h239v-170h17q15 54 56.5 96.5t101.5 67t131 24.5q27 0 56.5 -3t46.5 -8v-230q-10 3 -32 6.5t-48 5.5t-47 2q-81 0 -142.5 -31.5t-96 -88.5t-34.5 -133v-632h-248z" />
    <glyph glyph-name="s" unicode="s" horiz-adv-x="1128" 
d="M126 781q0 99 55.5 174.5t154.5 118t228 42.5q130 0 225.5 -37t151 -107t64.5 -170h-233q-13 58 -66.5 92t-140.5 34q-56 0 -101 -17t-71 -47t-26 -69q0 -47 40 -76.5t122 -48.5l193 -44q157 -35 231.5 -106t74.5 -192q0 -79 -34 -143t-96.5 -110.5t-148 -71.5
t-187.5 -25q-137 0 -237.5 38t-159 109t-67.5 170h245q18 -61 75 -95t150 -34q63 0 110.5 17t74.5 48t27 71q0 46 -36.5 76.5t-114.5 47.5l-194 45q-158 36 -233.5 111t-75.5 199z" />
    <glyph glyph-name="t" unicode="t" horiz-adv-x="808" 
d="M230 1362h247v-275h234v-198h-234v-537q0 -81 36 -118.5t114 -37.5q26 0 44 1.5t40 3.5v-194q-27 -5 -60.5 -8.5t-69.5 -3.5q-126 0 -203 30t-112.5 95.5t-35.5 171.5v597h-173v198h173v275z" />
    <glyph glyph-name="u" unicode="u" horiz-adv-x="1256" 
d="M1103 1094v-1094h-239v174h-17q-40 -94 -121 -145t-206 -51q-119 0 -204 48t-130 138.5t-45 218.5v711h248v-649q0 -125 53 -187t164 -62q121 0 185 70t64 191v637h248z" />
    <glyph glyph-name="v" unicode="v" horiz-adv-x="1163" 
d="M1105 1094l-387 -1094h-273l-389 1094h266l253 -846h17l251 846h262z" />
    <glyph glyph-name="w" unicode="w" horiz-adv-x="1681" 
d="M1616 1094l-296 -1094h-261l-213 788h-17l-212 -788h-258l-296 1094h250l182 -817h17l210 817h237l212 -817h17l181 817h247z" />
    <glyph glyph-name="x" unicode="x" horiz-adv-x="1149" 
d="M577 377h-17l-224 -377h-267l354 543l-357 551h287l218 -376h17l216 376h273l-353 -541l357 -553h-280z" />
    <glyph glyph-name="y" unicode="y" horiz-adv-x="1183" 
d="M271 -397q-8 0 -28.5 0.5t-41 1.5t-28.5 2v203q10 -2 32.5 -3t35.5 -1q79 0 125.5 32.5t70.5 108.5l13 48l-391 1099h272l256 -854h17l255 854h262l-395 -1129q-35 -102 -76 -171.5t-94.5 -111.5t-123 -60.5t-161.5 -18.5z" />
    <glyph glyph-name="z" unicode="z" horiz-adv-x="1140" 
d="M126 0v155l581 722v17h-576v200h872v-169l-560 -708v-17h569v-200h-886z" />
    <glyph glyph-name="braceleft" unicode="{" horiz-adv-x="843" 
d="M295 591q122 -13 184.5 -74.5t62.5 -169.5v-262q0 -109 42 -156t140 -47h43v-191h-67q-206 0 -300.5 88.5t-94.5 278.5v215q0 75 -22.5 120.5t-73 66t-135.5 20.5v252q85 0 135.5 20t73 65t22.5 121v215q0 190 94.5 277t300.5 87h67v-191h-43q-98 0 -140 -47t-42 -156
v-258q0 -108 -62.5 -169.5t-184.5 -74.5v-30z" />
    <glyph glyph-name="bar" unicode="|" horiz-adv-x="753" 
d="M489 -309h-227v1826h227v-1826z" />
    <glyph glyph-name="braceright" unicode="}" horiz-adv-x="843" 
d="M546 591v30q-246 26 -246 244v258q0 109 -42 156t-141 47h-43v191h67q206 0 300.5 -87t94.5 -277v-215q0 -76 22.5 -121t73.5 -65t135 -20v-252q-85 0 -135.5 -20.5t-73 -66t-22.5 -120.5v-215q0 -190 -94.5 -278.5t-300.5 -88.5h-67v191h43q98 0 140.5 47t42.5 156v262
q0 218 246 244z" />
    <glyph glyph-name="asciitilde" unicode="~" horiz-adv-x="1383" 
d="M912 361q-51 0 -93.5 14t-86 44.5t-98.5 79.5q-47 41 -77.5 57t-63.5 16q-56 0 -87 -45t-34 -132h-199q-4 133 37.5 221t112 132t155.5 44q51 0 95 -15t87.5 -45t94.5 -77q50 -44 80 -59t61 -15q114 0 122 177h198q4 -132 -36.5 -220.5t-111.5 -132.5t-156 -44z" />
    <glyph glyph-name="uni00A0" unicode="&#xa0;" horiz-adv-x="546" 
 />
    <glyph glyph-name="exclamdown" unicode="&#xa1;" horiz-adv-x="696" 
d="M208 -329l23 967h231l23 -967h-277zM347 822q-76 0 -121 43t-45 117q0 72 45 115t121 43t121 -43t45 -115q0 -74 -45 -117t-121 -43z" />
    <glyph glyph-name="cent" unicode="&#xa2;" horiz-adv-x="1383" 
d="M659 375v694q-101 -20 -159 -107.5t-58 -239.5q0 -154 58.5 -240.5t158.5 -106.5zM975 566h234q-10 -114 -66 -200.5t-150 -138.5t-217 -62v-165h-117v166q-143 13 -247.5 83t-161.5 190t-57 283q0 160 57 280.5t162 191.5t247 84v164h117v-163q129 -11 222.5 -67
t147 -144.5t62.5 -195.5h-233q-14 78 -64 132t-135 67v-698q82 12 133 61.5t66 131.5z" />
    <glyph glyph-name="sterling" unicode="&#xa3;" horiz-adv-x="1383" 
d="M490 225h739v-214h-1086v203q83 17 146.5 64t99 115.5t35.5 149.5q0 29 -4 56.5t-10 55.5h-272v151h226q-20 60 -36.5 120t-16.5 122q0 128 64 223t185 147t291 52q64 0 123.5 -7t108 -19t79.5 -28v-209q-27 14 -71.5 25.5t-98 18t-110.5 6.5q-152 0 -234 -62.5
t-82 -170.5q0 -56 14.5 -109.5t33.5 -108.5h459v-151h-414q5 -25 8 -50t3 -51q0 -107 -50.5 -189.5t-129.5 -125.5v-14z" />
    <glyph glyph-name="currency" unicode="&#xa4;" horiz-adv-x="1383" 
d="M446 651q0 -67 33.5 -122t89 -88.5t122.5 -33.5q68 0 123.5 33.5t89 88.5t33.5 122t-33.5 122t-89 88.5t-123.5 33.5q-67 0 -122.5 -33.5t-89 -88.5t-33.5 -122zM1214 1029l-155 -156q29 -49 45 -105t16 -117t-16 -117t-45 -105l155 -156l-145 -148l-156 156
q-48 -30 -104.5 -46.5t-117.5 -16.5q-62 0 -118 16.5t-105 47.5l-156 -157l-144 148l156 156q-29 49 -45 105t-16 117t16 117t45 105l-156 156l144 148l156 -156q49 30 105.5 46.5t117.5 16.5t117.5 -16.5t104.5 -46.5l156 156z" />
    <glyph glyph-name="yen" unicode="&#xa5;" horiz-adv-x="1383" 
d="M1308 1412l-435 -755h284v-117h-342v-148h342v-116h-342v-273h-250v273h-341v116h341v148h-341v117h283l-434 755h276l338 -627h10l337 627h274z" />
    <glyph glyph-name="brokenbar" unicode="&#xa6;" horiz-adv-x="753" 
d="M489 788h-227v729h227v-729zM489 -309h-227v729h227v-729z" />
    <glyph glyph-name="section" unicode="&#xa7;" horiz-adv-x="1321" 
d="M600 455l106 -30q51 3 92 26t65 59.5t24 80.5q0 57 -42.5 97.5t-120.5 59.5l-105 30q-52 -4 -93.5 -27t-66.5 -60t-25 -79q0 -54 43.5 -96t122.5 -61zM661 -273q-130 0 -230.5 41.5t-160 116t-64.5 172.5h238q6 -43 36.5 -75.5t78.5 -51t108 -18.5q62 0 109 19.5t73.5 54
t26.5 79.5q0 49 -43.5 84t-137.5 60l-172 52q-172 49 -250.5 121.5t-78.5 181.5q0 97 63.5 169t175.5 104v17q-116 48 -171.5 116t-55.5 165q0 101 56.5 177t158.5 118t239 42q127 0 224.5 -39.5t156 -111t67.5 -169.5h-237q-9 61 -67.5 98t-145.5 37q-92 0 -149 -41
t-57 -107q0 -50 42 -84.5t137 -60.5l168 -52q171 -50 248.5 -122t77.5 -176q0 -68 -32.5 -126.5t-90 -100.5t-134.5 -60v-17q127 -38 189.5 -104t62.5 -166q0 -102 -58 -179t-161.5 -120.5t-239.5 -43.5z" />
    <glyph glyph-name="dieresis" unicode="&#xa8;" horiz-adv-x="1024" 
d="M279 1279q-39 0 -71.5 19.5t-52 51.5t-19.5 72t19.5 72.5t52 52t71.5 19.5q40 0 72 -19.5t51.5 -52t19.5 -72.5t-19.5 -72t-51.5 -51.5t-72 -19.5zM743 1279q-39 0 -71.5 19.5t-52 51.5t-19.5 72t19.5 72.5t52 52t71.5 19.5q40 0 72 -19.5t51.5 -52t19.5 -72.5t-19.5 -72
t-51.5 -51.5t-72 -19.5z" />
    <glyph glyph-name="copyright" unicode="&#xa9;" horiz-adv-x="1742" 
d="M870 -148q-133 0 -252 39.5t-217.5 111.5t-170 170.5t-111 217.5t-39.5 252t39.5 252t111 217.5t170 170t217.5 111t252 39.5t252 -39t217.5 -111t170.5 -170.5t111 -217.5t39 -252t-39.5 -252.5t-111 -218t-170 -170t-217.5 -111t-252 -39.5zM870 9q107 0 203 31.5
t175 89t136.5 136.5t89 174.5t31.5 202.5t-31.5 202.5t-89 174.5t-136.5 136.5t-175 89t-203 31.5t-203 -31.5t-175 -89t-136.5 -136.5t-89 -174.5t-31.5 -202.5t31.5 -202.5t89.5 -174.5t137 -136.5t174.5 -89t202.5 -31.5zM1241 762h-170q-14 63 -64 100t-120 37
q-96 0 -152 -68t-56 -187q0 -120 55.5 -189t152.5 -69q74 0 122 34.5t62 97.5h170q-10 -86 -57 -149.5t-123 -97.5t-174 -34q-119 0 -206 49.5t-134.5 141t-47.5 216.5q0 124 47.5 214.5t134 140t204.5 49.5q97 0 173.5 -35.5t124 -100t58.5 -150.5z" />
    <glyph glyph-name="ordfeminine" unicode="&#xaa;" horiz-adv-x="851" 
d="M383 854q47 0 84.5 17t59 46.5t21.5 66.5v53l-156 -10q-131 -7 -131 -86q0 -41 34 -64t88 -23zM315 708q-74 0 -131 27t-89 76.5t-32 116.5q0 99 77 155.5t221 64.5l187 10v59q0 45 -33.5 70t-96.5 25q-114 0 -140 -68h-187q6 68 50 117.5t117.5 76.5t170.5 27
q153 0 236.5 -65t83.5 -183v-498h-198v95h-12q-30 -50 -89.5 -78t-134.5 -28z" />
    <glyph glyph-name="guillemotleft" unicode="&#xab;" horiz-adv-x="1438" 
d="M412 572v-12l348 -411h-249l-346 412v8l349 413h246zM923 572v-12l349 -411h-250l-346 412v8l349 413h247z" />
    <glyph glyph-name="logicalnot" unicode="&#xac;" horiz-adv-x="1383" 
d="M1175 690v-640h-225v413h-744v227h969z" />
    <glyph glyph-name="registered" unicode="&#xae;" horiz-adv-x="1260" 
d="M629 442q-110 0 -205.5 41t-168 113.5t-113 168t-40.5 205.5t40.5 205.5t113 168t168 113t205.5 40.5t205.5 -40.5t168 -113t113 -168t40.5 -205.5t-40.5 -205.5t-113 -168t-168 -113.5t-205.5 -41zM629 566q85 0 158.5 31t129 86.5t86.5 129t31 157.5t-31 157.5
t-86.5 128.5t-129 86t-158.5 31q-84 0 -157.5 -31t-129 -86t-87 -128.5t-31.5 -157.5t31.5 -157.5t87 -129t129 -86.5t157.5 -31zM538 733h-115v491h253q52 0 92 -20t63 -55t23 -80q0 -57 -28 -95.5t-80 -52.5l131 -188h-138l-118 171h-83v-171zM538 1126v-129h108
q83 0 83 65q0 64 -80 64h-111z" />
    <glyph glyph-name="macron" unicode="&#xaf;" horiz-adv-x="1024" 
d="M861 1502v-165h-700v165h700z" />
    <glyph glyph-name="degree" unicode="&#xb0;" horiz-adv-x="972" 
d="M485 698q-78 0 -144 27.5t-114.5 76.5t-75.5 114.5t-27 140.5t27 140.5t75.5 114.5t114.5 76.5t144 27.5t143.5 -27.5t114 -76.5t75.5 -114.5t27 -140.5t-27 -140.5t-75.5 -114.5t-114 -76.5t-143.5 -27.5zM485 880q51 0 89.5 23.5t60 64t21.5 89.5q0 51 -21.5 91
t-60.5 63t-89 23q-51 0 -89.5 -23.5t-60 -63.5t-21.5 -90q0 -49 21.5 -89.5t59.5 -64t90 -23.5z" />
    <glyph glyph-name="plusminus" unicode="&#xb1;" horiz-adv-x="1383" 
d="M1210 50h-1038v210h1038v-210zM799 636v-265h-216v265h-411v201h411v265h216v-265h411v-201h-411z" />
    <glyph glyph-name="uni00B2" unicode="&#xb2;" horiz-adv-x="867" 
d="M86 1320q0 88 44.5 154.5t124 104t183.5 37.5q102 0 176 -33.5t114 -91.5t40 -133q0 -52 -18.5 -96t-61.5 -92t-119 -113l-187 -160v-11h398v-167h-681v142l326 286q58 51 87 83.5t39.5 57.5t10.5 52q0 47 -35.5 81t-99.5 34q-68 0 -107 -38.5t-39 -96.5h-195z" />
    <glyph glyph-name="uni00B3" unicode="&#xb3;" horiz-adv-x="898" 
d="M325 1094v146h117q63 0 101 30t38 79q0 47 -36 77t-101 30q-67 0 -106 -30.5t-43 -85.5h-193q3 84 46.5 146t122 96t184.5 34q105 0 177.5 -32t110 -86t37.5 -119q0 -79 -48.5 -129.5t-123.5 -67.5v-12q98 -13 153 -68.5t55 -142.5q0 -77 -47.5 -136.5t-130.5 -93
t-190 -33.5t-188 35t-128 98t-51 148h202q3 -53 46.5 -83t114.5 -30t114 31.5t43 83.5q0 54 -42 84.5t-115 30.5h-119z" />
    <glyph glyph-name="acute" unicode="&#xb4;" horiz-adv-x="1024" 
d="M488 1243h-187l171 348h250z" />
    <glyph glyph-name="mu" unicode="&#x3bc;" horiz-adv-x="1326" 
d="M151 -364v1458h248v-648q0 -250 216 -250q72 0 126 32t84 90t30 138v638h248v-778q0 -72 21 -98.5t72 -26.5q12 0 26.5 2.5t25.5 4.5v-193q-49 -15 -112 -15q-114 0 -172.5 41t-80.5 139l-3 13h-17q-29 -99 -91 -152t-168 -53q-137 0 -188 96h-17v-438h-248z" />
    <glyph glyph-name="mu" unicode="&#xb5;" horiz-adv-x="1326" 
d="M151 -364v1458h248v-648q0 -250 216 -250q72 0 126 32t84 90t30 138v638h248v-778q0 -72 21 -98.5t72 -26.5q12 0 26.5 2.5t25.5 4.5v-193q-49 -15 -112 -15q-114 0 -172.5 41t-80.5 139l-3 13h-17q-29 -99 -91 -152t-168 -53q-137 0 -188 96h-17v-438h-248z" />
    <glyph glyph-name="paragraph" unicode="&#xb6;" horiz-adv-x="1321" 
d="M774 -245h-205v828h-18q-99 0 -182.5 32t-146 90t-97 135.5t-34.5 167.5q0 94 34.5 173.5t96.5 138t146 91t184 32.5h222v-1688zM938 -245v1688h204v-1688h-204z" />
    <glyph glyph-name="periodcentered" unicode="&#xb7;" horiz-adv-x="674" 
d="M336 389q-47 0 -83 20.5t-56.5 56.5t-20.5 81t20.5 81t56.5 56.5t83 20.5t83.5 -20.5t56.5 -56.5t20 -81t-20 -81t-56.5 -56.5t-83.5 -20.5z" />
    <glyph glyph-name="cedilla" unicode="&#xb8;" horiz-adv-x="1024" 
d="M367 -239v108l94 157h153v-26l-71 -116q95 -4 153.5 -48t58.5 -124q0 -70 -36.5 -115t-98.5 -66t-138 -21q-38 0 -75.5 5t-70.5 12v130q11 -3 43 -8t68 -5q30 0 58 5.5t45.5 19t17.5 36.5q0 31 -34.5 43.5t-101.5 12.5h-65z" />
    <glyph glyph-name="uni00B9" unicode="&#xb9;" horiz-adv-x="692" 
d="M315 719v680h-12l-225 -144v186l237 152h210v-874h-210z" />
    <glyph glyph-name="ordmasculine" unicode="&#xba;" horiz-adv-x="896" 
d="M447 703q-118 0 -203.5 45.5t-131 131t-45.5 204.5q0 118 46 203.5t131 131.5t203 46t202.5 -46t130.5 -131.5t46 -203.5q0 -120 -45.5 -205t-130.5 -130.5t-203 -45.5zM447 862q82 0 126.5 58.5t44.5 163.5t-45 163.5t-126 58.5t-126 -58.5t-45 -163.5q0 -106 44.5 -164
t126.5 -58z" />
    <glyph glyph-name="guillemotright" unicode="&#xbb;" horiz-adv-x="1438" 
d="M513 572l-348 410h246l349 -413v-8l-346 -412h-249l348 411v12zM1024 572l-348 410h247l349 -413v-8l-347 -412h-249l348 411v12z" />
    <glyph glyph-name="onequarter" unicode="&#xbc;" horiz-adv-x="2010" 
d="M315 569v680h-12l-225 -144v186l237 152h210v-874h-210zM585 0h-206l973 1443h206zM1617 0v152h-453v161q86 147 176.5 287t182.5 274h295v-556h118v-166h-118v-152h-201zM1351 322v-11h271v409h-11q-65 -93 -132.5 -195.5t-127.5 -202.5z" />
    <glyph glyph-name="onehalf" unicode="&#xbd;" horiz-adv-x="2079" 
d="M315 569v680h-12l-225 -144v186l237 152h210v-874h-210zM585 0h-206l973 1443h206zM1298 601q0 88 44.5 154.5t124 104t183.5 37.5q102 0 176 -33.5t114 -91.5t40 -133q0 -51 -18.5 -95.5t-61.5 -93t-119 -112.5l-187 -160v-11h398v-167h-681v142l326 286q58 50 87 83
t39.5 58t10.5 52q0 47 -35.5 81t-99.5 34q-68 0 -107 -38t-39 -97h-195z" />
    <glyph glyph-name="threequarters" unicode="&#xbe;" horiz-adv-x="2216" 
d="M325 944v146h117q63 0 101 30t38 79q0 47 -36 77t-101 30q-67 0 -106 -30.5t-43 -85.5h-193q3 84 46.5 146t122 96t184.5 34q105 0 177.5 -32t110 -86t37.5 -119q0 -79 -48.5 -129.5t-123.5 -67.5v-12q98 -13 153 -68.5t55 -142.5q0 -77 -47.5 -136.5t-130.5 -93
t-190 -33.5t-188 35t-128 98t-51 148h202q3 -53 46.5 -83t114.5 -30t114 31.5t43 83.5q0 54 -42 84.5t-115 30.5h-119zM791 0h-206l973 1443h206zM1823 0v152h-453v161q86 147 176.5 287t182.5 274h295v-556h118v-166h-118v-152h-201zM1557 322v-11h271v409h-11
q-65 -93 -132.5 -195.5t-127.5 -202.5z" />
    <glyph glyph-name="questiondown" unicode="&#xbf;" horiz-adv-x="1108" 
d="M1029 68q-4 -119 -59 -211.5t-158 -145.5t-250 -53q-103 0 -187.5 28t-145 79t-93 120.5t-32.5 153.5q0 114 55.5 196t156.5 143q65 39 101.5 72t51 69.5t14.5 86.5v57h232l1 -68q7 -113 -38 -187t-148 -135q-62 -37 -98.5 -70t-52 -70t-15.5 -85q0 -52 26.5 -93
t73.5 -64t111 -23q95 0 154 54t65 146h235zM589 821q-76 0 -121 43.5t-45 115.5t45 116t121 44t121 -44t45 -116t-45 -115.5t-121 -43.5z" />
    <glyph glyph-name="Agrave" unicode="&#xc0;" horiz-adv-x="1456" 
d="M1108 0l-122 369h-531l-124 -369h-261l512 1443h290l513 -1443h-277zM713 1168l-198 -595h411l-196 595h-17zM626 1585l-249 315h268l174 -315h-193z" />
    <glyph glyph-name="Aacute" unicode="&#xc1;" horiz-adv-x="1456" 
d="M1108 0l-122 369h-531l-124 -369h-261l512 1443h290l513 -1443h-277zM713 1168l-198 -595h411l-196 595h-17zM828 1585h-193l174 315h268z" />
    <glyph glyph-name="Acircumflex" unicode="&#xc2;" horiz-adv-x="1456" 
d="M1108 0l-122 369h-531l-124 -369h-261l512 1443h290l513 -1443h-277zM713 1168l-198 -595h411l-196 595h-17zM611 1900h232l290 -315h-242l-155 179h-18l-155 -179h-242z" />
    <glyph glyph-name="Atilde" unicode="&#xc3;" horiz-adv-x="1456" 
d="M1108 0l-122 369h-531l-124 -369h-261l512 1443h290l513 -1443h-277zM713 1168l-198 -595h411l-196 595h-17zM866 1579q-49 0 -82.5 14.5t-57.5 35.5t-43.5 42t-39.5 35.5t-46 14.5q-77 0 -77 -141h-167q0 146 64.5 226.5t172.5 80.5q48 0 81.5 -15t58 -37t44.5 -44.5
t41 -37.5t48 -15q40 0 58.5 37.5t18.5 110.5h167q0 -145 -65.5 -226t-175.5 -81z" />
    <glyph glyph-name="Adieresis" unicode="&#xc4;" horiz-adv-x="1456" 
d="M1108 0l-122 369h-531l-124 -369h-261l512 1443h290l513 -1443h-277zM713 1168l-198 -595h411l-196 595h-17zM495 1612q-39 0 -71.5 19t-52 51.5t-19.5 72.5t19.5 72.5t52 51.5t71.5 19q40 0 72 -19t51.5 -51.5t19.5 -72.5t-19.5 -72.5t-51.5 -51.5t-72 -19zM959 1612
q-39 0 -71.5 19t-52 51.5t-19.5 72.5t19.5 72.5t52 51.5t71.5 19q40 0 72 -19t51.5 -51.5t19.5 -72.5t-19.5 -72.5t-51.5 -51.5t-72 -19z" />
    <glyph glyph-name="uni212B" unicode="&#x212b;" horiz-adv-x="1456" 
d="M1108 0l-122 369h-531l-124 -369h-261l512 1443h290l513 -1443h-277zM713 1168l-198 -595h411l-196 595h-17zM727 1541q-56 0 -103 26.5t-75 72.5t-28 103t28 103t75 73t103 27t103 -27t75 -73t28 -103t-28 -103t-75 -72.5t-103 -26.5zM727 1648q41 0 69 27t28 68
q0 42 -28 69t-69 27t-69 -27t-28 -69q0 -41 28 -68t69 -27z" />
    <glyph glyph-name="uni212B" unicode="&#xc5;" horiz-adv-x="1456" 
d="M1108 0l-122 369h-531l-124 -369h-261l512 1443h290l513 -1443h-277zM713 1168l-198 -595h411l-196 595h-17zM727 1541q-56 0 -103 26.5t-75 72.5t-28 103t28 103t75 73t103 27t103 -27t75 -73t28 -103t-28 -103t-75 -72.5t-103 -26.5zM727 1648q41 0 69 27t28 68
q0 42 -28 69t-69 27t-69 -27t-28 -69q0 -41 28 -68t69 -27z" />
    <glyph glyph-name="AE" unicode="&#xc6;" horiz-adv-x="2025" 
d="M852 1235l-272 -632h408v632h-136zM988 0v398h-488l-174 -398h-256l615 1443h1197v-223h-653v-389h616v-211h-616v-397h653v-223h-894z" />
    <glyph glyph-name="Ccedilla" unicode="&#xc7;" horiz-adv-x="1499" 
d="M1136 458h254q-15 -135 -85.5 -240t-184 -170t-258.5 -80l-52 -84q95 -4 153.5 -48t58.5 -124q0 -70 -36.5 -115t-98.5 -66t-138 -21q-38 0 -75.5 5t-70.5 12v130q11 -3 43 -8t68 -5q30 0 57.5 5.5t45.5 19t18 36.5q0 31 -34 43.5t-102 12.5h-65v108l60 99
q-179 19 -309 115.5t-199.5 258.5t-69.5 379q0 176 45.5 316t132 239t209 151t275.5 52q123 0 229 -38t188 -107t132.5 -163t61.5 -207h-254q-18 86 -68 150.5t-124 99.5t-165 35q-123 0 -212 -64t-137.5 -182.5t-48.5 -280.5q0 -163 48.5 -281.5t138 -182.5t212.5 -64
q92 0 166 32t124 91.5t67 140.5z" />
    <glyph glyph-name="Egrave" unicode="&#xc8;" horiz-adv-x="1254" 
d="M1111 223v-223h-934v1443h934v-223h-676v-383h639v-210h-639v-404h676zM543 1585l-249 315h268l174 -315h-193z" />
    <glyph glyph-name="Eacute" unicode="&#xc9;" horiz-adv-x="1254" 
d="M1111 223v-223h-934v1443h934v-223h-676v-383h639v-210h-639v-404h676zM745 1585h-193l174 315h268z" />
    <glyph glyph-name="Ecircumflex" unicode="&#xca;" horiz-adv-x="1254" 
d="M1111 223v-223h-934v1443h934v-223h-676v-383h639v-210h-639v-404h676zM528 1900h232l290 -315h-242l-155 179h-18l-155 -179h-242z" />
    <glyph glyph-name="Edieresis" unicode="&#xcb;" horiz-adv-x="1254" 
d="M1111 223v-223h-934v1443h934v-223h-676v-383h639v-210h-639v-404h676zM412 1612q-39 0 -71.5 19t-52 51.5t-19.5 72.5t19.5 72.5t52 51.5t71.5 19t71.5 -19t52 -51.5t19.5 -72.5t-19.5 -72.5t-52 -51.5t-71.5 -19zM876 1612q-39 0 -71.5 19t-52 51.5t-19.5 72.5
t19.5 72.5t52 51.5t71.5 19t71.5 -19t52 -51.5t19.5 -72.5t-19.5 -72.5t-52 -51.5t-71.5 -19z" />
    <glyph glyph-name="Igrave" unicode="&#xcc;" horiz-adv-x="614" 
d="M436 0h-258v1443h258v-1443zM206 1585l-249 315h268l174 -315h-193z" />
    <glyph glyph-name="Iacute" unicode="&#xcd;" horiz-adv-x="614" 
d="M435 0h-258v1443h258v-1443zM407 1585h-193l174 315h268z" />
    <glyph glyph-name="Icircumflex" unicode="&#xce;" horiz-adv-x="614" 
d="M436 0h-258v1443h258v-1443zM191 1900h232l290 -315h-242l-155 179h-18l-155 -179h-242z" />
    <glyph glyph-name="Idieresis" unicode="&#xcf;" horiz-adv-x="614" 
d="M436 0h-258v1443h258v-1443zM75 1612q-39 0 -71.5 19t-52 51.5t-19.5 72.5t19.5 72.5t52 51.5t71.5 19t71.5 -19t52 -51.5t19.5 -72.5t-19.5 -72.5t-52 -51.5t-71.5 -19zM539 1612q-39 0 -71.5 19t-52 51.5t-19.5 72.5t19.5 72.5t52 51.5t71.5 19t71.5 -19t52 -51.5
t19.5 -72.5t-19.5 -72.5t-52 -51.5t-71.5 -19z" />
    <glyph glyph-name="Eth" unicode="&#xd0;" horiz-adv-x="1515" 
d="M435 223h249q215 0 332.5 129.5t117.5 371.5q0 158 -53.5 268.5t-154.5 169t-242 58.5h-249v-382h276v-204h-276v-411zM177 1443h541q215 0 366.5 -84.5t232 -244.5t80.5 -386q0 -232 -80 -394.5t-231.5 -248t-367.5 -85.5h-541v634h-137v204h137v605z" />
    <glyph glyph-name="Ntilde" unicode="&#xd1;" horiz-adv-x="1554" 
d="M426 0h-249v1443h224l708 -981h17v981h248v-1443h-223l-708 982h-17v-982zM912 1579q-49 0 -82.5 14.5t-57.5 35.5t-43.5 42t-39.5 35.5t-46 14.5q-77 0 -77 -141h-167q0 146 64.5 226.5t172.5 80.5q48 0 81.5 -15t58 -37t44.5 -44.5t41 -37.5t48 -15q40 0 58.5 37.5
t18.5 110.5h167q0 -145 -65.5 -226t-175.5 -81z" />
    <glyph glyph-name="Ograve" unicode="&#xd2;" horiz-adv-x="1599" 
d="M799 1479q158 0 283.5 -52.5t215 -151.5t136.5 -238.5t47 -314.5q0 -174 -47 -314t-136 -239.5t-215 -152t-284 -52.5q-159 0 -285 52.5t-215 151.5t-136 239t-47 315t47.5 314.5t137 238.5t215.5 151.5t283 52.5zM799 1250q-128 0 -222 -64.5t-145.5 -183t-51.5 -280.5
q0 -161 50.5 -280t144.5 -184t224 -65q128 0 222.5 65t145.5 184t51 280q0 162 -51.5 280.5t-145.5 183t-222 64.5zM698 1585l-249 315h268l174 -315h-193z" />
    <glyph glyph-name="Oacute" unicode="&#xd3;" horiz-adv-x="1599" 
d="M799 1479q158 0 283.5 -52.5t215 -151.5t136.5 -238.5t47 -314.5q0 -174 -47 -314t-136 -239.5t-215 -152t-284 -52.5q-159 0 -285 52.5t-215 151.5t-136 239t-47 315t47.5 314.5t137 238.5t215.5 151.5t283 52.5zM799 1250q-128 0 -222 -64.5t-145.5 -183t-51.5 -280.5
q0 -161 50.5 -280t144.5 -184t224 -65q128 0 222.5 65t145.5 184t51 280q0 162 -51.5 280.5t-145.5 183t-222 64.5zM900 1585h-193l174 315h268z" />
    <glyph glyph-name="Ocircumflex" unicode="&#xd4;" horiz-adv-x="1599" 
d="M799 1479q158 0 283.5 -52.5t215 -151.5t136.5 -238.5t47 -314.5q0 -174 -47 -314t-136 -239.5t-215 -152t-284 -52.5q-159 0 -285 52.5t-215 151.5t-136 239t-47 315t47.5 314.5t137 238.5t215.5 151.5t283 52.5zM799 1250q-128 0 -222 -64.5t-145.5 -183t-51.5 -280.5
q0 -161 50.5 -280t144.5 -184t224 -65q128 0 222.5 65t145.5 184t51 280q0 162 -51.5 280.5t-145.5 183t-222 64.5zM683 1900h232l290 -315h-242l-155 179h-18l-155 -179h-242z" />
    <glyph glyph-name="Otilde" unicode="&#xd5;" horiz-adv-x="1599" 
d="M799 1479q158 0 283.5 -52.5t215 -151.5t136.5 -238.5t47 -314.5q0 -174 -47 -314t-136 -239.5t-215 -152t-284 -52.5q-159 0 -285 52.5t-215 151.5t-136 239t-47 315t47.5 314.5t137 238.5t215.5 151.5t283 52.5zM799 1250q-128 0 -222 -64.5t-145.5 -183t-51.5 -280.5
q0 -161 50.5 -280t144.5 -184t224 -65q128 0 222.5 65t145.5 184t51 280q0 162 -51.5 280.5t-145.5 183t-222 64.5zM938 1579q-49 0 -82.5 14.5t-57.5 35.5t-43.5 42t-39.5 35.5t-46 14.5q-77 0 -77 -141h-167q0 146 64.5 226.5t172.5 80.5q48 0 81.5 -15t58 -37t44.5 -44.5
t41 -37.5t48 -15q40 0 58.5 37.5t18.5 110.5h167q0 -145 -65.5 -226t-175.5 -81z" />
    <glyph glyph-name="Odieresis" unicode="&#xd6;" horiz-adv-x="1599" 
d="M799 1479q158 0 283.5 -52.5t215 -151.5t136.5 -238.5t47 -314.5q0 -174 -47 -314t-136 -239.5t-215 -152t-284 -52.5q-159 0 -285 52.5t-215 151.5t-136 239t-47 315t47.5 314.5t137 238.5t215.5 151.5t283 52.5zM799 1250q-128 0 -222 -64.5t-145.5 -183t-51.5 -280.5
q0 -161 50.5 -280t144.5 -184t224 -65q128 0 222.5 65t145.5 184t51 280q0 162 -51.5 280.5t-145.5 183t-222 64.5zM567 1612q-39 0 -71.5 19t-52 51.5t-19.5 72.5t19.5 72.5t52 51.5t71.5 19q40 0 72 -19t51.5 -51.5t19.5 -72.5t-19.5 -72.5t-51.5 -51.5t-72 -19z
M1031 1612q-39 0 -71.5 19t-52 51.5t-19.5 72.5t19.5 72.5t52 51.5t71.5 19q40 0 72 -19t51.5 -51.5t19.5 -72.5t-19.5 -72.5t-51.5 -51.5t-72 -19z" />
    <glyph glyph-name="multiply" unicode="&#xd7;" horiz-adv-x="1383" 
d="M691 421l-334 -329l-146 150l333 334l-333 333l146 150l334 -329l334 329l146 -150l-333 -333l333 -334l-146 -150z" />
    <glyph glyph-name="Oslash" unicode="&#xd8;" horiz-adv-x="1599" 
d="M1170 1025l-648 -739q53 -50 123 -77t154 -27q133 0 229.5 66.5t149 188t52.5 285.5q0 88 -15.5 164.5t-44.5 138.5zM426 421l648 738q-53 49 -122.5 76t-152.5 27q-132 0 -229 -66t-150 -187.5t-53 -286.5q0 -175 59 -301zM1458 1353l-116 -133q67 -95 103 -220.5
t36 -277.5q0 -174 -47 -314t-136 -239t-215 -152t-284 -53q-131 0 -241 36.5t-194 105.5l-111 -127l-117 112l118 134q-67 95 -102.5 220.5t-35.5 276.5q0 175 47.5 314.5t137 238.5t215.5 151.5t283 52.5q130 0 239 -36.5t193 -104.5l111 126z" />
    <glyph glyph-name="Ugrave" unicode="&#xd9;" horiz-adv-x="1540" 
d="M434 1443v-922q0 -97 39 -170.5t114 -114.5t182 -41t182 41t114 114.5t39 170.5v922h258v-946q0 -118 -41 -216t-118.5 -169t-187 -109.5t-246.5 -38.5t-246.5 38.5t-187 109.5t-118.5 169t-41 216v946h258zM668 1585l-249 315h268l174 -315h-193z" />
    <glyph glyph-name="Uacute" unicode="&#xda;" horiz-adv-x="1540" 
d="M434 1443v-922q0 -97 39 -170.5t114 -114.5t182 -41t182 41t114 114.5t39 170.5v922h258v-946q0 -118 -41 -216t-118.5 -169t-187 -109.5t-246.5 -38.5t-246.5 38.5t-187 109.5t-118.5 169t-41 216v946h258zM870 1585h-193l174 315h268z" />
    <glyph glyph-name="Ucircumflex" unicode="&#xdb;" horiz-adv-x="1540" 
d="M434 1443v-922q0 -97 39 -170.5t114 -114.5t182 -41t182 41t114 114.5t39 170.5v922h258v-946q0 -118 -41 -216t-118.5 -169t-187 -109.5t-246.5 -38.5t-246.5 38.5t-187 109.5t-118.5 169t-41 216v946h258zM653 1900h232l290 -315h-242l-155 179h-18l-155 -179h-242z
" />
    <glyph glyph-name="Udieresis" unicode="&#xdc;" horiz-adv-x="1540" 
d="M434 1443v-922q0 -97 39 -170.5t114 -114.5t182 -41t182 41t114 114.5t39 170.5v922h258v-946q0 -118 -41 -216t-118.5 -169t-187 -109.5t-246.5 -38.5t-246.5 38.5t-187 109.5t-118.5 169t-41 216v946h258zM537 1612q-39 0 -71.5 19t-52 51.5t-19.5 72.5t19.5 72.5
t52 51.5t71.5 19q40 0 72 -19t51.5 -51.5t19.5 -72.5t-19.5 -72.5t-51.5 -51.5t-72 -19zM1001 1612q-39 0 -71.5 19t-52 51.5t-19.5 72.5t19.5 72.5t52 51.5t71.5 19q40 0 72 -19t51.5 -51.5t19.5 -72.5t-19.5 -72.5t-51.5 -51.5t-72 -19z" />
    <glyph glyph-name="Yacute" unicode="&#xdd;" horiz-adv-x="1412" 
d="M834 0h-258v564l-506 879h283l344 -617h17l343 617h283l-506 -879v-564zM806 1585h-193l174 315h268z" />
    <glyph glyph-name="Thorn" unicode="&#xde;" horiz-adv-x="1342" 
d="M177 1443h259v-244h331q95 0 177.5 -30t145 -87.5t98 -140t35.5 -187.5q0 -104 -36 -186.5t-100 -140t-148.5 -88t-181.5 -30.5h-322v-309h-258v1443zM435 983v-460h260q119 0 192 57.5t73 173.5q0 76 -33 127t-92.5 76.5t-138.5 25.5h-261z" />
    <glyph glyph-name="germandbls" unicode="&#xdf;" horiz-adv-x="1355" 
d="M450 0h-247v1087q0 124 58.5 213.5t164 138t247.5 48.5q103 0 188.5 -27.5t147.5 -78t95.5 -119.5t33.5 -152q0 -81 -29 -148t-79 -113.5t-114 -64.5v-19q101 -7 176.5 -52.5t117.5 -124t42 -185.5q0 -91 -33 -167.5t-95.5 -133t-150 -87t-195.5 -30.5q-48 0 -92 4
t-75 11v209q56 -16 129 -16q126 0 193.5 61.5t67.5 161.5q0 103 -78 162.5t-220 59.5h-68v218h50q96 0 154 56.5t58 161.5q0 58 -26 103.5t-75.5 72t-118.5 26.5q-108 0 -167.5 -61t-59.5 -174v-1041z" />
    <glyph glyph-name="agrave" unicode="&#xe0;" horiz-adv-x="1179" 
d="M525 177q75 0 134.5 29.5t93.5 80.5t34 114v87l-247 -16q-104 -7 -154 -44t-50 -104q0 -69 53.5 -108t135.5 -39zM452 -18q-105 0 -187 40.5t-128.5 114t-46.5 173.5q0 148 107.5 232t307.5 96l282 17v92q0 80 -53 123.5t-153 43.5q-86 0 -142 -29t-73 -85h-234
q10 96 70.5 167t160.5 110t230 39q140 0 238.5 -44t149.5 -126.5t51 -198.5v-747h-239v150h-17q-46 -80 -131.5 -124t-192.5 -44zM498 1243l-234 348h250l171 -348h-187z" />
    <glyph glyph-name="aacute" unicode="&#xe1;" horiz-adv-x="1179" 
d="M525 177q75 0 134.5 29.5t93.5 80.5t34 114v87l-247 -16q-104 -7 -154 -44t-50 -104q0 -69 53.5 -108t135.5 -39zM452 -18q-105 0 -187 40.5t-128.5 114t-46.5 173.5q0 148 107.5 232t307.5 96l282 17v92q0 80 -53 123.5t-153 43.5q-86 0 -142 -29t-73 -85h-234
q10 96 70.5 167t160.5 110t230 39q140 0 238.5 -44t149.5 -126.5t51 -198.5v-747h-239v150h-17q-46 -80 -131.5 -124t-192.5 -44zM688 1243h-187l171 348h250z" />
    <glyph glyph-name="acircumflex" unicode="&#xe2;" horiz-adv-x="1179" 
d="M525 177q75 0 134.5 29.5t93.5 80.5t34 114v87l-247 -16q-104 -7 -154 -44t-50 -104q0 -69 53.5 -108t135.5 -39zM452 -18q-105 0 -187 40.5t-128.5 114t-46.5 173.5q0 148 107.5 232t307.5 96l282 17v92q0 80 -53 123.5t-153 43.5q-86 0 -142 -29t-73 -85h-234
q10 96 70.5 167t160.5 110t230 39q140 0 238.5 -44t149.5 -126.5t51 -198.5v-747h-239v150h-17q-46 -80 -131.5 -124t-192.5 -44zM722 1591l251 -348h-233l-138 215h-18l-138 -215h-233l251 348h258z" />
    <glyph glyph-name="atilde" unicode="&#xe3;" horiz-adv-x="1179" 
d="M525 177q75 0 134.5 29.5t93.5 80.5t34 114v87l-247 -16q-104 -7 -154 -44t-50 -104q0 -69 53.5 -108t135.5 -39zM452 -18q-105 0 -187 40.5t-128.5 114t-46.5 173.5q0 148 107.5 232t307.5 96l282 17v92q0 80 -53 123.5t-153 43.5q-86 0 -142 -29t-73 -85h-234
q10 96 70.5 167t160.5 110t230 39q140 0 238.5 -44t149.5 -126.5t51 -198.5v-747h-239v150h-17q-46 -80 -131.5 -124t-192.5 -44zM732 1246q-49 0 -82.5 14.5t-57.5 36t-43.5 42.5t-39.5 35.5t-46 14.5q-77 0 -77 -142h-167q0 97 29 166t82.5 105.5t125.5 36.5
q48 0 81.5 -15t58 -37t44.5 -44.5t41 -37.5t48 -15q40 0 58.5 37.5t18.5 109.5h167q0 -96 -29.5 -165t-84 -105.5t-127.5 -36.5z" />
    <glyph glyph-name="adieresis" unicode="&#xe4;" horiz-adv-x="1179" 
d="M525 177q75 0 134.5 29.5t93.5 80.5t34 114v87l-247 -16q-104 -7 -154 -44t-50 -104q0 -69 53.5 -108t135.5 -39zM452 -18q-105 0 -187 40.5t-128.5 114t-46.5 173.5q0 148 107.5 232t307.5 96l282 17v92q0 80 -53 123.5t-153 43.5q-86 0 -142 -29t-73 -85h-234
q10 96 70.5 167t160.5 110t230 39q140 0 238.5 -44t149.5 -126.5t51 -198.5v-747h-239v150h-17q-46 -80 -131.5 -124t-192.5 -44zM361 1279q-39 0 -71.5 19.5t-52 51.5t-19.5 72t19.5 72.5t52 52t71.5 19.5q40 0 72 -19.5t51.5 -52t19.5 -72.5t-19.5 -72t-51.5 -51.5
t-72 -19.5zM825 1279q-39 0 -71.5 19.5t-52 51.5t-19.5 72t19.5 72.5t52 52t71.5 19.5q40 0 72 -19.5t51.5 -52t19.5 -72.5t-19.5 -72t-51.5 -51.5t-72 -19.5z" />
    <glyph glyph-name="aring" unicode="&#xe5;" horiz-adv-x="1179" 
d="M525 177q75 0 134.5 29.5t93.5 80.5t34 114v87l-247 -16q-104 -7 -154 -44t-50 -104q0 -69 53.5 -108t135.5 -39zM452 -18q-105 0 -187 40.5t-128.5 114t-46.5 173.5q0 148 107.5 232t307.5 96l282 17v92q0 80 -53 123.5t-153 43.5q-86 0 -142 -29t-73 -85h-234
q10 96 70.5 167t160.5 110t230 39q140 0 238.5 -44t149.5 -126.5t51 -198.5v-747h-239v150h-17q-46 -80 -131.5 -124t-192.5 -44zM593 1239q-66 0 -120.5 30.5t-87 83.5t-32.5 121t32.5 121t87 83.5t120.5 30.5t120.5 -30.5t87 -83.5t32.5 -121t-32.5 -121t-87 -83.5
t-120.5 -30.5zM593 1363q47 0 79.5 31.5t32.5 79.5t-32.5 79.5t-79.5 31.5t-79.5 -31.5t-32.5 -79.5t32.5 -79.5t79.5 -31.5z" />
    <glyph glyph-name="ae" unicode="&#xe6;" horiz-adv-x="1878" 
d="M1304 -22q-87 0 -164 26.5t-135.5 74t-90.5 109.5h-17q-58 -97 -163 -153.5t-243 -56.5q-121 0 -211 41.5t-140 116t-50 174.5q0 148 107.5 232t307.5 96l282 17v82q0 88 -54 132.5t-152 44.5q-180 0 -215 -114h-234q9 94 68 165t155 111t218 40q132 0 220 -47t134 -121
h17q35 49 89 87t122 59.5t145 21.5q149 0 256 -65.5t165 -187t58 -289.5v-84h-754v-23q3 -88 38.5 -153.5t96.5 -101.5t143 -36q87 0 143.5 31t87.5 94h234q-24 -101 -87.5 -173t-159.5 -111t-217 -39zM1286 919q-75 0 -132 -32t-91 -90.5t-38 -138.5h507q-3 78 -35 136.5
t-86.5 91.5t-124.5 33zM532 175q76 0 133.5 31t89.5 82.5t32 113.5v86l-247 -16q-104 -7 -154 -44.5t-50 -105.5q0 -69 54 -108t142 -39z" />
    <glyph glyph-name="ccedilla" unicode="&#xe7;" horiz-adv-x="1182" 
d="M1096 726h-236q-17 80 -78 131t-163 51q-128 0 -199.5 -94t-71.5 -264q0 -172 72 -268t199 -96q97 0 159.5 45t81.5 130h236q-12 -100 -59.5 -179t-127.5 -129.5t-189 -67.5l-62 -101q95 -4 153.5 -48t58.5 -124q0 -70 -36.5 -115t-98.5 -66t-138 -21q-38 0 -75.5 5
t-70.5 12v130q11 -3 43 -8t68 -5q30 0 57.5 5.5t45.5 19t18 36.5q0 31 -34 43.5t-102 12.5h-65v108l67 112q-143 15 -244 86.5t-154.5 194t-53.5 288.5q0 178 62 304.5t179 194t281 67.5q140 0 242.5 -49.5t162 -137.5t72.5 -203z" />
    <glyph glyph-name="egrave" unicode="&#xe8;" horiz-adv-x="1208" 
d="M610 919q-74 0 -131.5 -33t-91.5 -93t-40 -140h515q-3 81 -34.5 141t-87 92.5t-130.5 32.5zM864 301h235q-22 -99 -88 -171.5t-167.5 -112t-230.5 -39.5q-161 0 -276.5 68t-177.5 194.5t-62 302.5t62.5 304.5t178 198.5t273.5 70q156 0 267.5 -66t171.5 -190t60 -296v-80
h-764v-13q3 -91 37.5 -157.5t95 -102.5t141.5 -36q92 0 154.5 32.5t89.5 93.5zM518 1243l-234 348h250l171 -348h-187z" />
    <glyph glyph-name="eacute" unicode="&#xe9;" horiz-adv-x="1208" 
d="M610 919q-74 0 -131.5 -33t-91.5 -93t-40 -140h515q-3 81 -34.5 141t-87 92.5t-130.5 32.5zM864 301h235q-22 -99 -88 -171.5t-167.5 -112t-230.5 -39.5q-161 0 -276.5 68t-177.5 194.5t-62 302.5t62.5 304.5t178 198.5t273.5 70q156 0 267.5 -66t171.5 -190t60 -296v-80
h-764v-13q3 -91 37.5 -157.5t95 -102.5t141.5 -36q92 0 154.5 32.5t89.5 93.5zM708 1243h-187l171 348h250z" />
    <glyph glyph-name="ecircumflex" unicode="&#xea;" horiz-adv-x="1208" 
d="M610 919q-74 0 -131.5 -33t-91.5 -93t-40 -140h515q-3 81 -34.5 141t-87 92.5t-130.5 32.5zM864 301h235q-22 -99 -88 -171.5t-167.5 -112t-230.5 -39.5q-161 0 -276.5 68t-177.5 194.5t-62 302.5t62.5 304.5t178 198.5t273.5 70q156 0 267.5 -66t171.5 -190t60 -296v-80
h-764v-13q3 -91 37.5 -157.5t95 -102.5t141.5 -36q92 0 154.5 32.5t89.5 93.5zM742 1591l251 -348h-233l-138 215h-18l-138 -215h-233l251 348h258z" />
    <glyph glyph-name="edieresis" unicode="&#xeb;" horiz-adv-x="1208" 
d="M610 919q-74 0 -131.5 -33t-91.5 -93t-40 -140h515q-3 81 -34.5 141t-87 92.5t-130.5 32.5zM864 301h235q-22 -99 -88 -171.5t-167.5 -112t-230.5 -39.5q-161 0 -276.5 68t-177.5 194.5t-62 302.5t62.5 304.5t178 198.5t273.5 70q156 0 267.5 -66t171.5 -190t60 -296v-80
h-764v-13q3 -91 37.5 -157.5t95 -102.5t141.5 -36q92 0 154.5 32.5t89.5 93.5zM381 1279q-39 0 -71.5 19.5t-52 51.5t-19.5 72t19.5 72.5t52 52t71.5 19.5q40 0 72 -19.5t51.5 -52t19.5 -72.5t-19.5 -72t-51.5 -51.5t-72 -19.5zM845 1279q-39 0 -71.5 19.5t-52 51.5
t-19.5 72t19.5 72.5t52 52t71.5 19.5q40 0 72 -19.5t51.5 -52t19.5 -72.5t-19.5 -72t-51.5 -51.5t-72 -19.5z" />
    <glyph glyph-name="igrave" unicode="&#xec;" horiz-adv-x="557" 
d="M155 0v1094h247v-1094h-247zM183 1243l-234 348h250l171 -348h-187z" />
    <glyph glyph-name="iacute" unicode="&#xed;" horiz-adv-x="557" 
d="M154 0v1094h247v-1094h-247zM372 1243h-187l171 348h250z" />
    <glyph glyph-name="icircumflex" unicode="&#xee;" horiz-adv-x="557" 
d="M155 0v1094h247v-1094h-247zM407 1591l251 -348h-233l-138 215h-18l-138 -215h-233l251 348h258z" />
    <glyph glyph-name="idieresis" unicode="&#xef;" horiz-adv-x="557" 
d="M155 0v1094h247v-1094h-247zM46 1279q-39 0 -71.5 19.5t-52 51.5t-19.5 72t19.5 72.5t52 52t71.5 19.5q40 0 72 -19.5t51.5 -52t19.5 -72.5t-19.5 -72t-51.5 -51.5t-72 -19.5zM510 1279q-39 0 -71.5 19.5t-52 51.5t-19.5 72t19.5 72.5t52 52t71.5 19.5q40 0 72 -19.5
t51.5 -52t19.5 -72.5t-19.5 -72t-51.5 -51.5t-72 -19.5z" />
    <glyph glyph-name="eth" unicode="&#xf0;" horiz-adv-x="1247" 
d="M628 192q85 0 146.5 41.5t95.5 115.5t34 172q0 99 -34 174.5t-96.5 118t-146.5 42.5t-145.5 -42.5t-95 -118t-33.5 -175.5q0 -98 33.5 -172t95.5 -115t146 -41zM916 1425l-160 -88q195 -142 292 -338t97 -422q0 -128 -34.5 -236.5t-101.5 -189t-164 -125t-222 -44.5
q-126 0 -223 40t-164 112t-101.5 169t-34.5 211q0 122 35 218.5t97 164.5t145 104t180 36q62 0 119.5 -20t104 -54.5t75.5 -79.5h16q-38 103 -113.5 192t-182.5 163l-301 -166v145l176 97q-42 22 -87 43t-93 40v156q206 -51 363 -138l281 155z" />
    <glyph glyph-name="ntilde" unicode="&#xf1;" horiz-adv-x="1252" 
d="M151 0v1094h239v-175h17q39 91 121 144t204 53q183 0 280 -106t97 -302v-708h-248v649q0 125 -54 188t-167 63q-74 0 -128 -32t-83.5 -91t-29.5 -140v-637h-248zM774 1246q-49 0 -82.5 14.5t-57.5 36t-43.5 42.5t-39.5 35.5t-46 14.5q-77 0 -77 -142h-167q0 97 29 166
t82.5 105.5t125.5 36.5q48 0 81.5 -15t58 -37t44.5 -44.5t41 -37.5t48 -15q40 0 58.5 37.5t18.5 109.5h167q0 -96 -29.5 -165t-84 -105.5t-127.5 -36.5z" />
    <glyph glyph-name="ograve" unicode="&#xf2;" horiz-adv-x="1248" 
d="M623 -22q-164 0 -282 68.5t-181 196t-63 304.5t64 304.5t181.5 196t280.5 68.5t281 -68.5t181.5 -196t63.5 -304.5t-63.5 -304.5t-181 -196t-281.5 -68.5zM623 186q130 0 200.5 94.5t70.5 266.5q0 171 -71 266t-200 95q-130 0 -201 -95t-71 -266q0 -172 71 -266.5
t201 -94.5zM528 1243l-234 348h250l171 -348h-187z" />
    <glyph glyph-name="oacute" unicode="&#xf3;" horiz-adv-x="1248" 
d="M623 -22q-164 0 -282 68.5t-181 196t-63 304.5t64 304.5t181.5 196t280.5 68.5t281 -68.5t181.5 -196t63.5 -304.5t-63.5 -304.5t-181 -196t-281.5 -68.5zM623 186q130 0 200.5 94.5t70.5 266.5q0 171 -71 266t-200 95q-130 0 -201 -95t-71 -266q0 -172 71 -266.5
t201 -94.5zM718 1243h-187l171 348h250z" />
    <glyph glyph-name="ocircumflex" unicode="&#xf4;" horiz-adv-x="1248" 
d="M623 -22q-164 0 -282 68.5t-181 196t-63 304.5t64 304.5t181.5 196t280.5 68.5t281 -68.5t181.5 -196t63.5 -304.5t-63.5 -304.5t-181 -196t-281.5 -68.5zM623 186q130 0 200.5 94.5t70.5 266.5q0 171 -71 266t-200 95q-130 0 -201 -95t-71 -266q0 -172 71 -266.5
t201 -94.5zM752 1591l251 -348h-233l-138 215h-18l-138 -215h-233l251 348h258z" />
    <glyph glyph-name="otilde" unicode="&#xf5;" horiz-adv-x="1248" 
d="M623 -22q-164 0 -282 68.5t-181 196t-63 304.5t64 304.5t181.5 196t280.5 68.5t281 -68.5t181.5 -196t63.5 -304.5t-63.5 -304.5t-181 -196t-281.5 -68.5zM623 186q130 0 200.5 94.5t70.5 266.5q0 171 -71 266t-200 95q-130 0 -201 -95t-71 -266q0 -172 71 -266.5
t201 -94.5zM762 1246q-49 0 -82.5 14.5t-57.5 36t-43.5 42.5t-39.5 35.5t-46 14.5q-77 0 -77 -142h-167q0 97 29 166t82.5 105.5t125.5 36.5q48 0 81.5 -15t58 -37t44.5 -44.5t41 -37.5t48 -15q40 0 58.5 37.5t18.5 109.5h167q0 -96 -29.5 -165t-84 -105.5t-127.5 -36.5z
" />
    <glyph glyph-name="odieresis" unicode="&#xf6;" horiz-adv-x="1248" 
d="M623 -22q-164 0 -282 68.5t-181 196t-63 304.5t64 304.5t181.5 196t280.5 68.5t281 -68.5t181.5 -196t63.5 -304.5t-63.5 -304.5t-181 -196t-281.5 -68.5zM623 186q130 0 200.5 94.5t70.5 266.5q0 171 -71 266t-200 95q-130 0 -201 -95t-71 -266q0 -172 71 -266.5
t201 -94.5zM391 1279q-39 0 -71.5 19.5t-52 51.5t-19.5 72t19.5 72.5t52 52t71.5 19.5q40 0 72 -19.5t51.5 -52t19.5 -72.5t-19.5 -72t-51.5 -51.5t-72 -19.5zM855 1279q-39 0 -71.5 19.5t-52 51.5t-19.5 72t19.5 72.5t52 52t71.5 19.5q40 0 72 -19.5t51.5 -52t19.5 -72.5
t-19.5 -72t-51.5 -51.5t-72 -19.5z" />
    <glyph glyph-name="divide" unicode="&#xf7;" horiz-adv-x="1383" 
d="M691 827q-67 0 -109.5 41.5t-42.5 106.5q0 66 42.5 107.5t109.5 41.5t109 -41.5t42 -107.5q0 -65 -42 -106.5t-109 -41.5zM691 28q-67 0 -109.5 41t-42.5 107t42.5 107.5t109.5 41.5t109 -41.5t42 -107.5t-42 -107t-109 -41zM1197 472h-1012v207h1012v-207z" />
    <glyph glyph-name="oslash" unicode="&#xf8;" horiz-adv-x="1248" 
d="M889 725l-450 -493q72 -66 184 -66q139 0 214.5 100t75.5 281q0 101 -24 178zM358 367l450 494q-35 33 -81.5 50.5t-103.5 17.5q-139 0 -214.5 -100.5t-75.5 -281.5q0 -105 25 -180zM1147 1008l-93 -102q47 -70 71 -160t24 -198q0 -178 -63.5 -305.5t-181 -196
t-281.5 -68.5q-98 0 -180 25t-146 73l-93 -102l-106 108l95 104q-46 70 -71 161t-25 201q0 176 64 304t181.5 196.5t280.5 68.5q98 0 181 -25.5t147 -74.5l90 99z" />
    <glyph glyph-name="ugrave" unicode="&#xf9;" horiz-adv-x="1256" 
d="M1103 1094v-1094h-239v174h-17q-40 -94 -121 -145t-206 -51q-119 0 -204 48t-130 138.5t-45 218.5v711h248v-649q0 -125 53 -187t164 -62q121 0 185 70t64 191v637h248zM527 1243l-234 348h250l171 -348h-187z" />
    <glyph glyph-name="uacute" unicode="&#xfa;" horiz-adv-x="1256" 
d="M1103 1094v-1094h-239v174h-17q-40 -94 -121 -145t-206 -51q-119 0 -204 48t-130 138.5t-45 218.5v711h248v-649q0 -125 53 -187t164 -62q121 0 185 70t64 191v637h248zM717 1243h-187l171 348h250z" />
    <glyph glyph-name="ucircumflex" unicode="&#xfb;" horiz-adv-x="1256" 
d="M1103 1094v-1094h-239v174h-17q-40 -94 -121 -145t-206 -51q-119 0 -204 48t-130 138.5t-45 218.5v711h248v-649q0 -125 53 -187t164 -62q121 0 185 70t64 191v637h248zM751 1591l251 -348h-233l-138 215h-18l-138 -215h-233l251 348h258z" />
    <glyph glyph-name="udieresis" unicode="&#xfc;" horiz-adv-x="1256" 
d="M1103 1094v-1094h-239v174h-17q-40 -94 -121 -145t-206 -51q-119 0 -204 48t-130 138.5t-45 218.5v711h248v-649q0 -125 53 -187t164 -62q121 0 185 70t64 191v637h248zM390 1279q-39 0 -71.5 19.5t-52 51.5t-19.5 72t19.5 72.5t52 52t71.5 19.5t71.5 -19.5t52 -52
t19.5 -72.5t-19.5 -72t-52 -51.5t-71.5 -19.5zM854 1279q-39 0 -71.5 19.5t-52 51.5t-19.5 72t19.5 72.5t52 52t71.5 19.5t71.5 -19.5t52 -52t19.5 -72.5t-19.5 -72t-52 -51.5t-71.5 -19.5z" />
    <glyph glyph-name="yacute" unicode="&#xfd;" horiz-adv-x="1183" 
d="M271 -397q-8 0 -28.5 0.5t-41 1.5t-28.5 2v203q10 -2 32.5 -3t35.5 -1q79 0 125.5 32.5t70.5 108.5l13 48l-391 1099h272l256 -854h17l255 854h262l-395 -1129q-35 -102 -76 -171.5t-94.5 -111.5t-123 -60.5t-161.5 -18.5zM686 1243h-187l171 348h250z" />
    <glyph glyph-name="thorn" unicode="&#xfe;" horiz-adv-x="1310" 
d="M755 1112q139 0 240 -68t155.5 -195t54.5 -302t-54.5 -301.5t-155 -195t-238.5 -68.5q-118 0 -205.5 48.5t-128.5 135.5h-18v-516h-247v1857h242v-594h17q47 93 136.5 146t201.5 53zM676 193q86 0 147.5 42.5t94 121.5t32.5 190t-33 190t-94 121.5t-146 42.5t-146.5 -43
t-95.5 -122.5t-34 -188.5t34 -188.5t95 -122.5t146 -43z" />
    <glyph glyph-name="ydieresis" unicode="&#xff;" horiz-adv-x="1183" 
d="M271 -397q-8 0 -28.5 0.5t-41 1.5t-28.5 2v203q10 -2 32.5 -3t35.5 -1q79 0 125.5 32.5t70.5 108.5l13 48l-391 1099h272l256 -854h17l255 854h262l-395 -1129q-35 -102 -76 -171.5t-94.5 -111.5t-123 -60.5t-161.5 -18.5zM359 1279q-39 0 -71.5 19.5t-52 51.5t-19.5 72
t19.5 72.5t52 52t71.5 19.5q40 0 72 -19.5t51.5 -52t19.5 -72.5t-19.5 -72t-51.5 -51.5t-72 -19.5zM823 1279q-39 0 -71.5 19.5t-52 51.5t-19.5 72t19.5 72.5t52 52t71.5 19.5q40 0 72 -19.5t51.5 -52t19.5 -72.5t-19.5 -72t-51.5 -51.5t-72 -19.5z" />
    <glyph glyph-name="Amacron" unicode="&#x100;" horiz-adv-x="1456" 
d="M1108 0l-122 369h-531l-124 -369h-261l512 1443h290l513 -1443h-277zM713 1168l-198 -595h411l-196 595h-17zM1077 1834v-164h-700v164h700z" />
    <glyph glyph-name="amacron" unicode="&#x101;" horiz-adv-x="1179" 
d="M525 177q75 0 134.5 29.5t93.5 80.5t34 114v87l-247 -16q-104 -7 -154 -44t-50 -104q0 -69 53.5 -108t135.5 -39zM452 -18q-105 0 -187 40.5t-128.5 114t-46.5 173.5q0 148 107.5 232t307.5 96l282 17v92q0 80 -53 123.5t-153 43.5q-86 0 -142 -29t-73 -85h-234
q10 96 70.5 167t160.5 110t230 39q140 0 238.5 -44t149.5 -126.5t51 -198.5v-747h-239v150h-17q-46 -80 -131.5 -124t-192.5 -44zM943 1502v-165h-700v165h700z" />
    <glyph glyph-name="Abreve" unicode="&#x102;" horiz-adv-x="1456" 
d="M1108 0l-122 369h-531l-124 -369h-261l512 1443h290l513 -1443h-277zM713 1168l-198 -595h411l-196 595h-17zM347 1898h188q2 -74 51.5 -119.5t140.5 -45.5t140.5 45.5t51.5 119.5h188q0 -94 -45 -166t-130 -113t-205 -41t-205 41t-130 113t-45 166z" />
    <glyph glyph-name="abreve" unicode="&#x103;" horiz-adv-x="1179" 
d="M525 177q75 0 134.5 29.5t93.5 80.5t34 114v87l-247 -16q-104 -7 -154 -44t-50 -104q0 -69 53.5 -108t135.5 -39zM452 -18q-105 0 -187 40.5t-128.5 114t-46.5 173.5q0 148 107.5 232t307.5 96l282 17v92q0 80 -53 123.5t-153 43.5q-86 0 -142 -29t-73 -85h-234
q10 96 70.5 167t160.5 110t230 39q140 0 238.5 -44t149.5 -126.5t51 -198.5v-747h-239v150h-17q-46 -80 -131.5 -124t-192.5 -44zM217 1591h188q1 -87 47.5 -140t140.5 -53t140.5 53t47.5 140h188q0 -103 -44 -182t-128 -123.5t-204 -44.5q-121 0 -204.5 44.5t-127.5 123.5
t-44 182z" />
    <glyph glyph-name="Aogonek" unicode="&#x104;" horiz-adv-x="1456" 
d="M515 573h411l-196 595h-17zM1385 0h-20q-57 -16 -100.5 -45t-68 -66t-24.5 -78q0 -45 30 -72.5t89 -27.5q32 0 69 9v-155q-31 -10 -66 -15.5t-67 -5.5q-74 0 -132.5 26t-92.5 74.5t-34 115.5q0 62 34.5 125.5t104.5 117.5l-121 366h-531l-124 -369h-261l512 1443h290z
" />
    <glyph glyph-name="aogonek" unicode="&#x105;" horiz-adv-x="1179" 
d="M787 401v87l-247 -16q-104 -7 -154 -44t-50 -104q0 -69 53.5 -108t135.5 -39q75 0 134.5 29.5t93.5 80.5t34 114zM1032 747v-747q-57 -16 -100.5 -45t-68 -66t-24.5 -78q0 -45 30 -72.5t89 -27.5q31 0 69 9v-155q-32 -10 -66.5 -15.5t-66.5 -5.5q-74 0 -132.5 26
t-92.5 74.5t-34 115.5q0 65 38.5 132.5t119.5 123.5v134h-17q-46 -80 -131.5 -124t-192.5 -44q-105 0 -187 40.5t-128.5 114t-46.5 173.5q0 148 107.5 232t307.5 96l282 17v92q0 80 -53 123.5t-153 43.5q-86 0 -142 -29t-73 -85h-234q10 96 70.5 167t160.5 110t230 39
q140 0 238.5 -44t149.5 -126.5t51 -198.5z" />
    <glyph glyph-name="Cacute" unicode="&#x106;" horiz-adv-x="1499" 
d="M779 -36q-153 0 -275.5 52.5t-209 151t-132.5 238.5t-46 315q0 176 45.5 316t132 239t209 151t275.5 52q123 0 229 -38t188 -107t132.5 -163t61.5 -207h-254q-18 86 -68 150.5t-124 99.5t-165 35q-123 0 -212 -64t-137.5 -182.5t-48.5 -280.5q0 -163 48.5 -281.5
t138 -182.5t212.5 -64q92 0 166 32t124 91.5t67 140.5h254q-13 -111 -63 -201.5t-130.5 -156t-186.5 -101t-231 -35.5zM879 1585h-193l174 315h268z" />
    <glyph glyph-name="cacute" unicode="&#x107;" horiz-adv-x="1182" 
d="M1096 726h-236q-17 80 -78 131t-163 51q-128 0 -199.5 -94t-71.5 -264q0 -172 72 -268t199 -96q97 0 159.5 45t81.5 130h236q-13 -114 -73.5 -200.5t-162 -134.5t-240.5 -48q-165 0 -282 68t-179 196t-62 308q0 178 62 304.5t179 194t281 67.5q140 0 242.5 -49.5
t162 -137.5t72.5 -203zM713 1243h-187l171 348h250z" />
    <glyph glyph-name="Ccircumflex" unicode="&#x108;" horiz-adv-x="1499" 
d="M779 -36q-153 0 -275.5 52.5t-209 151t-132.5 238.5t-46 315q0 176 45.5 316t132 239t209 151t275.5 52q123 0 229 -38t188 -107t132.5 -163t61.5 -207h-254q-18 86 -68 150.5t-124 99.5t-165 35q-123 0 -212 -64t-137.5 -182.5t-48.5 -280.5q0 -163 48.5 -281.5
t138 -182.5t212.5 -64q92 0 166 32t124 91.5t67 140.5h254q-13 -111 -63 -201.5t-130.5 -156t-186.5 -101t-231 -35.5zM662 1900h232l290 -315h-242l-155 179h-18l-155 -179h-242z" />
    <glyph glyph-name="ccircumflex" unicode="&#x109;" horiz-adv-x="1182" 
d="M1096 726h-236q-17 80 -78 131t-163 51q-128 0 -199.5 -94t-71.5 -264q0 -172 72 -268t199 -96q97 0 159.5 45t81.5 130h236q-13 -114 -73.5 -200.5t-162 -134.5t-240.5 -48q-165 0 -282 68t-179 196t-62 308q0 178 62 304.5t179 194t281 67.5q140 0 242.5 -49.5
t162 -137.5t72.5 -203zM747 1591l251 -348h-233l-138 215h-18l-138 -215h-233l251 348h258z" />
    <glyph glyph-name="Cdotaccent" unicode="&#x10a;" horiz-adv-x="1499" 
d="M779 -36q-153 0 -275.5 52.5t-209 151t-132.5 238.5t-46 315q0 176 45.5 316t132 239t209 151t275.5 52q123 0 229 -38t188 -107t132.5 -163t61.5 -207h-254q-18 86 -68 150.5t-124 99.5t-165 35q-123 0 -212 -64t-137.5 -182.5t-48.5 -280.5q0 -163 48.5 -281.5
t138 -182.5t212.5 -64q92 0 166 32t124 91.5t67 140.5h254q-13 -111 -63 -201.5t-130.5 -156t-186.5 -101t-231 -35.5zM778 1607q-41 0 -74.5 20t-53.5 54.5t-20 75.5t20 75t53.5 54t74.5 20t74.5 -20t53.5 -54t20 -75t-20 -75.5t-53.5 -54.5t-74.5 -20z" />
    <glyph glyph-name="cdotaccent" unicode="&#x10b;" horiz-adv-x="1182" 
d="M1096 726h-236q-17 80 -78 131t-163 51q-128 0 -199.5 -94t-71.5 -264q0 -172 72 -268t199 -96q97 0 159.5 45t81.5 130h236q-13 -114 -73.5 -200.5t-162 -134.5t-240.5 -48q-165 0 -282 68t-179 196t-62 308q0 178 62 304.5t179 194t281 67.5q140 0 242.5 -49.5
t162 -137.5t72.5 -203zM618 1275q-41 0 -74.5 20t-53.5 53.5t-20 75.5t20 76t53.5 54t74.5 20t74.5 -20t53.5 -54t20 -76t-20 -75.5t-53.5 -53.5t-74.5 -20z" />
    <glyph glyph-name="Ccaron" unicode="&#x10c;" horiz-adv-x="1499" 
d="M779 -36q-153 0 -275.5 52.5t-209 151t-132.5 238.5t-46 315q0 176 45.5 316t132 239t209 151t275.5 52q123 0 229 -38t188 -107t132.5 -163t61.5 -207h-254q-18 86 -68 150.5t-124 99.5t-165 35q-123 0 -212 -64t-137.5 -182.5t-48.5 -280.5q0 -163 48.5 -281.5
t138 -182.5t212.5 -64q92 0 166 32t124 91.5t67 140.5h254q-13 -111 -63 -201.5t-130.5 -156t-186.5 -101t-231 -35.5zM662 1585l-290 315h242l155 -179h18l155 179h242l-290 -315h-232z" />
    <glyph glyph-name="ccaron" unicode="&#x10d;" horiz-adv-x="1182" 
d="M1096 726h-236q-17 80 -78 131t-163 51q-128 0 -199.5 -94t-71.5 -264q0 -172 72 -268t199 -96q97 0 159.5 45t81.5 130h236q-13 -114 -73.5 -200.5t-162 -134.5t-240.5 -48q-165 0 -282 68t-179 196t-62 308q0 178 62 304.5t179 194t281 67.5q140 0 242.5 -49.5
t162 -137.5t72.5 -203zM747 1243h-258l-251 348h233l138 -215h18l138 215h233z" />
    <glyph glyph-name="Dcaron" unicode="&#x10e;" horiz-adv-x="1515" 
d="M177 1443h541q215 0 366.5 -84.5t232 -244.5t80.5 -386q0 -232 -80 -394.5t-231.5 -248t-367.5 -85.5h-541v1443zM435 1220v-997h249q215 0 332.5 129.5t117.5 371.5q0 158 -53.5 268.5t-154.5 169t-242 58.5h-249zM519 1585l-290 315h242l155 -179h18l155 179h242
l-290 -315h-232z" />
    <glyph glyph-name="dcaron" unicode="&#x10f;" horiz-adv-x="1477" 
d="M1285 1591h217l-62 -513h-155v513zM547 -18q-138 0 -239 69t-156 196t-55 301q0 173 55 299.5t156 195.5t239 69q112 0 200 -51t132 -141h17v597h248v-1517h-240v173h-17q-46 -90 -136 -140.5t-204 -50.5zM624 901q-85 0 -146 -42.5t-94 -122t-33 -189.5q0 -111 33 -190
t94 -121.5t146 -42.5t147 42.5t95 122t33 189.5q0 109 -33.5 188.5t-95 122.5t-146.5 43z" />
    <glyph glyph-name="Dcroat" unicode="&#x110;" horiz-adv-x="1515" 
d="M435 223h249q215 0 332.5 129.5t117.5 371.5q0 158 -53.5 268.5t-154.5 169t-242 58.5h-249v-382h276v-204h-276v-411zM177 1443h541q215 0 366.5 -84.5t232 -244.5t80.5 -386q0 -232 -80 -394.5t-231.5 -248t-367.5 -85.5h-541v634h-137v204h137v605z" />
    <glyph glyph-name="dcroat" unicode="&#x111;" horiz-adv-x="1306" 
d="M624 193q85 0 147 42.5t95 122t33 189.5q0 109 -33.5 188.5t-95 122.5t-146.5 43t-146 -42.5t-94 -122t-33 -189.5q0 -111 33 -190t94 -121.5t146 -42.5zM1288 1405v-142h-144v-1263h-240v173h-17q-46 -90 -136 -140.5t-204 -50.5q-138 0 -239 69t-156 196t-55 301
q0 173 55 299.5t156 195.5t239 69q112 0 200 -51t132 -141h17v343h-243v142h243v112h248v-112h144z" />
    <glyph glyph-name="Emacron" unicode="&#x112;" horiz-adv-x="1254" 
d="M1111 223v-223h-934v1443h934v-223h-676v-383h639v-210h-639v-404h676zM994 1834v-164h-700v164h700z" />
    <glyph glyph-name="emacron" unicode="&#x113;" horiz-adv-x="1208" 
d="M610 919q-74 0 -131.5 -33t-91.5 -93t-40 -140h515q-3 81 -34.5 141t-87 92.5t-130.5 32.5zM864 301h235q-22 -99 -88 -171.5t-167.5 -112t-230.5 -39.5q-161 0 -276.5 68t-177.5 194.5t-62 302.5t62.5 304.5t178 198.5t273.5 70q156 0 267.5 -66t171.5 -190t60 -296v-80
h-764v-13q3 -91 37.5 -157.5t95 -102.5t141.5 -36q92 0 154.5 32.5t89.5 93.5zM963 1502v-165h-700v165h700z" />
    <glyph glyph-name="Ebreve" unicode="&#x114;" horiz-adv-x="1254" 
d="M1111 223v-223h-934v1443h934v-223h-676v-383h639v-210h-639v-404h676zM264 1898h188q1 -74 51 -119.5t141 -45.5t141 45.5t51 119.5h188q0 -94 -45 -166t-130.5 -113t-204.5 -41t-204.5 41t-130.5 113t-45 166z" />
    <glyph glyph-name="ebreve" unicode="&#x115;" horiz-adv-x="1208" 
d="M610 919q-74 0 -131.5 -33t-91.5 -93t-40 -140h515q-3 81 -34.5 141t-87 92.5t-130.5 32.5zM864 301h235q-22 -99 -88 -171.5t-167.5 -112t-230.5 -39.5q-161 0 -276.5 68t-177.5 194.5t-62 302.5t62.5 304.5t178 198.5t273.5 70q156 0 267.5 -66t171.5 -190t60 -296v-80
h-764v-13q3 -91 37.5 -157.5t95 -102.5t141.5 -36q92 0 154.5 32.5t89.5 93.5zM237 1591h188q1 -87 47.5 -140t140.5 -53t140.5 53t47.5 140h188q0 -103 -44 -182t-128 -123.5t-204 -44.5q-121 0 -204.5 44.5t-127.5 123.5t-44 182z" />
    <glyph glyph-name="Edotaccent" unicode="&#x116;" horiz-adv-x="1254" 
d="M1111 223v-223h-934v1443h934v-223h-676v-383h639v-210h-639v-404h676zM644 1607q-41 0 -74.5 20t-53.5 54.5t-20 75.5t20 75t53.5 54t74.5 20t74.5 -20t53.5 -54t20 -75t-20 -75.5t-53.5 -54.5t-74.5 -20z" />
    <glyph glyph-name="edotaccent" unicode="&#x117;" horiz-adv-x="1208" 
d="M610 919q-74 0 -131.5 -33t-91.5 -93t-40 -140h515q-3 81 -34.5 141t-87 92.5t-130.5 32.5zM864 301h235q-22 -99 -88 -171.5t-167.5 -112t-230.5 -39.5q-161 0 -276.5 68t-177.5 194.5t-62 302.5t62.5 304.5t178 198.5t273.5 70q156 0 267.5 -66t171.5 -190t60 -296v-80
h-764v-13q3 -91 37.5 -157.5t95 -102.5t141.5 -36q92 0 154.5 32.5t89.5 93.5zM613 1275q-40 0 -74 20t-54 53.5t-20 75.5t20 76t54 54t74 20q41 0 74.5 -20t53.5 -54t20 -76t-20 -75.5t-53.5 -53.5t-74.5 -20z" />
    <glyph glyph-name="Eogonek" unicode="&#x118;" horiz-adv-x="1254" 
d="M1111 1220h-676v-383h639v-210h-639v-404h676v-223q-58 -16 -101.5 -45t-68 -66t-24.5 -78q0 -45 30 -72.5t89 -27.5q31 0 70 9v-155q-31 -10 -66.5 -15.5t-67.5 -5.5q-74 0 -132.5 26t-92.5 74.5t-34 115.5q0 61 33.5 123.5t102.5 116.5h-672v1443h934v-223z" />
    <glyph glyph-name="eogonek" unicode="&#x119;" horiz-adv-x="1208" 
d="M347 653h515q-3 81 -34.5 141t-87 92.5t-130.5 32.5q-74 0 -131.5 -33t-91.5 -93t-40 -140zM1110 484h-764v-13q3 -91 37.5 -157.5t95 -102.5t141.5 -36q92 0 154.5 32.5t89.5 93.5h235q-32 -137 -143 -221q-51 -46 -97 -90.5t-75 -89t-29 -91.5q0 -21 10 -44t34.5 -39
t67.5 -16q15 0 33.5 2.5t40.5 7.5v-155q-32 -10 -65 -15.5t-65 -5.5q-74 0 -133 23.5t-93 69t-34 110.5q0 63 36 123t104 112q-19 -2 -38.5 -3t-39.5 -1q-161 0 -276.5 68t-177.5 194.5t-62 302.5t62.5 304.5t178 198.5t273.5 70q156 0 267.5 -66t171.5 -190t60 -296v-80z
" />
    <glyph glyph-name="Ecaron" unicode="&#x11a;" horiz-adv-x="1254" 
d="M1111 223v-223h-934v1443h934v-223h-676v-383h639v-210h-639v-404h676zM528 1585l-290 315h242l155 -179h18l155 179h242l-290 -315h-232z" />
    <glyph glyph-name="ecaron" unicode="&#x11b;" horiz-adv-x="1208" 
d="M610 919q-74 0 -131.5 -33t-91.5 -93t-40 -140h515q-3 81 -34.5 141t-87 92.5t-130.5 32.5zM864 301h235q-22 -99 -88 -171.5t-167.5 -112t-230.5 -39.5q-161 0 -276.5 68t-177.5 194.5t-62 302.5t62.5 304.5t178 198.5t273.5 70q156 0 267.5 -66t171.5 -190t60 -296v-80
h-764v-13q3 -91 37.5 -157.5t95 -102.5t141.5 -36q92 0 154.5 32.5t89.5 93.5zM742 1243h-258l-251 348h233l138 -215h18l138 215h233z" />
    <glyph glyph-name="Gcircumflex" unicode="&#x11c;" horiz-adv-x="1547" 
d="M1425 578q0 -141 -44 -254t-127 -193.5t-199.5 -123.5t-260.5 -43q-157 0 -282 52.5t-213.5 151t-135.5 238.5t-47 316q0 173 47 312.5t135.5 239t213 152.5t278.5 53q125 0 231 -34t188 -98t134.5 -153t69.5 -200h-257q-39 123 -133 189t-233 66q-126 0 -218 -63.5
t-142 -181.5t-50 -280q0 -164 51 -283t144.5 -183t222.5 -64q110 0 193.5 42t131 117t49.5 174l1 30h-347v202h599v-181zM674 1901h232l290 -315h-242l-155 179h-18l-155 -179h-242z" />
    <glyph glyph-name="gcircumflex" unicode="&#x11d;" horiz-adv-x="1295" 
d="M621 218q86 0 148.5 41.5t95.5 118t33 181.5t-33.5 181.5t-95.5 118.5t-148 42t-147 -42t-92.5 -118.5t-31.5 -181.5t31.5 -181.5t92.5 -118t147 -41.5zM621 -416q-140 0 -245.5 39t-167.5 109t-72 164h249q12 -56 75 -89.5t165 -33.5q128 0 198.5 57t70.5 160v207h-17
q-47 -88 -133.5 -134.5t-200.5 -46.5q-138 0 -238.5 67t-155 189t-54.5 287q0 167 55 291.5t156 193t241 68.5q74 0 140.5 -23.5t117.5 -67t81 -102.5h17v175h239v-1098q0 -126 -64 -218.5t-180.5 -143t-276.5 -50.5zM759 1591l251 -348h-233l-138 215h-18l-138 -215h-233
l251 348h258z" />
    <glyph glyph-name="Gbreve" unicode="&#x11e;" horiz-adv-x="1547" 
d="M1425 578q0 -141 -44 -254t-127 -193.5t-199.5 -123.5t-260.5 -43q-157 0 -282 52.5t-213.5 151t-135.5 238.5t-47 316q0 173 47 312.5t135.5 239t213 152.5t278.5 53q125 0 231 -34t188 -98t134.5 -153t69.5 -200h-257q-39 123 -133 189t-233 66q-126 0 -218 -63.5
t-142 -181.5t-50 -280q0 -164 51 -283t144.5 -183t222.5 -64q110 0 193.5 42t131 117t49.5 174l1 30h-347v202h599v-181zM410 1899h188q1 -73 51 -119t141 -46t141 46t51 119h188q0 -94 -45 -166t-130.5 -113t-204.5 -41t-204.5 41t-130.5 113t-45 166z" />
    <glyph glyph-name="gbreve" unicode="&#x11f;" horiz-adv-x="1295" 
d="M621 218q86 0 148.5 41.5t95.5 118t33 181.5t-33.5 181.5t-95.5 118.5t-148 42t-147 -42t-92.5 -118.5t-31.5 -181.5t31.5 -181.5t92.5 -118t147 -41.5zM621 -416q-140 0 -245.5 39t-167.5 109t-72 164h249q12 -56 75 -89.5t165 -33.5q128 0 198.5 57t70.5 160v207h-17
q-47 -88 -133.5 -134.5t-200.5 -46.5q-138 0 -238.5 67t-155 189t-54.5 287q0 167 55 291.5t156 193t241 68.5q74 0 140.5 -23.5t117.5 -67t81 -102.5h17v175h239v-1098q0 -126 -64 -218.5t-180.5 -143t-276.5 -50.5zM254 1591h188q1 -87 47.5 -140t140.5 -53t140.5 53
t47.5 140h188q0 -103 -44 -182t-127.5 -123.5t-204.5 -44.5t-204.5 44.5t-127.5 123.5t-44 182z" />
    <glyph glyph-name="Gdotaccent" unicode="&#x120;" horiz-adv-x="1547" 
d="M1425 578q0 -141 -44 -254t-127 -193.5t-199.5 -123.5t-260.5 -43q-157 0 -282 52.5t-213.5 151t-135.5 238.5t-47 316q0 173 47 312.5t135.5 239t213 152.5t278.5 53q125 0 231 -34t188 -98t134.5 -153t69.5 -200h-257q-39 123 -133 189t-233 66q-126 0 -218 -63.5
t-142 -181.5t-50 -280q0 -164 51 -283t144.5 -183t222.5 -64q110 0 193.5 42t131 117t49.5 174l1 30h-347v202h599v-181zM790 1608q-41 0 -74.5 20t-53.5 54t-20 76t20 75.5t53.5 53.5t74.5 20t74.5 -20t53.5 -53.5t20 -75.5t-20 -76t-53.5 -54t-74.5 -20z" />
    <glyph glyph-name="gdotaccent" unicode="&#x121;" horiz-adv-x="1295" 
d="M621 218q86 0 148.5 41.5t95.5 118t33 181.5t-33.5 181.5t-95.5 118.5t-148 42t-147 -42t-92.5 -118.5t-31.5 -181.5t31.5 -181.5t92.5 -118t147 -41.5zM621 -416q-140 0 -245.5 39t-167.5 109t-72 164h249q12 -56 75 -89.5t165 -33.5q128 0 198.5 57t70.5 160v207h-17
q-47 -88 -133.5 -134.5t-200.5 -46.5q-138 0 -238.5 67t-155 189t-54.5 287q0 167 55 291.5t156 193t241 68.5q74 0 140.5 -23.5t117.5 -67t81 -102.5h17v175h239v-1098q0 -126 -64 -218.5t-180.5 -143t-276.5 -50.5zM630 1275q-41 0 -74.5 20t-53.5 53.5t-20 75.5t20 76
t53.5 54t74.5 20t74.5 -20t53.5 -54t20 -76t-20 -75.5t-53.5 -53.5t-74.5 -20z" />
    <glyph glyph-name="Gcommaaccent" unicode="&#x122;" horiz-adv-x="1547" 
d="M1425 578q0 -141 -44 -254t-127 -193.5t-199.5 -123.5t-260.5 -43q-157 0 -282 52.5t-213.5 151t-135.5 238.5t-47 316q0 173 47 312.5t135.5 239t213 152.5t278.5 53q125 0 231 -34t188 -98t134.5 -153t69.5 -200h-257q-39 123 -133 189t-233 66q-126 0 -218 -63.5
t-142 -181.5t-50 -280q0 -164 51 -283t144.5 -183t222.5 -64q110 0 193.5 42t131 117t49.5 174l1 30h-347v202h599v-181zM761 -494h-181l91 370h246z" />
    <glyph glyph-name="gcommaaccent" unicode="&#x123;" horiz-adv-x="1295" 
d="M621 218q86 0 148.5 41.5t95.5 118t33 181.5t-33.5 181.5t-95.5 118.5t-148 42t-147 -42t-92.5 -118.5t-31.5 -181.5t31.5 -181.5t92.5 -118t147 -41.5zM621 -416q-140 0 -245.5 39t-167.5 109t-72 164h249q12 -56 75 -89.5t165 -33.5q128 0 198.5 57t70.5 160v207h-17
q-47 -88 -133.5 -134.5t-200.5 -46.5q-138 0 -238.5 67t-155 189t-54.5 287q0 167 55 291.5t156 193t241 68.5q74 0 140.5 -23.5t117.5 -67t81 -102.5h17v175h239v-1098q0 -126 -64 -218.5t-180.5 -143t-276.5 -50.5zM663 1612h181l-91 -370h-246z" />
    <glyph glyph-name="Hcircumflex" unicode="&#x124;" horiz-adv-x="1573" 
d="M1394 0h-257v623h-702v-623h-258v1443h258v-597h702v597h257v-1443zM670 1900h232l290 -315h-242l-155 179h-18l-155 -179h-242z" />
    <glyph glyph-name="hcircumflex" unicode="&#x125;" horiz-adv-x="1274" 
d="M162 0v1517h244v-600h18q39 92 124.5 144.5t207.5 52.5q117 0 201.5 -48t129.5 -139t45 -221v-706h-248v647q0 125 -56 188t-164 63q-82 0 -138.5 -33t-86 -92t-29.5 -138v-635h-248zM168 1974h232l290 -315h-242l-155 179h-18l-155 -179h-242z" />
    <glyph glyph-name="Hbar" unicode="&#x126;" horiz-adv-x="1573" 
d="M1137 846v215h-702v-215h702zM1546 1245v-184h-152v-1061h-257v623h-702v-623h-258v1061h-152v184h152v198h258v-198h702v198h257v-198h152z" />
    <glyph glyph-name="hbar" unicode="&#x127;" horiz-adv-x="1274" 
d="M405 917h18q39 92 124.5 144.5t207.5 52.5q117 0 201.5 -48t129.5 -139t45 -221v-706h-248v647q0 125 -56 188t-164 63q-82 0 -138.5 -33t-86 -92t-29.5 -138v-635h-248v1263h-144v142h144v112h244v-112h246v-142h-246v-346z" />
    <glyph glyph-name="Itilde" unicode="&#x128;" horiz-adv-x="614" 
d="M436 0h-258v1443h258v-1443zM446 1579q-49 0 -82.5 14.5t-57.5 35.5t-43.5 42t-39.5 35.5t-46 14.5q-77 0 -77 -141h-167q0 146 64.5 226.5t172.5 80.5q48 0 81.5 -15t58 -37t44.5 -44.5t41 -37.5t48 -15q41 0 59 37.5t18 110.5h167q0 -145 -65.5 -226t-175.5 -81z" />
    <glyph glyph-name="itilde" unicode="&#x129;" horiz-adv-x="557" 
d="M155 0v1094h247v-1094h-247zM417 1246q-49 0 -82.5 14.5t-57.5 36t-43.5 42.5t-39.5 35.5t-46 14.5q-77 0 -77 -142h-167q0 97 29.5 166t82.5 105.5t125 36.5q48 0 81.5 -15t58 -37t44.5 -44.5t41 -37.5t48 -15q40 0 58.5 37.5t18.5 109.5h167q0 -96 -29.5 -165
t-84 -105.5t-127.5 -36.5z" />
    <glyph glyph-name="Imacron" unicode="&#x12a;" horiz-adv-x="614" 
d="M436 0h-258v1443h258v-1443zM657 1834v-164h-700v164h700z" />
    <glyph glyph-name="imacron" unicode="&#x12b;" horiz-adv-x="557" 
d="M155 0v1094h247v-1094h-247zM576 1502v-165h-596v165h596z" />
    <glyph glyph-name="Ibreve" unicode="&#x12c;" horiz-adv-x="614" 
d="M436 0h-258v1443h258v-1443zM-73 1898h188q1 -74 51 -119.5t141 -45.5t141 45.5t51 119.5h188q0 -94 -45 -166t-130.5 -113t-204.5 -41t-204.5 41t-130.5 113t-45 166z" />
    <glyph glyph-name="ibreve" unicode="&#x12d;" horiz-adv-x="557" 
d="M155 0v1094h247v-1094h-247zM-98 1591h188q1 -87 47.5 -140t140.5 -53t140.5 53t47.5 140h188q0 -103 -44 -182t-128 -123.5t-204 -44.5t-204 44.5t-128 123.5t-44 182z" />
    <glyph glyph-name="Iogonek" unicode="&#x12e;" horiz-adv-x="614" 
d="M177 1443h258v-1443h-6q-58 -16 -101.5 -45t-68 -66t-24.5 -78q0 -45 30 -72.5t89 -27.5q31 0 70 9v-155q-31 -10 -66.5 -15.5t-67.5 -5.5q-74 0 -132.5 26t-92.5 74.5t-34 115.5q0 63 36 127.5t110 120.5v1435z" />
    <glyph glyph-name="iogonek" unicode="&#x12f;" horiz-adv-x="557" 
d="M278 1275q-40 0 -74 20t-54 53.5t-20 75.5t20 76t54 54t74 20q41 0 74.5 -20t53.5 -54t20 -76t-20 -75.5t-53.5 -53.5t-74.5 -20zM155 11v1083h247v-1094q-57 -16 -100.5 -45t-68 -66t-24.5 -78q0 -45 30 -72.5t89 -27.5q32 0 69 9v-155q-31 -10 -66 -15.5t-67 -5.5
q-74 0 -132.5 26t-92.5 74.5t-34 115.5q0 64 36.5 130t113.5 121z" />
    <glyph glyph-name="Idotaccent" unicode="&#x130;" horiz-adv-x="614" 
d="M435 0h-258v1443h258v-1443zM306 1607q-41 0 -74.5 20t-53.5 54.5t-20 75.5t20 75t53.5 54t74.5 20t74.5 -20t53.5 -54t20 -75t-20 -75.5t-53.5 -54.5t-74.5 -20z" />
    <glyph glyph-name="dotlessi" unicode="&#x131;" horiz-adv-x="557" 
d="M154 0v1094h247v-1094h-247z" />
    <glyph glyph-name="IJ" unicode="&#x132;" horiz-adv-x="1798" 
d="M435 0h-258v1443h258v-1443zM692 393h252q1 -89 58 -143t149 -54q101 0 155.5 60.5t54.5 176.5v1010h258v-1012q0 -149 -56 -253t-160 -159t-249 -55q-138 0 -242 53t-162 149t-58 227z" />
    <glyph glyph-name="ij" unicode="&#x133;" horiz-adv-x="1114" 
d="M154 0v1094h247v-1094h-247zM277 1275q-40 0 -74 20t-54 53.5t-20 75.5t20 76t54 54t74 20q41 0 74.5 -20t53.5 -54t20 -76t-20 -75.5t-53.5 -53.5t-74.5 -20zM958 1094v-1135q0 -333 -368 -333q-7 0 -20 0.5t-25 1t-15 1.5v195q2 0 15 -0.5t17 -0.5q83 0 116 33t33 107
v1131h247zM836 1275q-41 0 -74.5 20t-53.5 53.5t-20 75.5t20 76t53.5 54t74.5 20t74.5 -20t53.5 -54t20 -76t-20 -75.5t-53.5 -53.5t-74.5 -20z" />
    <glyph glyph-name="Jcircumflex" unicode="&#x134;" horiz-adv-x="1184" 
d="M78 393h252q1 -89 58 -143t149 -54q101 0 155.5 60.5t54.5 176.5v1010h258v-1012q0 -149 -56 -253t-160 -159t-249 -55q-138 0 -242 53t-162 149t-58 227zM760 1900h232l290 -315h-242l-155 179h-18l-155 -179h-242z" />
    <glyph glyph-name="jcircumflex" unicode="&#x135;" horiz-adv-x="557" 
d="M402 1094v-1135q0 -333 -368 -333q-6 0 -19 0.5t-25 1t-16 1.5v195q2 0 15 -0.5t17 -0.5q82 0 115.5 33t33.5 107v1131h247zM409 1591l251 -348h-233l-138 215h-18l-138 -215h-233l251 348h258z" />
    <glyph glyph-name="Kcommaaccent" unicode="&#x136;" horiz-adv-x="1415" 
d="M435 0h-258v1443h258v-664h17l569 664h296l-545 -629l588 -814h-315l-456 637l-154 -177v-460zM650 -494h-181l91 370h246z" />
    <glyph glyph-name="kcommaaccent" unicode="&#x137;" horiz-adv-x="1188" 
d="M426 648l404 446h288l-436 -469l466 -625h-300l-351 469l-88 -88v-381h-248v1517h248v-869h17zM599 -494h-181l91 370h246z" />
    <glyph glyph-name="Lacute" unicode="&#x139;" horiz-adv-x="1198" 
d="M1097 226v-226h-920v1443h258v-1217h662zM407 1585h-193l174 315h268z" />
    <glyph glyph-name="lacute" unicode="&#x13a;" horiz-adv-x="571" 
d="M161 0v1517h248v-1517h-248zM386 1659h-193l174 315h268z" />
    <glyph glyph-name="Lcommaaccent" unicode="&#x13b;" horiz-adv-x="1198" 
d="M1097 226v-226h-920v1443h258v-1217h662zM601 -494h-181l91 370h246z" />
    <glyph glyph-name="lcommaaccent" unicode="&#x13c;" horiz-adv-x="571" 
d="M161 0v1517h248v-1517h-248zM252 -494h-181l91 370h246z" />
    <glyph glyph-name="Lcaron" unicode="&#x13d;" horiz-adv-x="1198" 
d="M1097 226v-226h-920v1443h258v-1217h662zM688 1591h214l-59 -533h-155v533z" />
    <glyph glyph-name="lcaron" unicode="&#x13e;" horiz-adv-x="742" 
d="M161 0v1517h248v-1517h-248zM550 1591h217l-62 -514h-155v514z" />
    <glyph glyph-name="Lslash" unicode="&#x141;" horiz-adv-x="1198" 
d="M435 226h662v-226h-920v679l-157 -78v182l157 78v582h258v-453l255 127v-182l-255 -127v-582z" />
    <glyph glyph-name="lslash" unicode="&#x142;" horiz-adv-x="571" 
d="M534 1056v-184l-125 -62v-810h-248v687l-126 -62v185l126 62v645h248v-523z" />
    <glyph glyph-name="Nacute" unicode="&#x143;" horiz-adv-x="1554" 
d="M426 0h-249v1443h224l708 -981h17v981h248v-1443h-223l-708 982h-17v-982zM874 1585h-193l174 315h268z" />
    <glyph glyph-name="nacute" unicode="&#x144;" horiz-adv-x="1252" 
d="M151 0v1094h239v-175h17q39 91 121 144t204 53q183 0 280 -106t97 -302v-708h-248v649q0 125 -54 188t-167 63q-74 0 -128 -32t-83.5 -91t-29.5 -140v-637h-248zM730 1243h-187l171 348h250z" />
    <glyph glyph-name="Ncommaaccent" unicode="&#x145;" horiz-adv-x="1554" 
d="M426 0h-249v1443h224l708 -981h17v981h248v-1443h-223l-708 982h-17v-982zM740 -494h-181l91 370h246z" />
    <glyph glyph-name="ncommaaccent" unicode="&#x146;" horiz-adv-x="1252" 
d="M151 0v1094h239v-175h17q39 91 121 144t204 53q183 0 280 -106t97 -302v-708h-248v649q0 125 -54 188t-167 63q-74 0 -128 -32t-83.5 -91t-29.5 -140v-637h-248zM602 -494h-181l91 370h246z" />
    <glyph glyph-name="Ncaron" unicode="&#x147;" horiz-adv-x="1554" 
d="M426 0h-249v1443h224l708 -981h17v981h248v-1443h-223l-708 982h-17v-982zM657 1585l-290 315h242l155 -179h18l155 179h242l-290 -315h-232z" />
    <glyph glyph-name="ncaron" unicode="&#x148;" horiz-adv-x="1252" 
d="M151 0v1094h239v-175h17q39 91 121 144t204 53q183 0 280 -106t97 -302v-708h-248v649q0 125 -54 188t-167 63q-74 0 -128 -32t-83.5 -91t-29.5 -140v-637h-248zM764 1243h-258l-251 348h233l138 -215h18l138 215h233z" />
    <glyph glyph-name="Omacron" unicode="&#x14c;" horiz-adv-x="1599" 
d="M799 1479q158 0 283.5 -52.5t215 -151.5t136.5 -238.5t47 -314.5q0 -174 -47 -314t-136 -239.5t-215 -152t-284 -52.5q-159 0 -285 52.5t-215 151.5t-136 239t-47 315t47.5 314.5t137 238.5t215.5 151.5t283 52.5zM799 1250q-128 0 -222 -64.5t-145.5 -183t-51.5 -280.5
q0 -161 50.5 -280t144.5 -184t224 -65q128 0 222.5 65t145.5 184t51 280q0 162 -51.5 280.5t-145.5 183t-222 64.5zM1149 1834v-164h-700v164h700z" />
    <glyph glyph-name="omacron" unicode="&#x14d;" horiz-adv-x="1248" 
d="M623 -22q-164 0 -282 68.5t-181 196t-63 304.5t64 304.5t181.5 196t280.5 68.5t281 -68.5t181.5 -196t63.5 -304.5t-63.5 -304.5t-181 -196t-281.5 -68.5zM623 186q130 0 200.5 94.5t70.5 266.5q0 171 -71 266t-200 95q-130 0 -201 -95t-71 -266q0 -172 71 -266.5
t201 -94.5zM973 1502v-165h-700v165h700z" />
    <glyph glyph-name="Obreve" unicode="&#x14e;" horiz-adv-x="1599" 
d="M799 1479q158 0 283.5 -52.5t215 -151.5t136.5 -238.5t47 -314.5q0 -174 -47 -314t-136 -239.5t-215 -152t-284 -52.5q-159 0 -285 52.5t-215 151.5t-136 239t-47 315t47.5 314.5t137 238.5t215.5 151.5t283 52.5zM799 1250q-128 0 -222 -64.5t-145.5 -183t-51.5 -280.5
q0 -161 50.5 -280t144.5 -184t224 -65q128 0 222.5 65t145.5 184t51 280q0 162 -51.5 280.5t-145.5 183t-222 64.5zM419 1898h188q2 -74 51.5 -119.5t140.5 -45.5t140.5 45.5t51.5 119.5h188q0 -94 -45 -166t-130 -113t-205 -41t-205 41t-130 113t-45 166z" />
    <glyph glyph-name="obreve" unicode="&#x14f;" horiz-adv-x="1248" 
d="M623 -22q-164 0 -282 68.5t-181 196t-63 304.5t64 304.5t181.5 196t280.5 68.5t281 -68.5t181.5 -196t63.5 -304.5t-63.5 -304.5t-181 -196t-281.5 -68.5zM623 186q130 0 200.5 94.5t70.5 266.5q0 171 -71 266t-200 95q-130 0 -201 -95t-71 -266q0 -172 71 -266.5
t201 -94.5zM247 1591h188q1 -87 47.5 -140t140.5 -53t140.5 53t47.5 140h188q0 -103 -44 -182t-128 -123.5t-204 -44.5q-121 0 -204.5 44.5t-127.5 123.5t-44 182z" />
    <glyph glyph-name="Ohungarumlaut" unicode="&#x150;" horiz-adv-x="1599" 
d="M799 1479q158 0 283.5 -52.5t215 -151.5t136.5 -238.5t47 -314.5q0 -174 -47 -314t-136 -239.5t-215 -152t-284 -52.5q-159 0 -285 52.5t-215 151.5t-136 239t-47 315t47.5 314.5t137 238.5t215.5 151.5t283 52.5zM799 1250q-128 0 -222 -64.5t-145.5 -183t-51.5 -280.5
q0 -161 50.5 -280t144.5 -184t224 -65q128 0 222.5 65t145.5 184t51 280q0 162 -51.5 280.5t-145.5 183t-222 64.5zM1060 1585h-180l165 315h242zM694 1585h-179l124 315h224z" />
    <glyph glyph-name="ohungarumlaut" unicode="&#x151;" horiz-adv-x="1248" 
d="M623 -22q-164 0 -282 68.5t-181 196t-63 304.5t64 304.5t181.5 196t280.5 68.5t281 -68.5t181.5 -196t63.5 -304.5t-63.5 -304.5t-181 -196t-281.5 -68.5zM623 186q130 0 200.5 94.5t70.5 266.5q0 171 -71 266t-200 95q-130 0 -201 -95t-71 -266q0 -172 71 -266.5
t201 -94.5zM872 1243h-178l177 348h245zM520 1243h-171l111 348h236z" />
    <glyph glyph-name="OE" unicode="&#x152;" horiz-adv-x="2311" 
d="M806 1250q-131 0 -226.5 -64.5t-147.5 -183t-52 -280.5q0 -163 51.5 -281.5t147.5 -183t227 -64.5q127 0 219.5 64.5t142.5 183.5t50 281t-50 280.5t-142.5 183t-219.5 64.5zM1259 0v238h-17q-39 -82 -111.5 -143.5t-166 -96t-197.5 -34.5q-152 0 -272.5 52t-205 150
t-129 238.5t-44.5 317.5t44.5 317t129.5 238t205 150t272 52q76 0 149 -19.5t136.5 -54.5t112 -84t77.5 -107h17v229h908v-223h-688v-383h651v-210h-651v-404h688v-223h-908z" />
    <glyph glyph-name="oe" unicode="&#x153;" horiz-adv-x="2006" 
d="M1420 -22q-87 0 -164 24.5t-136 70t-92 106.5h-17q-34 -61 -92 -106t-135 -70t-167 -25q-160 0 -276 69t-178.5 196t-62.5 303t62.5 304t178.5 197t277 69q131 0 233.5 -53.5t160.5 -151.5h17q56 96 158.5 150.5t231.5 54.5q150 0 260 -67t170 -191t60 -293v-80h-764v-13
q3 -92 37 -158t94.5 -102t141.5 -36q92 0 154.5 32t90.5 93h233q-23 -100 -89 -172.5t-165 -111.5t-222 -39zM1660 653q-3 81 -34 141t-87 92.5t-130 32.5t-131.5 -32.5t-92 -92.5t-40.5 -141h515zM355 546q0 -171 70.5 -265.5t200.5 -94.5q129 0 200 94.5t71 265.5
q0 172 -71 267t-200 95t-200 -95t-71 -267z" />
    <glyph glyph-name="Racute" unicode="&#x154;" horiz-adv-x="1391" 
d="M435 1229v-483h298q123 0 190.5 63t67.5 178q0 113 -70.5 177.5t-193.5 64.5h-292zM435 541v-541h-258v1443h586q152 0 262.5 -55t170.5 -156.5t60 -239.5q0 -95 -32 -177t-93 -142.5t-147 -91.5l315 -581h-295l-283 541v0h-286zM736 1585h-193l174 315h268z" />
    <glyph glyph-name="racute" unicode="&#x155;" horiz-adv-x="851" 
d="M151 0v1094h239v-170h17q15 54 56.5 96.5t101.5 67t131 24.5q27 0 56.5 -3t46.5 -8v-230q-10 3 -32 6.5t-48 5.5t-47 2q-81 0 -142.5 -31.5t-96 -88.5t-34.5 -133v-632h-248zM518 1243h-187l171 348h250z" />
    <glyph glyph-name="Rcommaaccent" unicode="&#x156;" horiz-adv-x="1391" 
d="M435 1229v-483h298q123 0 190.5 63t67.5 178q0 113 -70.5 177.5t-193.5 64.5h-292zM435 541v-541h-258v1443h586q152 0 262.5 -55t170.5 -156.5t60 -239.5q0 -95 -32 -177t-93 -142.5t-147 -91.5l315 -581h-295l-283 541v0h-286zM602 -494h-181l91 370h246z" />
    <glyph glyph-name="rcommaaccent" unicode="&#x157;" horiz-adv-x="851" 
d="M151 0v1094h239v-170h17q15 54 56.5 96.5t101.5 67t131 24.5q27 0 56.5 -3t46.5 -8v-230q-10 3 -32 6.5t-48 5.5t-47 2q-81 0 -142.5 -31.5t-96 -88.5t-34.5 -133v-632h-248zM242 -494h-181l91 370h246z" />
    <glyph glyph-name="Rcaron" unicode="&#x158;" horiz-adv-x="1391" 
d="M435 1229v-483h298q123 0 190.5 63t67.5 178q0 113 -70.5 177.5t-193.5 64.5h-292zM435 541v-541h-258v1443h586q152 0 262.5 -55t170.5 -156.5t60 -239.5q0 -95 -32 -177t-93 -142.5t-147 -91.5l315 -581h-295l-283 541v0h-286zM519 1585l-290 315h242l155 -179h18
l155 179h242l-290 -315h-232z" />
    <glyph glyph-name="rcaron" unicode="&#x159;" horiz-adv-x="851" 
d="M151 0v1094h239v-170h17q15 54 56.5 96.5t101.5 67t131 24.5q27 0 56.5 -3t46.5 -8v-230q-10 3 -32 6.5t-48 5.5t-47 2q-81 0 -142.5 -31.5t-96 -88.5t-34.5 -133v-632h-248zM552 1243h-258l-251 348h233l138 -215h18l138 215h233z" />
    <glyph glyph-name="Sacute" unicode="&#x15a;" horiz-adv-x="1354" 
d="M111 392h252q8 -64 51 -112t114 -74t162 -26q85 0 151 27t104 74t38 107q0 78 -62.5 127t-201.5 81l-187 43q-197 44 -291 143.5t-94 260.5q0 98 38 178.5t109 138t170 88.5t220 31q114 0 209.5 -31t166.5 -87t112 -133.5t46 -170.5h-247q-9 63 -47.5 109.5t-100 72
t-140.5 25.5q-83 0 -145 -25t-96.5 -71t-34.5 -107q0 -73 59 -118.5t193 -76.5l166 -38q146 -33 238 -86.5t135 -132.5t43 -189q0 -140 -69 -242.5t-196 -158t-302 -55.5q-166 0 -290 52.5t-195.5 148.5t-77.5 227zM785 1585h-193l174 315h268z" />
    <glyph glyph-name="sacute" unicode="&#x15b;" horiz-adv-x="1128" 
d="M126 781q0 99 55.5 174.5t154.5 118t228 42.5q130 0 225.5 -37t151 -107t64.5 -170h-233q-13 58 -66.5 92t-140.5 34q-56 0 -101 -17t-71 -47t-26 -69q0 -47 40 -76.5t122 -48.5l193 -44q157 -35 231.5 -106t74.5 -192q0 -79 -34 -143t-96.5 -110.5t-148 -71.5
t-187.5 -25q-137 0 -237.5 38t-159 109t-67.5 170h245q18 -61 75 -95t150 -34q63 0 110.5 17t74.5 48t27 71q0 46 -36.5 76.5t-114.5 47.5l-194 45q-158 36 -233.5 111t-75.5 199zM659 1243h-187l171 348h250z" />
    <glyph glyph-name="Scircumflex" unicode="&#x15c;" horiz-adv-x="1354" 
d="M111 392h252q8 -64 51 -112t114 -74t162 -26q85 0 151 27t104 74t38 107q0 78 -62.5 127t-201.5 81l-187 43q-197 44 -291 143.5t-94 260.5q0 98 38 178.5t109 138t170 88.5t220 31q114 0 209.5 -31t166.5 -87t112 -133.5t46 -170.5h-247q-9 63 -47.5 109.5t-100 72
t-140.5 25.5q-83 0 -145 -25t-96.5 -71t-34.5 -107q0 -73 59 -118.5t193 -76.5l166 -38q146 -33 238 -86.5t135 -132.5t43 -189q0 -140 -69 -242.5t-196 -158t-302 -55.5q-166 0 -290 52.5t-195.5 148.5t-77.5 227zM568 1900h232l290 -315h-242l-155 179h-18l-155 -179h-242
z" />
    </font>
</defs>
</svg>
