<svg width="12" height="12" viewBox="0 0 12 12" fill="none" xmlns="http://www.w3.org/2000/svg">
<path d="M8.03203 3.375H10.875V10.125H1.125V3.375H3.96797L4.53047 1.875H7.47187L8.03203 3.375ZM7.60078 0.75H4.53047C4.06172 0.75 3.64219 1.04062 3.47812 1.47891L3.1875 2.25H1.125C0.503906 2.25 0 2.75391 0 3.375V10.125C0 10.7461 0.503906 11.25 1.125 11.25H10.875C11.4961 11.25 12 10.7461 12 10.125V3.375C12 2.75391 11.4961 2.25 10.875 2.25H8.8125L8.47734 1.35938C8.34141 0.991406 7.99219 0.75 7.60078 0.75ZM6 9.5625C4.44844 9.5625 3.1875 8.30156 3.1875 6.75C3.1875 5.19844 4.44844 3.9375 6 3.9375C7.55156 3.9375 8.8125 5.19844 8.8125 6.75C8.8125 8.30156 7.55156 9.5625 6 9.5625ZM6 5.0625C5.06953 5.0625 4.3125 5.81953 4.3125 6.75C4.3125 7.68047 5.06953 8.4375 6 8.4375C6.93047 8.4375 7.6875 7.68047 7.6875 6.75C7.6875 5.81953 6.93047 5.0625 6 5.0625Z" fill="black"/>
</svg>
