<svg width="16" height="14" viewBox="0 0 16 14" fill="none" xmlns="http://www.w3.org/2000/svg">
<path d="M8.9725 11.5016L8.8025 13.0505C8.775 13.3095 8.99 13.5278 9.2425 13.4973L10.765 13.3247L14.2125 9.82332L12.42 8.00281L8.9725 11.5016ZM15.825 7.32742L14.8775 6.36512C14.645 6.12898 14.265 6.12898 14.0325 6.36512L12.9875 7.42644L14.7825 9.24695L15.8275 8.18562C16.0575 7.94949 16.0575 7.56609 15.825 7.32742ZM5.5975 7.81238C7.5875 7.81492 9.2025 6.17469 9.2 4.15359C9.1975 2.16551 7.56 0.50242 5.6025 0.499881C3.6125 0.497342 1.9975 2.13758 2 4.15867C2.0025 6.14676 3.64 7.80984 5.5975 7.81238ZM5.4875 1.72117C6.9 1.65515 8.0625 2.83582 7.9975 4.27039C7.94 5.51961 6.945 6.53269 5.7125 6.59109C4.3 6.65711 3.1375 5.47644 3.2025 4.04187C3.26 2.79012 4.2575 1.77957 5.4875 1.72117ZM3.36 9.43738C3.725 9.43738 4.3175 9.84363 5.6 9.84363C6.8925 9.84363 7.4725 9.43738 7.84 9.43738C8.2575 9.43738 8.645 9.56433 8.9775 9.77507L9.8375 8.90164C9.2775 8.47761 8.5925 8.21863 7.84 8.21863C7.1225 8.21863 6.7775 8.62488 5.6 8.62488C4.4225 8.62488 4.08 8.21863 3.36 8.21863C1.505 8.21863 0 9.74715 0 11.6311V12.2811C0 12.954 0.5375 13.4999 1.2 13.4999H7.6575C7.5625 13.1292 7.6025 12.9845 7.68 12.2811H1.2V11.6311C1.2 10.4225 2.17 9.43738 3.36 9.43738Z" fill="black"/>
</svg>
