<svg width="22" height="17" viewBox="0 0 22 17" fill="none" xmlns="http://www.w3.org/2000/svg">
<path d="M20.3438 0.59375H1.65625C1.25869 0.59375 0.9375 0.914941 0.9375 1.3125V15.6875C0.9375 16.0851 1.25869 16.4062 1.65625 16.4062H20.3438C20.7413 16.4062 21.0625 16.0851 21.0625 15.6875V1.3125C21.0625 0.914941 20.7413 0.59375 20.3438 0.59375ZM19.4453 3.08242V14.7891H2.55469V3.08242L1.93477 2.59951L2.81748 1.46523L3.77881 2.21318H18.2234L19.1848 1.46523L20.0675 2.59951L19.4453 3.08242ZM18.2234 2.21094L11 7.82617L3.77656 2.21094L2.81523 1.46299L1.93252 2.59727L2.55244 3.08018L10.2251 9.0458C10.4458 9.21722 10.7172 9.31028 10.9966 9.31028C11.276 9.31028 11.5475 9.21722 11.7682 9.0458L19.4453 3.08242L20.0652 2.59951L19.1825 1.46523L18.2234 2.21094Z" fill="black"/>
</svg>
