<svg width="13" height="14" viewBox="0 0 13 14" fill="none" xmlns="http://www.w3.org/2000/svg">
<path d="M7.77679 11.375H8.47321C8.56557 11.375 8.65414 11.3404 8.71944 11.2789C8.78474 11.2174 8.82143 11.1339 8.82143 11.0469V5.14062C8.82143 5.0536 8.78474 4.97014 8.71944 4.90861C8.65414 4.84707 8.56557 4.8125 8.47321 4.8125H7.77679C7.68443 4.8125 7.59586 4.84707 7.53056 4.90861C7.46526 4.97014 7.42857 5.0536 7.42857 5.14062V11.0469C7.42857 11.1339 7.46526 11.2174 7.53056 11.2789C7.59586 11.3404 7.68443 11.375 7.77679 11.375ZM12.5357 2.1875H10.1444L9.15775 0.63711C9.03393 0.4427 8.85878 0.28183 8.64936 0.170176C8.43994 0.0585217 8.2034 -0.000107827 7.96279 1.48872e-07H5.03721C4.79669 -1.33648e-05 4.56027 0.0586611 4.35097 0.17031C4.14166 0.28196 3.9666 0.442779 3.84283 0.63711L2.85565 2.1875H0.464286C0.341149 2.1875 0.223057 2.23359 0.135986 2.31564C0.0489157 2.39769 0 2.50897 0 2.625L0 3.0625C0 3.17853 0.0489157 3.28981 0.135986 3.37186C0.223057 3.45391 0.341149 3.5 0.464286 3.5H0.928571V12.6875C0.928571 13.0356 1.07532 13.3694 1.33653 13.6156C1.59774 13.8617 1.95202 14 2.32143 14H10.6786C11.048 14 11.4023 13.8617 11.6635 13.6156C11.9247 13.3694 12.0714 13.0356 12.0714 12.6875V3.5H12.5357C12.6588 3.5 12.7769 3.45391 12.864 3.37186C12.9511 3.28981 13 3.17853 13 3.0625V2.625C13 2.50897 12.9511 2.39769 12.864 2.31564C12.7769 2.23359 12.6588 2.1875 12.5357 2.1875ZM4.98643 1.39207C5.00195 1.36773 5.0239 1.34761 5.05015 1.33366C5.07639 1.31971 5.10603 1.31242 5.13616 1.3125H7.86384C7.89392 1.31247 7.9235 1.31978 7.94969 1.33373C7.97588 1.34767 7.99779 1.36777 8.01328 1.39207L8.51993 2.1875H4.48007L4.98643 1.39207ZM10.6786 12.6875H2.32143V3.5H10.6786V12.6875ZM4.52679 11.375H5.22321C5.31557 11.375 5.40414 11.3404 5.46944 11.2789C5.53474 11.2174 5.57143 11.1339 5.57143 11.0469V5.14062C5.57143 5.0536 5.53474 4.97014 5.46944 4.90861C5.40414 4.84707 5.31557 4.8125 5.22321 4.8125H4.52679C4.43443 4.8125 4.34586 4.84707 4.28056 4.90861C4.21526 4.97014 4.17857 5.0536 4.17857 5.14062V11.0469C4.17857 11.1339 4.21526 11.2174 4.28056 11.2789C4.34586 11.3404 4.43443 11.375 4.52679 11.375Z" fill="#9B9B9B"/>
</svg>
